mtllib DC31A3.mtl
o DC31_A3
v 0.0000 0.7000 0.0000
v 0.0000 0.7000 0.0000
v 0.0000 0.7000 0.0000
v 0.0000 0.7000 0.0000
v 0.0000 0.7000 0.0000
v 0.0000 0.7000 0.0000
v 0.0000 0.7000 0.0000
v 0.0000 0.7000 0.0000
v 0.0000 0.7000 0.0000
v 0.0000 0.7000 0.0000
v 0.0000 0.7000 0.0000
v 0.0000 0.7000 0.0000
v 0.6885 0.6468 0.0000
v 0.5963 0.6468 0.4206
v 0.3446 0.6468 0.7285
v 0.0005 0.6468 0.8415
v -0.3436 0.6468 0.7292
v -0.5958 0.6468 0.4217
v -0.6885 0.6468 0.0013
v -0.5969 0.6468 -0.4194
v -0.3455 0.6468 -0.7279
v -0.0016 0.6468 -0.8415
v 0.3427 0.6468 -0.7299
v 0.5953 0.6468 -0.4229
v 1.2723 0.4952 0.0000
v 1.1020 0.4952 0.7772
v 0.6367 0.4952 1.3463
v 0.0010 0.4952 1.5550
v -0.6350 0.4952 1.3475
v -1.1010 0.4952 0.7793
v -1.2723 0.4952 0.0025
v -1.1030 0.4952 -0.7750
v -0.6385 0.4952 -1.3450
v -0.0030 0.4952 -1.5550
v 0.6332 0.4952 -1.3487
v 1.1000 0.4952 -0.7814
v 1.6626 0.2683 0.0000
v 1.4400 0.2683 1.0155
v 0.8320 0.2683 1.7593
v 0.0013 0.2683 2.0320
v -0.8298 0.2683 1.7609
v -1.4387 0.2683 1.0184
v -1.6626 0.2683 0.0032
v -1.4414 0.2683 -1.0127
v -0.8343 0.2683 -1.7576
v -0.0040 0.2683 -2.0320
v 0.8275 0.2683 -1.7625
v 1.4374 0.2683 -1.0211
v 1.8000 0.0006 0.0000
v 1.5591 0.0006 1.0995
v 0.9008 0.0006 1.9047
v 0.0014 0.0006 2.2000
v -0.8983 0.0006 1.9064
v -1.5576 0.0006 1.1025
v -1.8000 0.0006 0.0035
v -1.5605 0.0006 -1.0965
v -0.9033 0.0006 -1.9029
v -0.0043 0.0006 -2.2000
v 0.8959 0.0006 -1.9082
v 1.5562 0.0006 -1.1056
v 1.6637 -0.2672 0.0000
v 1.4410 -0.2672 1.0162
v 0.8326 -0.2672 1.7604
v 0.0013 -0.2672 2.0334
v -0.8303 -0.2672 1.7620
v -1.4397 -0.2672 1.0190
v -1.6637 -0.2672 0.0032
v -1.4423 -0.2672 -1.0134
v -0.8349 -0.2672 -1.7588
v -0.0040 -0.2672 -2.0334
v 0.8280 -0.2672 -1.7636
v 1.4383 -0.2672 -1.0218
v 1.2743 -0.4944 0.0000
v 1.1038 -0.4944 0.7784
v 0.6377 -0.4944 1.3484
v 0.0010 -0.4944 1.5575
v -0.6360 -0.4944 1.3497
v -1.1027 -0.4944 0.7805
v -1.2743 -0.4944 0.0025
v -1.1048 -0.4944 -0.7762
v -0.6395 -0.4944 -1.3472
v -0.0030 -0.4944 -1.5575
v 0.6342 -0.4944 -1.3509
v 1.1017 -0.4944 -0.7827
v 0.6911 -0.6463 0.0000
v 0.5986 -0.6463 0.4222
v 0.3459 -0.6463 0.7313
v 0.0006 -0.6463 0.8447
v -0.3449 -0.6463 0.7320
v -0.5981 -0.6463 0.4233
v -0.6911 -0.6463 0.0013
v -0.5992 -0.6463 -0.4210
v -0.3468 -0.6463 -0.7307
v -0.0017 -0.6463 -0.8447
v 0.3440 -0.6463 -0.7327
v 0.5975 -0.6463 -0.4245
v 0.0029 -0.7000 0.0000
v 0.0025 -0.7000 0.0018
v 0.0014 -0.7000 0.0030
v 0.0000 -0.7000 0.0035
v -0.0014 -0.7000 0.0030
v -0.0025 -0.7000 0.0018
v -0.0029 -0.7000 0.0000
v -0.0025 -0.7000 -0.0017
v -0.0014 -0.7000 -0.0030
v -0.0000 -0.7000 -0.0035
v 0.0014 -0.7000 -0.0030
v 0.0025 -0.7000 -0.0018
v 0.0000 0.5500 0.3000
v 0.0000 0.5500 0.3000
v 0.0000 0.5500 0.3000
v 0.0000 0.5500 0.3000
v 0.0000 0.5500 0.3000
v 0.0000 0.5500 0.3000
v 0.0000 0.5500 0.3000
v 0.0000 0.5500 0.3000
v 0.0000 0.5500 0.3000
v 0.0000 0.5500 0.3000
v 0.0000 0.5500 0.3000
v 0.0000 0.5500 0.3000
v 0.1912 0.5158 0.3000
v 0.1657 0.5158 0.3573
v 0.0957 0.5158 0.3993
v 0.0002 0.5158 0.4147
v -0.0954 0.5158 0.3994
v -0.1655 0.5158 0.3575
v -0.1912 0.5158 0.3002
v -0.1658 0.5158 0.2428
v -0.0960 0.5158 0.2007
v -0.0005 0.5158 0.1853
v 0.0952 0.5158 0.2005
v 0.1653 0.5158 0.2423
v 0.3534 0.4183 0.3000
v 0.3061 0.4183 0.4060
v 0.1769 0.4183 0.4836
v 0.0003 0.4183 0.5120
v -0.1764 0.4183 0.4838
v -0.3058 0.4183 0.4063
v -0.3534 0.4183 0.3003
v -0.3064 0.4183 0.1943
v -0.1774 0.4183 0.1166
v -0.0008 0.4183 0.0880
v 0.1759 0.4183 0.1161
v 0.3055 0.4183 0.1934
v 0.4618 0.2725 0.3000
v 0.4000 0.2725 0.4385
v 0.2311 0.2725 0.5399
v 0.0004 0.2725 0.5771
v -0.2305 0.2725 0.5401
v -0.3996 0.2725 0.4389
v -0.4618 0.2725 0.3004
v -0.4004 0.2725 0.1619
v -0.2318 0.2725 0.0603
v -0.0011 0.2725 0.0229
v 0.2299 0.2725 0.0597
v 0.3993 0.2725 0.1608
v 0.5000 0.1004 0.3000
v 0.4331 0.1004 0.4499
v 0.2502 0.1004 0.5597
v 0.0004 0.1004 0.6000
v -0.2495 0.1004 0.5600
v -0.4327 0.1004 0.4503
v -0.5000 0.1004 0.3005
v -0.4335 0.1004 0.1505
v -0.2509 0.1004 0.0405
v -0.0012 0.1004 0.0000
v 0.2488 0.1004 0.0398
v 0.4323 0.1004 0.1492
v 0.4621 -0.0718 0.3000
v 0.4003 -0.0718 0.4386
v 0.2313 -0.0718 0.5401
v 0.0004 -0.0718 0.5773
v -0.2306 -0.0718 0.5403
v -0.3999 -0.0718 0.4390
v -0.4621 -0.0718 0.3004
v -0.4006 -0.0718 0.1618
v -0.2319 -0.0718 0.0602
v -0.0011 -0.0718 0.0227
v 0.2300 -0.0718 0.0595
v 0.3995 -0.0718 0.1607
v 0.3540 -0.2178 0.3000
v 0.3066 -0.2178 0.4061
v 0.1772 -0.2178 0.4839
v 0.0003 -0.2178 0.5124
v -0.1767 -0.2178 0.4840
v -0.3063 -0.2178 0.4064
v -0.3540 -0.2178 0.3003
v -0.3069 -0.2178 0.1941
v -0.1776 -0.2178 0.1163
v -0.0008 -0.2178 0.0876
v 0.1762 -0.2178 0.1158
v 0.3060 -0.2178 0.1933
v 0.1920 -0.3155 0.3000
v 0.1663 -0.3155 0.3576
v 0.0961 -0.3155 0.3997
v 0.0002 -0.3155 0.4152
v -0.0958 -0.3155 0.3998
v -0.1661 -0.3155 0.3577
v -0.1920 -0.3155 0.3002
v -0.1664 -0.3155 0.2426
v -0.0963 -0.3155 0.2004
v -0.0005 -0.3155 0.1848
v 0.0956 -0.3155 0.2001
v 0.1660 -0.3155 0.2421
v 0.0008 -0.3500 0.3000
v 0.0007 -0.3500 0.3002
v 0.0004 -0.3500 0.3004
v 0.0000 -0.3500 0.3005
v -0.0004 -0.3500 0.3004
v -0.0007 -0.3500 0.3002
v -0.0008 -0.3500 0.3000
v -0.0007 -0.3500 0.2998
v -0.0004 -0.3500 0.2996
v -0.0000 -0.3500 0.2995
v 0.0004 -0.3500 0.2996
v 0.0007 -0.3500 0.2998
v 1.9000 -0.3500 0.0000
v 1.9000 -0.3500 0.0000
v 1.9000 -0.3500 0.0000
v 1.9000 -0.3500 0.0000
v 1.9000 -0.3500 0.0000
v 1.9000 -0.3500 0.0000
v 1.9000 -0.3500 0.0000
v 1.9000 -0.3500 0.0000
v 1.9000 -0.3500 0.0000
v 1.9000 -0.3500 0.0000
v 1.9000 -0.3500 0.0000
v 1.9000 -0.3500 0.0000
v 1.9956 -0.3690 0.0000
v 1.9828 -0.3690 0.0478
v 1.9479 -0.3690 0.0828
v 1.9001 -0.3690 0.0956
v 1.8523 -0.3690 0.0829
v 1.8172 -0.3690 0.0479
v 1.8044 -0.3690 0.0002
v 1.8171 -0.3690 -0.0477
v 1.8520 -0.3690 -0.0827
v 1.8998 -0.3690 -0.0956
v 1.9476 -0.3690 -0.0829
v 1.9827 -0.3690 -0.0481
v 2.0767 -0.4232 0.0000
v 2.0531 -0.4232 0.0883
v 1.9884 -0.4232 0.1530
v 1.9001 -0.4232 0.1767
v 1.8118 -0.4232 0.1531
v 1.7471 -0.4232 0.0886
v 1.7233 -0.4232 0.0003
v 1.7468 -0.4232 -0.0881
v 1.8113 -0.4232 -0.1528
v 1.8996 -0.4232 -0.1767
v 1.9879 -0.4232 -0.1533
v 2.0528 -0.4232 -0.0888
v 2.1309 -0.5042 0.0000
v 2.1000 -0.5042 0.1154
v 2.0156 -0.5042 0.1999
v 1.9002 -0.5042 0.2309
v 1.7848 -0.5042 0.2001
v 1.7002 -0.5042 0.1157
v 1.6691 -0.5042 0.0004
v 1.6998 -0.5042 -0.1151
v 1.7841 -0.5042 -0.1997
v 1.8994 -0.5042 -0.2309
v 2.0149 -0.5042 -0.2003
v 2.0996 -0.5042 -0.1160
v 2.1500 -0.5998 0.0000
v 2.1165 -0.5998 0.1249
v 2.0251 -0.5998 0.2164
v 1.9002 -0.5998 0.2500
v 1.7752 -0.5998 0.2166
v 1.6837 -0.5998 0.1253
v 1.6500 -0.5998 0.0004
v 1.6833 -0.5998 -0.1246
v 1.7745 -0.5998 -0.2162
v 1.8994 -0.5998 -0.2500
v 2.0244 -0.5998 -0.2168
v 2.1161 -0.5998 -0.1256
v 2.1311 -0.6954 0.0000
v 2.1001 -0.6954 0.1155
v 2.0156 -0.6954 0.2000
v 1.9002 -0.6954 0.2311
v 1.7847 -0.6954 0.2002
v 1.7000 -0.6954 0.1158
v 1.6689 -0.6954 0.0004
v 1.6997 -0.6954 -0.1152
v 1.7840 -0.6954 -0.1999
v 1.8994 -0.6954 -0.2311
v 2.0150 -0.6954 -0.2004
v 2.0998 -0.6954 -0.1161
v 2.0770 -0.7766 0.0000
v 2.0533 -0.7766 0.0885
v 1.9886 -0.7766 0.1532
v 1.9001 -0.7766 0.1770
v 1.8117 -0.7766 0.1534
v 1.7468 -0.7766 0.0887
v 1.7230 -0.7766 0.0003
v 1.7466 -0.7766 -0.0882
v 1.8112 -0.7766 -0.1531
v 1.8996 -0.7766 -0.1770
v 1.9881 -0.7766 -0.1535
v 2.0530 -0.7766 -0.0889
v 1.9960 -0.8308 0.0000
v 1.9831 -0.8308 0.0480
v 1.9480 -0.8308 0.0831
v 1.9001 -0.8308 0.0960
v 1.8521 -0.8308 0.0832
v 1.8169 -0.8308 0.0481
v 1.8040 -0.8308 0.0002
v 1.8168 -0.8308 -0.0478
v 1.8518 -0.8308 -0.0830
v 1.8998 -0.8308 -0.0960
v 1.9478 -0.8308 -0.0833
v 1.9830 -0.8308 -0.0482
v 1.9004 -0.8500 0.0000
v 1.9003 -0.8500 0.0002
v 1.9002 -0.8500 0.0003
v 1.9000 -0.8500 0.0004
v 1.8998 -0.8500 0.0003
v 1.8997 -0.8500 0.0002
v 1.8996 -0.8500 0.0000
v 1.8997 -0.8500 -0.0002
v 1.8998 -0.8500 -0.0003
v 1.9000 -0.8500 -0.0004
v 1.9002 -0.8500 -0.0003
v 1.9003 -0.8500 -0.0002
v 1.7555 -0.3500 0.7267
v 1.7555 -0.3500 0.7267
v 1.7555 -0.3500 0.7267
v 1.7555 -0.3500 0.7267
v 1.7555 -0.3500 0.7267
v 1.7555 -0.3500 0.7267
v 1.7555 -0.3500 0.7267
v 1.7555 -0.3500 0.7267
v 1.7555 -0.3500 0.7267
v 1.7555 -0.3500 0.7267
v 1.7555 -0.3500 0.7267
v 1.7555 -0.3500 0.7267
v 1.8511 -0.3690 0.7267
v 1.8383 -0.3690 0.7745
v 1.8034 -0.3690 0.8095
v 1.7556 -0.3690 0.8224
v 1.7078 -0.3690 0.8096
v 1.6728 -0.3690 0.7747
v 1.6599 -0.3690 0.7269
v 1.6726 -0.3690 0.6791
v 1.7075 -0.3690 0.6440
v 1.7553 -0.3690 0.6311
v 1.8031 -0.3690 0.6438
v 1.8382 -0.3690 0.6787
v 1.9322 -0.4232 0.7267
v 1.9086 -0.4232 0.8151
v 1.8440 -0.4232 0.8797
v 1.7557 -0.4232 0.9035
v 1.6673 -0.4232 0.8799
v 1.6026 -0.4232 0.8153
v 1.5788 -0.4232 0.7270
v 1.6023 -0.4232 0.6387
v 1.6668 -0.4232 0.5739
v 1.7551 -0.4232 0.5500
v 1.8435 -0.4232 0.5735
v 1.9083 -0.4232 0.6379
v 1.9864 -0.5042 0.7267
v 1.9555 -0.5042 0.8422
v 1.8711 -0.5042 0.9267
v 1.7557 -0.5042 0.9577
v 1.6403 -0.5042 0.9268
v 1.5557 -0.5042 0.8425
v 1.5246 -0.5042 0.7271
v 1.5553 -0.5042 0.6117
v 1.6396 -0.5042 0.5270
v 1.7550 -0.5042 0.4958
v 1.8704 -0.5042 0.5265
v 1.9552 -0.5042 0.6107
v 2.0055 -0.5998 0.7267
v 1.9721 -0.5998 0.8517
v 1.8806 -0.5998 0.9432
v 1.7557 -0.5998 0.9767
v 1.6307 -0.5998 0.9434
v 1.5392 -0.5998 0.8520
v 1.5055 -0.5998 0.7271
v 1.5388 -0.5998 0.6022
v 1.6301 -0.5998 0.5105
v 1.7549 -0.5998 0.4767
v 1.8799 -0.5998 0.5099
v 1.9717 -0.5998 0.6011
v 1.9866 -0.6954 0.7267
v 1.9557 -0.6954 0.8422
v 1.8712 -0.6954 0.9268
v 1.7557 -0.6954 0.9578
v 1.6402 -0.6954 0.9270
v 1.5556 -0.6954 0.8425
v 1.5245 -0.6954 0.7271
v 1.5552 -0.6954 0.6116
v 1.6396 -0.6954 0.5269
v 1.7550 -0.6954 0.4957
v 1.8705 -0.6954 0.5263
v 1.9553 -0.6954 0.6106
v 1.9325 -0.7766 0.7267
v 1.9088 -0.7766 0.8152
v 1.8441 -0.7766 0.8800
v 1.7557 -0.7766 0.9037
v 1.6672 -0.7766 0.8801
v 1.6024 -0.7766 0.8154
v 1.5785 -0.7766 0.7270
v 1.6021 -0.7766 0.6385
v 1.6667 -0.7766 0.5737
v 1.7551 -0.7766 0.5498
v 1.8436 -0.7766 0.5732
v 1.9085 -0.7766 0.6378
v 1.8515 -0.8308 0.7267
v 1.8387 -0.8308 0.7747
v 1.8036 -0.8308 0.8099
v 1.7556 -0.8308 0.8227
v 1.7076 -0.8308 0.8099
v 1.6724 -0.8308 0.7749
v 1.6595 -0.8308 0.7269
v 1.6723 -0.8308 0.6789
v 1.7073 -0.8308 0.6437
v 1.7553 -0.8308 0.6308
v 1.8033 -0.8308 0.6435
v 1.8385 -0.8308 0.6785
v 1.7559 -0.8500 0.7267
v 1.7559 -0.8500 0.7269
v 1.7557 -0.8500 0.7271
v 1.7555 -0.8500 0.7271
v 1.7553 -0.8500 0.7271
v 1.7552 -0.8500 0.7269
v 1.7551 -0.8500 0.7267
v 1.7552 -0.8500 0.7266
v 1.7553 -0.8500 0.7264
v 1.7555 -0.8500 0.7264
v 1.7557 -0.8500 0.7264
v 1.7559 -0.8500 0.7265
v 1.3440 -0.3500 1.3430
v 1.3440 -0.3500 1.3430
v 1.3440 -0.3500 1.3430
v 1.3440 -0.3500 1.3430
v 1.3440 -0.3500 1.3430
v 1.3440 -0.3500 1.3430
v 1.3440 -0.3500 1.3430
v 1.3440 -0.3500 1.3430
v 1.3440 -0.3500 1.3430
v 1.3440 -0.3500 1.3430
v 1.3440 -0.3500 1.3430
v 1.3440 -0.3500 1.3430
v 1.4397 -0.3690 1.3430
v 1.4269 -0.3690 1.3908
v 1.3919 -0.3690 1.4258
v 1.3441 -0.3690 1.4386
v 1.2963 -0.3690 1.4258
v 1.2613 -0.3690 1.3909
v 1.2484 -0.3690 1.3431
v 1.2611 -0.3690 1.2953
v 1.2960 -0.3690 1.2603
v 1.3438 -0.3690 1.2473
v 1.3916 -0.3690 1.2600
v 1.4267 -0.3690 1.2949
v 1.5207 -0.4232 1.3430
v 1.4971 -0.4232 1.4313
v 1.4325 -0.4232 1.4960
v 1.3442 -0.4232 1.5197
v 1.2558 -0.4232 1.4961
v 1.1911 -0.4232 1.4315
v 1.1673 -0.4232 1.3432
v 1.1908 -0.4232 1.2549
v 1.2554 -0.4232 1.1901
v 1.3436 -0.4232 1.1663
v 1.4320 -0.4232 1.1897
v 1.4968 -0.4232 1.2542
v 1.5750 -0.5042 1.3430
v 1.5440 -0.5042 1.4584
v 1.4596 -0.5042 1.5429
v 1.3442 -0.5042 1.5739
v 1.2288 -0.5042 1.5431
v 1.1442 -0.5042 1.4587
v 1.1131 -0.5042 1.3433
v 1.1438 -0.5042 1.2279
v 1.2282 -0.5042 1.1432
v 1.3435 -0.5042 1.1121
v 1.4590 -0.5042 1.1427
v 1.5437 -0.5042 1.2269
v 1.5940 -0.5998 1.3430
v 1.5606 -0.5998 1.4679
v 1.4692 -0.5998 1.5594
v 1.3442 -0.5998 1.5930
v 1.2193 -0.5998 1.5596
v 1.1277 -0.5998 1.4683
v 1.0940 -0.5998 1.3434
v 1.1273 -0.5998 1.2184
v 1.2186 -0.5998 1.1267
v 1.3434 -0.5998 1.0930
v 1.4685 -0.5998 1.1261
v 1.5602 -0.5998 1.2173
v 1.5751 -0.6954 1.3430
v 1.5442 -0.6954 1.4584
v 1.4597 -0.6954 1.5430
v 1.3442 -0.6954 1.5740
v 1.2287 -0.6954 1.5432
v 1.1441 -0.6954 1.4588
v 1.1130 -0.6954 1.3433
v 1.1437 -0.6954 1.2278
v 1.2281 -0.6954 1.1431
v 1.3435 -0.6954 1.1119
v 1.4590 -0.6954 1.1426
v 1.5438 -0.6954 1.2269
v 1.5210 -0.7766 1.3430
v 1.4973 -0.7766 1.4314
v 1.4326 -0.7766 1.4962
v 1.3442 -0.7766 1.5200
v 1.2557 -0.7766 1.4963
v 1.1909 -0.7766 1.4317
v 1.1671 -0.7766 1.3432
v 1.1906 -0.7766 1.2548
v 1.2552 -0.7766 1.1899
v 1.3436 -0.7766 1.1660
v 1.4321 -0.7766 1.1895
v 1.4971 -0.7766 1.2540
v 1.4400 -0.8308 1.3430
v 1.4272 -0.8308 1.3909
v 1.3921 -0.8308 1.4261
v 1.3441 -0.8308 1.4390
v 1.2961 -0.8308 1.4262
v 1.2610 -0.8308 1.3911
v 1.2480 -0.8308 1.3431
v 1.2608 -0.8308 1.2951
v 1.2959 -0.8308 1.2599
v 1.3438 -0.8308 1.2470
v 1.3918 -0.8308 1.2597
v 1.4270 -0.8308 1.2947
v 1.3444 -0.8500 1.3430
v 1.3444 -0.8500 1.3432
v 1.3442 -0.8500 1.3433
v 1.3440 -0.8500 1.3434
v 1.3438 -0.8500 1.3433
v 1.3437 -0.8500 1.3432
v 1.3436 -0.8500 1.3430
v 1.3437 -0.8500 1.3428
v 1.3438 -0.8500 1.3426
v 1.3440 -0.8500 1.3426
v 1.3442 -0.8500 1.3426
v 1.3444 -0.8500 1.3428
v 0.7281 -0.3500 1.7549
v 0.7281 -0.3500 1.7549
v 0.7281 -0.3500 1.7549
v 0.7281 -0.3500 1.7549
v 0.7281 -0.3500 1.7549
v 0.7281 -0.3500 1.7549
v 0.7281 -0.3500 1.7549
v 0.7281 -0.3500 1.7549
v 0.7281 -0.3500 1.7549
v 0.7281 -0.3500 1.7549
v 0.7281 -0.3500 1.7549
v 0.7281 -0.3500 1.7549
v 0.8238 -0.3690 1.7549
v 0.8110 -0.3690 1.8027
v 0.7760 -0.3690 1.8377
v 0.7282 -0.3690 1.8506
v 0.6804 -0.3690 1.8378
v 0.6454 -0.3690 1.8029
v 0.6325 -0.3690 1.7551
v 0.6452 -0.3690 1.7073
v 0.6802 -0.3690 1.6722
v 0.7279 -0.3690 1.6593
v 0.7757 -0.3690 1.6720
v 0.8108 -0.3690 1.7069
v 0.9049 -0.4232 1.7549
v 0.8812 -0.4232 1.8432
v 0.8166 -0.4232 1.9079
v 0.7283 -0.4232 1.9316
v 0.6400 -0.4232 1.9081
v 0.5752 -0.4232 1.8435
v 0.5514 -0.4232 1.7552
v 0.5750 -0.4232 1.6669
v 0.6395 -0.4232 1.6021
v 0.7277 -0.4232 1.5782
v 0.8161 -0.4232 1.6017
v 0.8809 -0.4232 1.6661
v 0.9591 -0.5042 1.7549
v 0.9282 -0.5042 1.8703
v 0.8437 -0.5042 1.9549
v 0.7283 -0.5042 1.9858
v 0.6129 -0.5042 1.9550
v 0.5283 -0.5042 1.8707
v 0.4972 -0.5042 1.7553
v 0.5280 -0.5042 1.6399
v 0.6123 -0.5042 1.5552
v 0.7276 -0.5042 1.5240
v 0.8431 -0.5042 1.5547
v 0.9278 -0.5042 1.6389
v 0.9781 -0.5998 1.7549
v 0.9447 -0.5998 1.8799
v 0.8533 -0.5998 1.9714
v 0.7283 -0.5998 2.0049
v 0.6034 -0.5998 1.9716
v 0.5118 -0.5998 1.8802
v 0.4781 -0.5998 1.7553
v 0.5114 -0.5998 1.6303
v 0.6027 -0.5998 1.5387
v 0.7275 -0.5998 1.5049
v 0.8526 -0.5998 1.5381
v 0.9443 -0.5998 1.6293
v 0.9592 -0.6954 1.7549
v 0.9283 -0.6954 1.8704
v 0.8438 -0.6954 1.9550
v 0.7283 -0.6954 1.9860
v 0.6128 -0.6954 1.9552
v 0.5282 -0.6954 1.8707
v 0.4971 -0.6954 1.7553
v 0.5278 -0.6954 1.6398
v 0.6122 -0.6954 1.5551
v 0.7276 -0.6954 1.5239
v 0.8431 -0.6954 1.5545
v 0.9279 -0.6954 1.6388
v 0.9051 -0.7766 1.7549
v 0.8814 -0.7766 1.8434
v 0.8167 -0.7766 1.9082
v 0.7283 -0.7766 1.9319
v 0.6398 -0.7766 1.9083
v 0.5750 -0.7766 1.8436
v 0.5512 -0.7766 1.7552
v 0.5747 -0.7766 1.6667
v 0.6393 -0.7766 1.6018
v 0.7277 -0.7766 1.5779
v 0.8162 -0.7766 1.6014
v 0.8812 -0.7766 1.6660
v 0.8241 -0.8308 1.7549
v 0.8113 -0.8308 1.8029
v 0.7762 -0.8308 1.8380
v 0.7282 -0.8308 1.8509
v 0.6802 -0.8308 1.8381
v 0.6451 -0.8308 1.8030
v 0.6322 -0.8308 1.7551
v 0.6449 -0.8308 1.7071
v 0.6800 -0.8308 1.6719
v 0.7279 -0.8308 1.6589
v 0.7759 -0.8308 1.6717
v 0.8111 -0.8308 1.7067
v 0.7285 -0.8500 1.7549
v 0.7285 -0.8500 1.7551
v 0.7283 -0.8500 1.7553
v 0.7281 -0.8500 1.7553
v 0.7279 -0.8500 1.7553
v 0.7278 -0.8500 1.7551
v 0.7277 -0.8500 1.7549
v 0.7278 -0.8500 1.7547
v 0.7279 -0.8500 1.7546
v 0.7281 -0.8500 1.7545
v 0.7283 -0.8500 1.7546
v 0.7285 -0.8500 1.7547
v 0.0015 -0.3500 1.9000
v 0.0015 -0.3500 1.9000
v 0.0015 -0.3500 1.9000
v 0.0015 -0.3500 1.9000
v 0.0015 -0.3500 1.9000
v 0.0015 -0.3500 1.9000
v 0.0015 -0.3500 1.9000
v 0.0015 -0.3500 1.9000
v 0.0015 -0.3500 1.9000
v 0.0015 -0.3500 1.9000
v 0.0015 -0.3500 1.9000
v 0.0015 -0.3500 1.9000
v 0.0971 -0.3690 1.9000
v 0.0843 -0.3690 1.9478
v 0.0494 -0.3690 1.9828
v 0.0016 -0.3690 1.9956
v -0.0462 -0.3690 1.9829
v -0.0812 -0.3690 1.9479
v -0.0941 -0.3690 1.9002
v -0.0814 -0.3690 1.8523
v -0.0465 -0.3690 1.8173
v 0.0013 -0.3690 1.8044
v 0.0491 -0.3690 1.8171
v 0.0842 -0.3690 1.8519
v 0.1782 -0.4232 1.9000
v 0.1546 -0.4232 1.9883
v 0.0899 -0.4232 2.0530
v 0.0017 -0.4232 2.0767
v -0.0867 -0.4232 2.0531
v -0.1514 -0.4232 1.9886
v -0.1752 -0.4232 1.9003
v -0.1517 -0.4232 1.8119
v -0.0872 -0.4232 1.7472
v 0.0011 -0.4232 1.7233
v 0.0895 -0.4232 1.7467
v 0.1543 -0.4232 1.8112
v 0.2324 -0.5042 1.9000
v 0.2015 -0.5042 2.0154
v 0.1171 -0.5042 2.0999
v 0.0017 -0.5042 2.1309
v -0.1137 -0.5042 2.1001
v -0.1983 -0.5042 2.0157
v -0.2294 -0.5042 1.9004
v -0.1987 -0.5042 1.7849
v -0.1144 -0.5042 1.7003
v 0.0010 -0.5042 1.6691
v 0.1164 -0.5042 1.6997
v 0.2012 -0.5042 1.7840
v 0.2515 -0.5998 1.9000
v 0.2181 -0.5998 2.0249
v 0.1266 -0.5998 2.1164
v 0.0017 -0.5998 2.1500
v -0.1233 -0.5998 2.1166
v -0.2148 -0.5998 2.0253
v -0.2485 -0.5998 1.9004
v -0.2152 -0.5998 1.7754
v -0.1239 -0.5998 1.6838
v 0.0009 -0.5998 1.6500
v 0.1259 -0.5998 1.6832
v 0.2177 -0.5998 1.7744
v 0.2326 -0.6954 1.9000
v 0.2017 -0.6954 2.0155
v 0.1172 -0.6954 2.1000
v 0.0017 -0.6954 2.1311
v -0.1138 -0.6954 2.1002
v -0.1984 -0.6954 2.0158
v -0.2296 -0.6954 1.9004
v -0.1988 -0.6954 1.7848
v -0.1144 -0.6954 1.7001
v 0.0010 -0.6954 1.6689
v 0.1165 -0.6954 1.6996
v 0.2013 -0.6954 1.7839
v 0.1785 -0.7766 1.9000
v 0.1548 -0.7766 1.9885
v 0.0901 -0.7766 2.0532
v 0.0017 -0.7766 2.0770
v -0.0868 -0.7766 2.0534
v -0.1516 -0.7766 1.9887
v -0.1755 -0.7766 1.9003
v -0.1519 -0.7766 1.8118
v -0.0873 -0.7766 1.7469
v 0.0011 -0.7766 1.7230
v 0.0896 -0.7766 1.7465
v 0.1545 -0.7766 1.8111
v 0.0975 -0.8308 1.9000
v 0.0847 -0.8308 1.9480
v 0.0496 -0.8308 1.9831
v 0.0016 -0.8308 1.9960
v -0.0464 -0.8308 1.9832
v -0.0816 -0.8308 1.9481
v -0.0945 -0.8308 1.9002
v -0.0817 -0.8308 1.8522
v -0.0467 -0.8308 1.8170
v 0.0013 -0.8308 1.8040
v 0.0493 -0.8308 1.8167
v 0.0845 -0.8308 1.8518
v 0.0019 -0.8500 1.9000
v 0.0019 -0.8500 1.9002
v 0.0017 -0.8500 1.9003
v 0.0015 -0.8500 1.9004
v 0.0013 -0.8500 1.9003
v 0.0012 -0.8500 1.9002
v 0.0011 -0.8500 1.9000
v 0.0012 -0.8500 1.8998
v 0.0013 -0.8500 1.8997
v 0.0015 -0.8500 1.8996
v 0.0017 -0.8500 1.8997
v 0.0019 -0.8500 1.8998
v -0.7254 -0.3500 1.7561
v -0.7254 -0.3500 1.7561
v -0.7254 -0.3500 1.7561
v -0.7254 -0.3500 1.7561
v -0.7254 -0.3500 1.7561
v -0.7254 -0.3500 1.7561
v -0.7254 -0.3500 1.7561
v -0.7254 -0.3500 1.7561
v -0.7254 -0.3500 1.7561
v -0.7254 -0.3500 1.7561
v -0.7254 -0.3500 1.7561
v -0.7254 -0.3500 1.7561
v -0.6297 -0.3690 1.7561
v -0.6425 -0.3690 1.8039
v -0.6775 -0.3690 1.8389
v -0.7253 -0.3690 1.8517
v -0.7731 -0.3690 1.8390
v -0.8081 -0.3690 1.8040
v -0.8210 -0.3690 1.7562
v -0.8083 -0.3690 1.7084
v -0.7733 -0.3690 1.6734
v -0.7256 -0.3690 1.6605
v -0.6778 -0.3690 1.6732
v -0.6427 -0.3690 1.7080
v -0.5486 -0.4232 1.7561
v -0.5723 -0.4232 1.8444
v -0.6369 -0.4232 1.9091
v -0.7252 -0.4232 1.9328
v -0.8135 -0.4232 1.9092
v -0.8783 -0.4232 1.8447
v -0.9021 -0.4232 1.7564
v -0.8785 -0.4232 1.6680
v -0.8140 -0.4232 1.6032
v -0.7258 -0.4232 1.5794
v -0.6374 -0.4232 1.6028
v -0.5726 -0.4232 1.6673
v -0.4944 -0.5042 1.7561
v -0.5253 -0.5042 1.8715
v -0.6098 -0.5042 1.9560
v -0.7252 -0.5042 1.9870
v -0.8406 -0.5042 1.9562
v -0.9252 -0.5042 1.8718
v -0.9563 -0.5042 1.7565
v -0.9255 -0.5042 1.6410
v -0.8412 -0.5042 1.5564
v -0.7259 -0.5042 1.5252
v -0.6104 -0.5042 1.5558
v -0.5257 -0.5042 1.6401
v -0.4754 -0.5998 1.7561
v -0.5088 -0.5998 1.8810
v -0.6002 -0.5998 1.9725
v -0.7252 -0.5998 2.0061
v -0.8501 -0.5998 1.9727
v -0.9417 -0.5998 1.8814
v -0.9754 -0.5998 1.7565
v -0.9421 -0.5998 1.6315
v -0.8508 -0.5998 1.5399
v -0.7259 -0.5998 1.5061
v -0.6009 -0.5998 1.5393
v -0.5092 -0.5998 1.6305
v -0.4943 -0.6954 1.7561
v -0.5252 -0.6954 1.8716
v -0.6097 -0.6954 1.9561
v -0.7252 -0.6954 1.9872
v -0.8407 -0.6954 1.9563
v -0.9253 -0.6954 1.8719
v -0.9564 -0.6954 1.7565
v -0.9257 -0.6954 1.6409
v -0.8413 -0.6954 1.5562
v -0.7259 -0.6954 1.5250
v -0.6103 -0.6954 1.5557
v -0.5256 -0.6954 1.6400
v -0.5484 -0.7766 1.7561
v -0.5721 -0.7766 1.8445
v -0.6368 -0.7766 1.9093
v -0.7252 -0.7766 1.9331
v -0.8137 -0.7766 1.9095
v -0.8785 -0.7766 1.8448
v -0.9023 -0.7766 1.7564
v -0.8788 -0.7766 1.6679
v -0.8142 -0.7766 1.6030
v -0.7258 -0.7766 1.5791
v -0.6373 -0.7766 1.6026
v -0.5723 -0.7766 1.6672
v -0.6294 -0.8308 1.7561
v -0.6422 -0.8308 1.8041
v -0.6773 -0.8308 1.8392
v -0.7253 -0.8308 1.8521
v -0.7733 -0.8308 1.8393
v -0.8084 -0.8308 1.8042
v -0.8213 -0.8308 1.7562
v -0.8086 -0.8308 1.7083
v -0.7735 -0.8308 1.6731
v -0.7256 -0.8308 1.6601
v -0.6776 -0.8308 1.6728
v -0.6424 -0.8308 1.7079
v -0.7250 -0.8500 1.7561
v -0.7250 -0.8500 1.7563
v -0.7252 -0.8500 1.7564
v -0.7254 -0.8500 1.7565
v -0.7255 -0.8500 1.7564
v -0.7257 -0.8500 1.7563
v -0.7257 -0.8500 1.7561
v -0.7257 -0.8500 1.7559
v -0.7256 -0.8500 1.7557
v -0.7254 -0.8500 1.7557
v -0.7252 -0.8500 1.7557
v -0.7250 -0.8500 1.7559
v -1.3419 -0.3500 1.3451
v -1.3419 -0.3500 1.3451
v -1.3419 -0.3500 1.3451
v -1.3419 -0.3500 1.3451
v -1.3419 -0.3500 1.3451
v -1.3419 -0.3500 1.3451
v -1.3419 -0.3500 1.3451
v -1.3419 -0.3500 1.3451
v -1.3419 -0.3500 1.3451
v -1.3419 -0.3500 1.3451
v -1.3419 -0.3500 1.3451
v -1.3419 -0.3500 1.3451
v -1.2463 -0.3690 1.3451
v -1.2591 -0.3690 1.3929
v -1.2940 -0.3690 1.4279
v -1.3418 -0.3690 1.4407
v -1.3896 -0.3690 1.4280
v -1.4246 -0.3690 1.3930
v -1.4375 -0.3690 1.3453
v -1.4248 -0.3690 1.2974
v -1.3899 -0.3690 1.2624
v -1.3421 -0.3690 1.2495
v -1.2943 -0.3690 1.2622
v -1.2592 -0.3690 1.2971
v -1.1652 -0.4232 1.3451
v -1.1888 -0.4232 1.4334
v -1.2535 -0.4232 1.4981
v -1.3418 -0.4232 1.5218
v -1.4301 -0.4232 1.4982
v -1.4948 -0.4232 1.4337
v -1.5186 -0.4232 1.3454
v -1.4951 -0.4232 1.2570
v -1.4306 -0.4232 1.1923
v -1.3423 -0.4232 1.1684
v -1.2540 -0.4232 1.1918
v -1.1891 -0.4232 1.2563
v -1.1110 -0.5042 1.3451
v -1.1419 -0.5042 1.4605
v -1.2263 -0.5042 1.5450
v -1.3417 -0.5042 1.5760
v -1.4571 -0.5042 1.5452
v -1.5417 -0.5042 1.4608
v -1.5728 -0.5042 1.3455
v -1.5421 -0.5042 1.2300
v -1.4578 -0.5042 1.1454
v -1.3424 -0.5042 1.1142
v -1.2270 -0.5042 1.1448
v -1.1423 -0.5042 1.2291
v -1.0919 -0.5998 1.3451
v -1.1254 -0.5998 1.4700
v -1.2168 -0.5998 1.5615
v -1.3417 -0.5998 1.5951
v -1.4667 -0.5998 1.5617
v -1.5582 -0.5998 1.4704
v -1.5919 -0.5998 1.3455
v -1.5586 -0.5998 1.2205
v -1.4674 -0.5998 1.1289
v -1.3425 -0.5998 1.0951
v -1.2175 -0.5998 1.1283
v -1.1258 -0.5998 1.2195
v -1.1108 -0.6954 1.3451
v -1.1418 -0.6954 1.4606
v -1.2263 -0.6954 1.5452
v -1.3417 -0.6954 1.5762
v -1.4572 -0.6954 1.5453
v -1.5419 -0.6954 1.4609
v -1.5730 -0.6954 1.3455
v -1.5422 -0.6954 1.2299
v -1.4579 -0.6954 1.1452
v -1.3424 -0.6954 1.1140
v -1.2269 -0.6954 1.1447
v -1.1421 -0.6954 1.2290
v -1.1649 -0.7766 1.3451
v -1.1886 -0.7766 1.4336
v -1.2533 -0.7766 1.4983
v -1.3418 -0.7766 1.5221
v -1.4302 -0.7766 1.4985
v -1.4951 -0.7766 1.4338
v -1.5189 -0.7766 1.3454
v -1.4953 -0.7766 1.2569
v -1.4307 -0.7766 1.1920
v -1.3423 -0.7766 1.1681
v -1.2538 -0.7766 1.1916
v -1.1889 -0.7766 1.2562
v -1.2459 -0.8308 1.3451
v -1.2588 -0.8308 1.3931
v -1.2939 -0.8308 1.4282
v -1.3418 -0.8308 1.4411
v -1.3898 -0.8308 1.4283
v -1.4250 -0.8308 1.3932
v -1.4379 -0.8308 1.3453
v -1.4251 -0.8308 1.2973
v -1.3901 -0.8308 1.2621
v -1.3421 -0.8308 1.2491
v -1.2941 -0.8308 1.2618
v -1.2589 -0.8308 1.2969
v -1.3415 -0.8500 1.3451
v -1.3416 -0.8500 1.3453
v -1.3417 -0.8500 1.3455
v -1.3419 -0.8500 1.3455
v -1.3421 -0.8500 1.3455
v -1.3422 -0.8500 1.3453
v -1.3423 -0.8500 1.3451
v -1.3422 -0.8500 1.3449
v -1.3421 -0.8500 1.3448
v -1.3419 -0.8500 1.3447
v -1.3417 -0.8500 1.3448
v -1.3416 -0.8500 1.3449
v -1.7544 -0.3500 0.7295
v -1.7544 -0.3500 0.7295
v -1.7544 -0.3500 0.7295
v -1.7544 -0.3500 0.7295
v -1.7544 -0.3500 0.7295
v -1.7544 -0.3500 0.7295
v -1.7544 -0.3500 0.7295
v -1.7544 -0.3500 0.7295
v -1.7544 -0.3500 0.7295
v -1.7544 -0.3500 0.7295
v -1.7544 -0.3500 0.7295
v -1.7544 -0.3500 0.7295
v -1.6587 -0.3690 0.7295
v -1.6715 -0.3690 0.7773
v -1.7065 -0.3690 0.8123
v -1.7543 -0.3690 0.8252
v -1.8021 -0.3690 0.8124
v -1.8371 -0.3690 0.7775
v -1.8500 -0.3690 0.7297
v -1.8373 -0.3690 0.6819
v -1.8023 -0.3690 0.6468
v -1.7546 -0.3690 0.6339
v -1.7068 -0.3690 0.6466
v -1.6717 -0.3690 0.6815
v -1.5776 -0.4232 0.7295
v -1.6013 -0.4232 0.8179
v -1.6659 -0.4232 0.8825
v -1.7542 -0.4232 0.9063
v -1.8425 -0.4232 0.8827
v -1.9073 -0.4232 0.8181
v -1.9311 -0.4232 0.7298
v -1.9076 -0.4232 0.6415
v -1.8430 -0.4232 0.5767
v -1.7548 -0.4232 0.5528
v -1.6664 -0.4232 0.5763
v -1.6016 -0.4232 0.6407
v -1.5234 -0.5042 0.7295
v -1.5543 -0.5042 0.8449
v -1.6388 -0.5042 0.9295
v -1.7542 -0.5042 0.9605
v -1.8696 -0.5042 0.9296
v -1.9542 -0.5042 0.8453
v -1.9853 -0.5042 0.7299
v -1.9545 -0.5042 0.6145
v -1.8702 -0.5042 0.5298
v -1.7549 -0.5042 0.4986
v -1.6394 -0.5042 0.5293
v -1.5547 -0.5042 0.6135
v -1.5044 -0.5998 0.7295
v -1.5378 -0.5998 0.8545
v -1.6292 -0.5998 0.9460
v -1.7542 -0.5998 0.9795
v -1.8791 -0.5998 0.9462
v -1.9707 -0.5998 0.8548
v -2.0044 -0.5998 0.7299
v -1.9711 -0.5998 0.6049
v -1.8798 -0.5998 0.5133
v -1.7550 -0.5998 0.4795
v -1.6299 -0.5998 0.5127
v -1.5382 -0.5998 0.6039
v -1.5233 -0.6954 0.7295
v -1.5542 -0.6954 0.8450
v -1.6387 -0.6954 0.9296
v -1.7542 -0.6954 0.9606
v -1.8697 -0.6954 0.9298
v -1.9543 -0.6954 0.8453
v -1.9854 -0.6954 0.7299
v -1.9547 -0.6954 0.6144
v -1.8703 -0.6954 0.5297
v -1.7549 -0.6954 0.4985
v -1.6394 -0.6954 0.5291
v -1.5546 -0.6954 0.6134
v -1.5774 -0.7766 0.7295
v -1.6011 -0.7766 0.8180
v -1.6658 -0.7766 0.8828
v -1.7542 -0.7766 0.9065
v -1.8427 -0.7766 0.8829
v -1.9075 -0.7766 0.8182
v -1.9313 -0.7766 0.7298
v -1.9078 -0.7766 0.6413
v -1.8432 -0.7766 0.5765
v -1.7548 -0.7766 0.5526
v -1.6663 -0.7766 0.5760
v -1.6013 -0.7766 0.6406
v -1.6584 -0.8308 0.7295
v -1.6712 -0.8308 0.7775
v -1.7063 -0.8308 0.8127
v -1.7543 -0.8308 0.8255
v -1.8023 -0.8308 0.8127
v -1.8374 -0.8308 0.7777
v -1.8503 -0.8308 0.7297
v -1.8376 -0.8308 0.6817
v -1.8025 -0.8308 0.6465
v -1.7546 -0.8308 0.6336
v -1.7066 -0.8308 0.6463
v -1.6714 -0.8308 0.6813
v -1.7540 -0.8500 0.7295
v -1.7540 -0.8500 0.7297
v -1.7542 -0.8500 0.7299
v -1.7544 -0.8500 0.7299
v -1.7546 -0.8500 0.7299
v -1.7547 -0.8500 0.7297
v -1.7548 -0.8500 0.7295
v -1.7547 -0.8500 0.7293
v -1.7546 -0.8500 0.7292
v -1.7544 -0.8500 0.7291
v -1.7542 -0.8500 0.7292
v -1.7540 -0.8500 0.7293
v -1.9000 -0.3500 0.0030
v -1.9000 -0.3500 0.0030
v -1.9000 -0.3500 0.0030
v -1.9000 -0.3500 0.0030
v -1.9000 -0.3500 0.0030
v -1.9000 -0.3500 0.0030
v -1.9000 -0.3500 0.0030
v -1.9000 -0.3500 0.0030
v -1.9000 -0.3500 0.0030
v -1.9000 -0.3500 0.0030
v -1.9000 -0.3500 0.0030
v -1.9000 -0.3500 0.0030
v -1.8044 -0.3690 0.0030
v -1.8172 -0.3690 0.0508
v -1.8521 -0.3690 0.0858
v -1.8999 -0.3690 0.0987
v -1.9477 -0.3690 0.0859
v -1.9827 -0.3690 0.0509
v -1.9956 -0.3690 0.0032
v -1.9829 -0.3690 -0.0446
v -1.9480 -0.3690 -0.0797
v -1.9002 -0.3690 -0.0926
v -1.8524 -0.3690 -0.0799
v -1.8173 -0.3690 -0.0450
v -1.7233 -0.4232 0.0030
v -1.7469 -0.4232 0.0913
v -1.8116 -0.4232 0.1560
v -1.8999 -0.4232 0.1797
v -1.9882 -0.4232 0.1562
v -2.0529 -0.4232 0.0916
v -2.0767 -0.4232 0.0033
v -2.0532 -0.4232 -0.0850
v -1.9887 -0.4232 -0.1498
v -1.9004 -0.4232 -0.1737
v -1.8121 -0.4232 -0.1502
v -1.7472 -0.4232 -0.0858
v -1.6691 -0.5042 0.0030
v -1.7000 -0.5042 0.1184
v -1.7844 -0.5042 0.2029
v -1.8998 -0.5042 0.2339
v -2.0152 -0.5042 0.2031
v -2.0998 -0.5042 0.1187
v -2.1309 -0.5042 0.0034
v -2.1002 -0.5042 -0.1121
v -2.0159 -0.5042 -0.1967
v -1.9005 -0.5042 -0.2279
v -1.7851 -0.5042 -0.1973
v -1.7004 -0.5042 -0.1130
v -1.6500 -0.5998 0.0030
v -1.6835 -0.5998 0.1280
v -1.7749 -0.5998 0.2195
v -1.8998 -0.5998 0.2530
v -2.0248 -0.5998 0.2197
v -2.1163 -0.5998 0.1283
v -2.1500 -0.5998 0.0034
v -2.1167 -0.5998 -0.1216
v -2.0255 -0.5998 -0.2132
v -1.9006 -0.5998 -0.2470
v -1.7756 -0.5998 -0.2138
v -1.6839 -0.5998 -0.1226
v -1.6689 -0.6954 0.0030
v -1.6999 -0.6954 0.1185
v -1.7844 -0.6954 0.2031
v -1.8998 -0.6954 0.2341
v -2.0153 -0.6954 0.2033
v -2.1000 -0.6954 0.1188
v -2.1311 -0.6954 0.0034
v -2.1003 -0.6954 -0.1121
v -2.0160 -0.6954 -0.1968
v -1.9005 -0.6954 -0.2280
v -1.7850 -0.6954 -0.1974
v -1.7002 -0.6954 -0.1131
v -1.7230 -0.7766 0.0030
v -1.7467 -0.7766 0.0915
v -1.8114 -0.7766 0.1563
v -1.8999 -0.7766 0.1800
v -1.9883 -0.7766 0.1564
v -2.0532 -0.7766 0.0917
v -2.0770 -0.7766 0.0033
v -2.0534 -0.7766 -0.0852
v -1.9888 -0.7766 -0.1501
v -1.9004 -0.7766 -0.1740
v -1.8119 -0.7766 -0.1505
v -1.7470 -0.7766 -0.0859
v -1.8040 -0.8308 0.0030
v -1.8169 -0.8308 0.0510
v -1.8520 -0.8308 0.0861
v -1.8999 -0.8308 0.0990
v -1.9479 -0.8308 0.0862
v -1.9831 -0.8308 0.0511
v -1.9960 -0.8308 0.0032
v -1.9832 -0.8308 -0.0448
v -1.9482 -0.8308 -0.0800
v -1.9002 -0.8308 -0.0930
v -1.8522 -0.8308 -0.0802
v -1.8170 -0.8308 -0.0452
v -1.8996 -0.8500 0.0030
v -1.8997 -0.8500 0.0032
v -1.8998 -0.8500 0.0034
v -1.9000 -0.8500 0.0034
v -1.9002 -0.8500 0.0034
v -1.9003 -0.8500 0.0032
v -1.9004 -0.8500 0.0030
v -1.9003 -0.8500 0.0028
v -1.9002 -0.8500 0.0027
v -1.9000 -0.8500 0.0026
v -1.8998 -0.8500 0.0027
v -1.8997 -0.8500 0.0028
v -1.7567 -0.3500 -0.7240
v -1.7567 -0.3500 -0.7240
v -1.7567 -0.3500 -0.7240
v -1.7567 -0.3500 -0.7240
v -1.7567 -0.3500 -0.7240
v -1.7567 -0.3500 -0.7240
v -1.7567 -0.3500 -0.7240
v -1.7567 -0.3500 -0.7240
v -1.7567 -0.3500 -0.7240
v -1.7567 -0.3500 -0.7240
v -1.7567 -0.3500 -0.7240
v -1.7567 -0.3500 -0.7240
v -1.6610 -0.3690 -0.7240
v -1.6738 -0.3690 -0.6762
v -1.7088 -0.3690 -0.6412
v -1.7566 -0.3690 -0.6283
v -1.8044 -0.3690 -0.6411
v -1.8394 -0.3690 -0.6760
v -1.8523 -0.3690 -0.7238
v -1.8396 -0.3690 -0.7716
v -1.8047 -0.3690 -0.8067
v -1.7569 -0.3690 -0.8196
v -1.7091 -0.3690 -0.8069
v -1.6740 -0.3690 -0.7720
v -1.5800 -0.4232 -0.7240
v -1.6036 -0.4232 -0.6356
v -1.6682 -0.4232 -0.5710
v -1.7565 -0.4232 -0.5472
v -1.8449 -0.4232 -0.5708
v -1.9096 -0.4232 -0.6354
v -1.9334 -0.4232 -0.7237
v -1.9099 -0.4232 -0.8120
v -1.8453 -0.4232 -0.8768
v -1.7571 -0.4232 -0.9007
v -1.6687 -0.4232 -0.8772
v -1.6039 -0.4232 -0.8128
v -1.5258 -0.5042 -0.7240
v -1.5567 -0.5042 -0.6085
v -1.6411 -0.5042 -0.5240
v -1.7565 -0.5042 -0.4930
v -1.8719 -0.5042 -0.5239
v -1.9565 -0.5042 -0.6082
v -1.9876 -0.5042 -0.7236
v -1.9569 -0.5042 -0.8390
v -1.8726 -0.5042 -0.9237
v -1.7572 -0.5042 -0.9549
v -1.6417 -0.5042 -0.9242
v -1.5570 -0.5042 -0.8400
v -1.5067 -0.5998 -0.7240
v -1.5401 -0.5998 -0.5990
v -1.6316 -0.5998 -0.5075
v -1.7565 -0.5998 -0.4740
v -1.8814 -0.5998 -0.5073
v -1.9730 -0.5998 -0.5987
v -2.0067 -0.5998 -0.7236
v -1.9734 -0.5998 -0.8485
v -1.8821 -0.5998 -0.9402
v -1.7573 -0.5998 -0.9740
v -1.6322 -0.5998 -0.9408
v -1.5405 -0.5998 -0.8496
v -1.5256 -0.6954 -0.7240
v -1.5565 -0.6954 -0.6085
v -1.6410 -0.6954 -0.5239
v -1.7565 -0.6954 -0.4929
v -1.8720 -0.6954 -0.5237
v -1.9566 -0.6954 -0.6082
v -1.9877 -0.6954 -0.7236
v -1.9570 -0.6954 -0.8391
v -1.8726 -0.6954 -0.9238
v -1.7572 -0.6954 -0.9550
v -1.6417 -0.6954 -0.9244
v -1.5569 -0.6954 -0.8401
v -1.5797 -0.7766 -0.7240
v -1.6034 -0.7766 -0.6355
v -1.6681 -0.7766 -0.5707
v -1.7565 -0.7766 -0.5470
v -1.8450 -0.7766 -0.5706
v -1.9098 -0.7766 -0.6353
v -1.9337 -0.7766 -0.7237
v -1.9101 -0.7766 -0.8122
v -1.8455 -0.7766 -0.8770
v -1.7571 -0.7766 -0.9009
v -1.6686 -0.7766 -0.8775
v -1.6037 -0.7766 -0.8129
v -1.6607 -0.8308 -0.7240
v -1.6735 -0.8308 -0.6760
v -1.7086 -0.8308 -0.6408
v -1.7566 -0.8308 -0.6280
v -1.8046 -0.8308 -0.6408
v -1.8397 -0.8308 -0.6758
v -1.8527 -0.8308 -0.7238
v -1.8399 -0.8308 -0.7718
v -1.8048 -0.8308 -0.8070
v -1.7569 -0.8308 -0.8199
v -1.7089 -0.8308 -0.8072
v -1.6737 -0.8308 -0.7722
v -1.7563 -0.8500 -0.7240
v -1.7563 -0.8500 -0.7238
v -1.7565 -0.8500 -0.7236
v -1.7567 -0.8500 -0.7236
v -1.7569 -0.8500 -0.7236
v -1.7570 -0.8500 -0.7238
v -1.7571 -0.8500 -0.7240
v -1.7570 -0.8500 -0.7242
v -1.7569 -0.8500 -0.7243
v -1.7567 -0.8500 -0.7244
v -1.7565 -0.8500 -0.7243
v -1.7563 -0.8500 -0.7242
v -1.3462 -0.3500 -1.3408
v -1.3462 -0.3500 -1.3408
v -1.3462 -0.3500 -1.3408
v -1.3462 -0.3500 -1.3408
v -1.3462 -0.3500 -1.3408
v -1.3462 -0.3500 -1.3408
v -1.3462 -0.3500 -1.3408
v -1.3462 -0.3500 -1.3408
v -1.3462 -0.3500 -1.3408
v -1.3462 -0.3500 -1.3408
v -1.3462 -0.3500 -1.3408
v -1.3462 -0.3500 -1.3408
v -1.2506 -0.3690 -1.3408
v -1.2633 -0.3690 -1.2930
v -1.2983 -0.3690 -1.2580
v -1.3461 -0.3690 -1.2452
v -1.3939 -0.3690 -1.2580
v -1.4289 -0.3690 -1.2929
v -1.4418 -0.3690 -1.3407
v -1.4291 -0.3690 -1.3885
v -1.3942 -0.3690 -1.4235
v -1.3464 -0.3690 -1.4365
v -1.2986 -0.3690 -1.4238
v -1.2635 -0.3690 -1.3889
v -1.1695 -0.4232 -1.3408
v -1.1931 -0.4232 -1.2525
v -1.2577 -0.4232 -1.1878
v -1.3460 -0.4232 -1.1641
v -1.4344 -0.4232 -1.1877
v -1.4991 -0.4232 -1.2523
v -1.5229 -0.4232 -1.3405
v -1.4994 -0.4232 -1.4289
v -1.4349 -0.4232 -1.4937
v -1.3466 -0.4232 -1.5175
v -1.2582 -0.4232 -1.4941
v -1.1934 -0.4232 -1.4296
v -1.1153 -0.5042 -1.3408
v -1.1462 -0.5042 -1.2254
v -1.2306 -0.5042 -1.1409
v -1.3460 -0.5042 -1.1099
v -1.4614 -0.5042 -1.1407
v -1.5460 -0.5042 -1.2251
v -1.5771 -0.5042 -1.3405
v -1.5464 -0.5042 -1.4559
v -1.4621 -0.5042 -1.5406
v -1.3467 -0.5042 -1.5717
v -1.2312 -0.5042 -1.5411
v -1.1465 -0.5042 -1.4569
v -1.0962 -0.5998 -1.3408
v -1.1296 -0.5998 -1.2159
v -1.2211 -0.5998 -1.1244
v -1.3460 -0.5998 -1.0908
v -1.4709 -0.5998 -1.1242
v -1.5625 -0.5998 -1.2155
v -1.5962 -0.5998 -1.3404
v -1.5629 -0.5998 -1.4654
v -1.4716 -0.5998 -1.5571
v -1.3468 -0.5998 -1.5908
v -1.2218 -0.5998 -1.5577
v -1.1300 -0.5998 -1.4665
v -1.1151 -0.6954 -1.3408
v -1.1460 -0.6954 -1.2253
v -1.2305 -0.6954 -1.1408
v -1.3460 -0.6954 -1.1098
v -1.4615 -0.6954 -1.1406
v -1.5461 -0.6954 -1.2250
v -1.5772 -0.6954 -1.3405
v -1.5465 -0.6954 -1.4560
v -1.4621 -0.6954 -1.5407
v -1.3467 -0.6954 -1.5719
v -1.2312 -0.6954 -1.5412
v -1.1464 -0.6954 -1.4569
v -1.1692 -0.7766 -1.3408
v -1.1929 -0.7766 -1.2524
v -1.2576 -0.7766 -1.1876
v -1.3460 -0.7766 -1.1638
v -1.4345 -0.7766 -1.1875
v -1.4993 -0.7766 -1.2521
v -1.5232 -0.7766 -1.3405
v -1.4996 -0.7766 -1.4290
v -1.4350 -0.7766 -1.4939
v -1.3466 -0.7766 -1.5178
v -1.2581 -0.7766 -1.4943
v -1.1932 -0.7766 -1.4298
v -1.2502 -0.8308 -1.3408
v -1.2630 -0.8308 -1.2929
v -1.2981 -0.8308 -1.2577
v -1.3461 -0.8308 -1.2448
v -1.3941 -0.8308 -1.2576
v -1.4292 -0.8308 -1.2927
v -1.4422 -0.8308 -1.3407
v -1.4294 -0.8308 -1.3887
v -1.3943 -0.8308 -1.4239
v -1.3464 -0.8308 -1.4368
v -1.2984 -0.8308 -1.4241
v -1.2632 -0.8308 -1.3891
v -1.3458 -0.8500 -1.3408
v -1.3458 -0.8500 -1.3406
v -1.3460 -0.8500 -1.3405
v -1.3462 -0.8500 -1.3404
v -1.3464 -0.8500 -1.3405
v -1.3465 -0.8500 -1.3406
v -1.3466 -0.8500 -1.3408
v -1.3465 -0.8500 -1.3410
v -1.3464 -0.8500 -1.3412
v -1.3462 -0.8500 -1.3412
v -1.3460 -0.8500 -1.3412
v -1.3458 -0.8500 -1.3410
v -0.7309 -0.3500 -1.7538
v -0.7309 -0.3500 -1.7538
v -0.7309 -0.3500 -1.7538
v -0.7309 -0.3500 -1.7538
v -0.7309 -0.3500 -1.7538
v -0.7309 -0.3500 -1.7538
v -0.7309 -0.3500 -1.7538
v -0.7309 -0.3500 -1.7538
v -0.7309 -0.3500 -1.7538
v -0.7309 -0.3500 -1.7538
v -0.7309 -0.3500 -1.7538
v -0.7309 -0.3500 -1.7538
v -0.6353 -0.3690 -1.7538
v -0.6481 -0.3690 -1.7060
v -0.6831 -0.3690 -1.6710
v -0.7309 -0.3690 -1.6581
v -0.7787 -0.3690 -1.6709
v -0.8137 -0.3690 -1.7059
v -0.8266 -0.3690 -1.7536
v -0.8138 -0.3690 -1.8014
v -0.7789 -0.3690 -1.8365
v -0.7312 -0.3690 -1.8494
v -0.6833 -0.3690 -1.8367
v -0.6483 -0.3690 -1.8018
v -0.5542 -0.4232 -1.7538
v -0.5779 -0.4232 -1.6655
v -0.6425 -0.4232 -1.6008
v -0.7308 -0.4232 -1.5771
v -0.8191 -0.4232 -1.6006
v -0.8839 -0.4232 -1.6652
v -0.9076 -0.4232 -1.7535
v -0.8841 -0.4232 -1.8418
v -0.8196 -0.4232 -1.9066
v -0.7314 -0.4232 -1.9305
v -0.6430 -0.4232 -1.9070
v -0.5782 -0.4232 -1.8426
v -0.5000 -0.5042 -1.7538
v -0.5309 -0.5042 -1.6384
v -0.6154 -0.5042 -1.5539
v -0.7308 -0.5042 -1.5229
v -0.8462 -0.5042 -1.5537
v -0.9308 -0.5042 -1.6381
v -0.9619 -0.5042 -1.7534
v -0.9311 -0.5042 -1.8689
v -0.8468 -0.5042 -1.9535
v -0.7315 -0.5042 -1.9847
v -0.6160 -0.5042 -1.9541
v -0.5313 -0.5042 -1.8698
v -0.4809 -0.5998 -1.7538
v -0.5144 -0.5998 -1.6288
v -0.6058 -0.5998 -1.5373
v -0.7307 -0.5998 -1.5038
v -0.8557 -0.5998 -1.5371
v -0.9473 -0.5998 -1.6285
v -0.9809 -0.5998 -1.7534
v -0.9477 -0.5998 -1.8784
v -0.8564 -0.5998 -1.9700
v -0.7315 -0.5998 -2.0038
v -0.6065 -0.5998 -1.9706
v -0.5148 -0.5998 -1.8794
v -0.4999 -0.6954 -1.7538
v -0.5308 -0.6954 -1.6383
v -0.6153 -0.6954 -1.5537
v -0.7308 -0.6954 -1.5227
v -0.8463 -0.6954 -1.5535
v -0.9309 -0.6954 -1.6380
v -0.9620 -0.6954 -1.7534
v -0.9313 -0.6954 -1.8689
v -0.8469 -0.6954 -1.9536
v -0.7315 -0.6954 -1.9848
v -0.6159 -0.6954 -1.9542
v -0.5312 -0.6954 -1.8699
v -0.5540 -0.7766 -1.7538
v -0.5776 -0.7766 -1.6653
v -0.6424 -0.7766 -1.6005
v -0.7308 -0.7766 -1.5768
v -0.8193 -0.7766 -1.6004
v -0.8841 -0.7766 -1.6651
v -0.9079 -0.7766 -1.7535
v -0.8844 -0.7766 -1.8420
v -0.8198 -0.7766 -1.9069
v -0.7314 -0.7766 -1.9308
v -0.6429 -0.7766 -1.9073
v -0.5779 -0.7766 -1.8427
v -0.6349 -0.8308 -1.7538
v -0.6478 -0.8308 -1.7058
v -0.6829 -0.8308 -1.6707
v -0.7309 -0.8308 -1.6578
v -0.7788 -0.8308 -1.6706
v -0.8140 -0.8308 -1.7057
v -0.8269 -0.8308 -1.7536
v -0.8142 -0.8308 -1.8016
v -0.7791 -0.8308 -1.8368
v -0.7312 -0.8308 -1.8498
v -0.6832 -0.8308 -1.8370
v -0.6479 -0.8308 -1.8020
v -0.7305 -0.8500 -1.7538
v -0.7306 -0.8500 -1.7536
v -0.7307 -0.8500 -1.7534
v -0.7309 -0.8500 -1.7534
v -0.7311 -0.8500 -1.7534
v -0.7313 -0.8500 -1.7536
v -0.7313 -0.8500 -1.7538
v -0.7313 -0.8500 -1.7540
v -0.7311 -0.8500 -1.7541
v -0.7309 -0.8500 -1.7542
v -0.7307 -0.8500 -1.7541
v -0.7306 -0.8500 -1.7540
v -0.0045 -0.3500 -1.9000
v -0.0045 -0.3500 -1.9000
v -0.0045 -0.3500 -1.9000
v -0.0045 -0.3500 -1.9000
v -0.0045 -0.3500 -1.9000
v -0.0045 -0.3500 -1.9000
v -0.0045 -0.3500 -1.9000
v -0.0045 -0.3500 -1.9000
v -0.0045 -0.3500 -1.9000
v -0.0045 -0.3500 -1.9000
v -0.0045 -0.3500 -1.9000
v -0.0045 -0.3500 -1.9000
v 0.0911 -0.3690 -1.9000
v 0.0783 -0.3690 -1.8522
v 0.0433 -0.3690 -1.8172
v -0.0045 -0.3690 -1.8044
v -0.0523 -0.3690 -1.8171
v -0.0873 -0.3690 -1.8521
v -0.1002 -0.3690 -1.8998
v -0.0874 -0.3690 -1.9477
v -0.0525 -0.3690 -1.9827
v -0.0048 -0.3690 -1.9956
v 0.0431 -0.3690 -1.9829
v 0.0781 -0.3690 -1.9480
v 0.1722 -0.4232 -1.9000
v 0.1485 -0.4232 -1.8117
v 0.0839 -0.4232 -1.7470
v -0.0044 -0.4232 -1.7233
v -0.0927 -0.4232 -1.7469
v -0.1575 -0.4232 -1.8114
v -0.1812 -0.4232 -1.8997
v -0.1577 -0.4232 -1.9881
v -0.0932 -0.4232 -2.0528
v -0.0050 -0.4232 -2.0767
v 0.0834 -0.4232 -2.0533
v 0.1482 -0.4232 -1.9888
v 0.2264 -0.5042 -1.9000
v 0.1955 -0.5042 -1.7846
v 0.1110 -0.5042 -1.7001
v -0.0044 -0.5042 -1.6691
v -0.1198 -0.5042 -1.6999
v -0.2044 -0.5042 -1.7843
v -0.2355 -0.5042 -1.8996
v -0.2047 -0.5042 -2.0151
v -0.1204 -0.5042 -2.0997
v -0.0051 -0.5042 -2.1309
v 0.1104 -0.5042 -2.1003
v 0.1951 -0.5042 -2.0160
v 0.2455 -0.5998 -1.9000
v 0.2120 -0.5998 -1.7751
v 0.1206 -0.5998 -1.6836
v -0.0043 -0.5998 -1.6500
v -0.1293 -0.5998 -1.6834
v -0.2209 -0.5998 -1.7747
v -0.2545 -0.5998 -1.8996
v -0.2213 -0.5998 -2.0246
v -0.1300 -0.5998 -2.1162
v -0.0051 -0.5998 -2.1500
v 0.1199 -0.5998 -2.1168
v 0.2116 -0.5998 -2.0256
v 0.2265 -0.6954 -1.9000
v 0.1956 -0.6954 -1.7845
v 0.1111 -0.6954 -1.6999
v -0.0044 -0.6954 -1.6689
v -0.1199 -0.6954 -1.6998
v -0.2045 -0.6954 -1.7842
v -0.2356 -0.6954 -1.8996
v -0.2049 -0.6954 -2.0152
v -0.1205 -0.6954 -2.0999
v -0.0051 -0.6954 -2.1311
v 0.1105 -0.6954 -2.1004
v 0.1952 -0.6954 -2.0161
v 0.1724 -0.7766 -1.9000
v 0.1488 -0.7766 -1.8115
v 0.0840 -0.7766 -1.7468
v -0.0044 -0.7766 -1.7230
v -0.0929 -0.7766 -1.7466
v -0.1577 -0.7766 -1.8113
v -0.1815 -0.7766 -1.8997
v -0.1580 -0.7766 -1.9882
v -0.0934 -0.7766 -2.0531
v -0.0050 -0.7766 -2.0770
v 0.0835 -0.7766 -2.0535
v 0.1485 -0.7766 -1.9889
v 0.0915 -0.8308 -1.9000
v 0.0786 -0.8308 -1.8520
v 0.0435 -0.8308 -1.8169
v -0.0045 -0.8308 -1.8040
v -0.0524 -0.8308 -1.8168
v -0.0876 -0.8308 -1.8519
v -0.1005 -0.8308 -1.8998
v -0.0878 -0.8308 -1.9478
v -0.0527 -0.8308 -1.9830
v -0.0048 -0.8308 -1.9960
v 0.0432 -0.8308 -1.9833
v 0.0785 -0.8308 -1.9482
v -0.0041 -0.8500 -1.9000
v -0.0042 -0.8500 -1.8998
v -0.0043 -0.8500 -1.8996
v -0.0045 -0.8500 -1.8996
v -0.0047 -0.8500 -1.8996
v -0.0049 -0.8500 -1.8998
v -0.0049 -0.8500 -1.9000
v -0.0049 -0.8500 -1.9002
v -0.0047 -0.8500 -1.9003
v -0.0045 -0.8500 -1.9004
v -0.0043 -0.8500 -1.9003
v -0.0042 -0.8500 -1.9002
v 0.7226 -0.3500 -1.7572
v 0.7226 -0.3500 -1.7572
v 0.7226 -0.3500 -1.7572
v 0.7226 -0.3500 -1.7572
v 0.7226 -0.3500 -1.7572
v 0.7226 -0.3500 -1.7572
v 0.7226 -0.3500 -1.7572
v 0.7226 -0.3500 -1.7572
v 0.7226 -0.3500 -1.7572
v 0.7226 -0.3500 -1.7572
v 0.7226 -0.3500 -1.7572
v 0.7226 -0.3500 -1.7572
v 0.8182 -0.3690 -1.7572
v 0.8054 -0.3690 -1.7095
v 0.7704 -0.3690 -1.6745
v 0.7226 -0.3690 -1.6616
v 0.6748 -0.3690 -1.6744
v 0.6398 -0.3690 -1.7093
v 0.6269 -0.3690 -1.7571
v 0.6397 -0.3690 -1.8049
v 0.6746 -0.3690 -1.8400
v 0.7223 -0.3690 -1.8529
v 0.7701 -0.3690 -1.8402
v 0.8052 -0.3690 -1.8053
v 0.8993 -0.4232 -1.7572
v 0.8756 -0.4232 -1.6689
v 0.8110 -0.4232 -1.6043
v 0.7227 -0.4232 -1.5805
v 0.6344 -0.4232 -1.6041
v 0.5696 -0.4232 -1.6687
v 0.5458 -0.4232 -1.7570
v 0.5694 -0.4232 -1.8453
v 0.6339 -0.4232 -1.9101
v 0.7221 -0.4232 -1.9340
v 0.8105 -0.4232 -1.9105
v 0.8753 -0.4232 -1.8460
v 0.9535 -0.5042 -1.7572
v 0.9226 -0.5042 -1.6418
v 0.8381 -0.5042 -1.5573
v 0.7227 -0.5042 -1.5263
v 0.6073 -0.5042 -1.5571
v 0.5227 -0.5042 -1.6415
v 0.4916 -0.5042 -1.7569
v 0.5224 -0.5042 -1.8723
v 0.6067 -0.5042 -1.9570
v 0.7220 -0.5042 -1.9882
v 0.8375 -0.5042 -1.9575
v 0.9222 -0.5042 -1.8733
v 0.9726 -0.5998 -1.7572
v 0.9391 -0.5998 -1.6323
v 0.8477 -0.5998 -1.5408
v 0.7228 -0.5998 -1.5072
v 0.5978 -0.5998 -1.5406
v 0.5062 -0.5998 -1.6320
v 0.4726 -0.5998 -1.7568
v 0.5058 -0.5998 -1.8818
v 0.5971 -0.5998 -1.9735
v 0.7220 -0.5998 -2.0072
v 0.8470 -0.5998 -1.9741
v 0.9387 -0.5998 -1.8829
v 0.9536 -0.6954 -1.7572
v 0.9227 -0.6954 -1.6418
v 0.8382 -0.6954 -1.5572
v 0.7227 -0.6954 -1.5262
v 0.6072 -0.6954 -1.5570
v 0.5226 -0.6954 -1.6414
v 0.4915 -0.6954 -1.7569
v 0.5222 -0.6954 -1.8724
v 0.6066 -0.6954 -1.9571
v 0.7220 -0.6954 -1.9883
v 0.8376 -0.6954 -1.9577
v 0.9223 -0.6954 -1.8734
v 0.8995 -0.7766 -1.7572
v 0.8759 -0.7766 -1.6688
v 0.8111 -0.7766 -1.6040
v 0.7227 -0.7766 -1.5803
v 0.6342 -0.7766 -1.6039
v 0.5694 -0.7766 -1.6685
v 0.5456 -0.7766 -1.7570
v 0.5691 -0.7766 -1.8455
v 0.6337 -0.7766 -1.9103
v 0.7221 -0.7766 -1.9342
v 0.8106 -0.7766 -1.9108
v 0.8756 -0.7766 -1.8462
v 0.8185 -0.8308 -1.7572
v 0.8057 -0.8308 -1.7093
v 0.7706 -0.8308 -1.6741
v 0.7226 -0.8308 -1.6613
v 0.6746 -0.8308 -1.6741
v 0.6395 -0.8308 -1.7091
v 0.6266 -0.8308 -1.7571
v 0.6393 -0.8308 -1.8051
v 0.6744 -0.8308 -1.8403
v 0.7223 -0.8308 -1.8532
v 0.7703 -0.8308 -1.8405
v 0.8055 -0.8308 -1.8055
v 0.7230 -0.8500 -1.7572
v 0.7229 -0.8500 -1.7570
v 0.7228 -0.8500 -1.7569
v 0.7226 -0.8500 -1.7568
v 0.7224 -0.8500 -1.7569
v 0.7222 -0.8500 -1.7570
v 0.7222 -0.8500 -1.7572
v 0.7222 -0.8500 -1.7574
v 0.7224 -0.8500 -1.7576
v 0.7226 -0.8500 -1.7576
v 0.7228 -0.8500 -1.7576
v 0.7229 -0.8500 -1.7574
v 1.3398 -0.3500 -1.3472
v 1.3398 -0.3500 -1.3472
v 1.3398 -0.3500 -1.3472
v 1.3398 -0.3500 -1.3472
v 1.3398 -0.3500 -1.3472
v 1.3398 -0.3500 -1.3472
v 1.3398 -0.3500 -1.3472
v 1.3398 -0.3500 -1.3472
v 1.3398 -0.3500 -1.3472
v 1.3398 -0.3500 -1.3472
v 1.3398 -0.3500 -1.3472
v 1.3398 -0.3500 -1.3472
v 1.4354 -0.3690 -1.3472
v 1.4226 -0.3690 -1.2995
v 1.3876 -0.3690 -1.2645
v 1.3398 -0.3690 -1.2516
v 1.2920 -0.3690 -1.2644
v 1.2570 -0.3690 -1.2993
v 1.2441 -0.3690 -1.3471
v 1.2569 -0.3690 -1.3949
v 1.2918 -0.3690 -1.4300
v 1.3395 -0.3690 -1.4429
v 1.3873 -0.3690 -1.4302
v 1.4224 -0.3690 -1.3953
v 1.5165 -0.4232 -1.3472
v 1.4928 -0.4232 -1.2589
v 1.4282 -0.4232 -1.1943
v 1.3399 -0.4232 -1.1705
v 1.2516 -0.4232 -1.1941
v 1.1868 -0.4232 -1.2587
v 1.1630 -0.4232 -1.3470
v 1.1866 -0.4232 -1.4353
v 1.2511 -0.4232 -1.5001
v 1.3393 -0.4232 -1.5239
v 1.4277 -0.4232 -1.5005
v 1.4925 -0.4232 -1.4360
v 1.5707 -0.5042 -1.3472
v 1.5398 -0.5042 -1.2318
v 1.4553 -0.5042 -1.1473
v 1.3399 -0.5042 -1.1163
v 1.2245 -0.5042 -1.1471
v 1.1399 -0.5042 -1.2315
v 1.1088 -0.5042 -1.3469
v 1.1396 -0.5042 -1.4623
v 1.2239 -0.5042 -1.5470
v 1.3392 -0.5042 -1.5782
v 1.4547 -0.5042 -1.5475
v 1.5394 -0.5042 -1.4633
v 1.5898 -0.5998 -1.3472
v 1.5563 -0.5998 -1.2223
v 1.4649 -0.5998 -1.1308
v 1.3400 -0.5998 -1.0972
v 1.2150 -0.5998 -1.1306
v 1.1234 -0.5998 -1.2220
v 1.0898 -0.5998 -1.3468
v 1.1230 -0.5998 -1.4718
v 1.2143 -0.5998 -1.5635
v 1.3392 -0.5998 -1.5972
v 1.4642 -0.5998 -1.5641
v 1.5559 -0.5998 -1.4729
v 1.5708 -0.6954 -1.3472
v 1.5399 -0.6954 -1.2318
v 1.4554 -0.6954 -1.1472
v 1.3399 -0.6954 -1.1162
v 1.2244 -0.6954 -1.1470
v 1.1398 -0.6954 -1.2314
v 1.1087 -0.6954 -1.3469
v 1.1394 -0.6954 -1.4624
v 1.2238 -0.6954 -1.5471
v 1.3392 -0.6954 -1.5783
v 1.4548 -0.6954 -1.5477
v 1.5395 -0.6954 -1.4634
v 1.5167 -0.7766 -1.3472
v 1.4931 -0.7766 -1.2588
v 1.4283 -0.7766 -1.1940
v 1.3399 -0.7766 -1.1703
v 1.2514 -0.7766 -1.1939
v 1.1866 -0.7766 -1.2585
v 1.1628 -0.7766 -1.3470
v 1.1863 -0.7766 -1.4355
v 1.2509 -0.7766 -1.5003
v 1.3393 -0.7766 -1.5242
v 1.4278 -0.7766 -1.5008
v 1.4928 -0.7766 -1.4362
v 1.4357 -0.8308 -1.3472
v 1.4229 -0.8308 -1.2993
v 1.3878 -0.8308 -1.2641
v 1.3398 -0.8308 -1.2512
v 1.2918 -0.8308 -1.2641
v 1.2567 -0.8308 -1.2991
v 1.2438 -0.8308 -1.3471
v 1.2565 -0.8308 -1.3951
v 1.2916 -0.8308 -1.4303
v 1.3395 -0.8308 -1.4432
v 1.3875 -0.8308 -1.4305
v 1.4227 -0.8308 -1.3955
v 1.3402 -0.8500 -1.3472
v 1.3401 -0.8500 -1.3470
v 1.3400 -0.8500 -1.3469
v 1.3398 -0.8500 -1.3468
v 1.3396 -0.8500 -1.3469
v 1.3394 -0.8500 -1.3470
v 1.3394 -0.8500 -1.3472
v 1.3394 -0.8500 -1.3474
v 1.3396 -0.8500 -1.3476
v 1.3398 -0.8500 -1.3476
v 1.3400 -0.8500 -1.3476
v 1.3401 -0.8500 -1.3474
v 1.7532 -0.3500 -0.7323
v 1.7532 -0.3500 -0.7323
v 1.7532 -0.3500 -0.7323
v 1.7532 -0.3500 -0.7323
v 1.7532 -0.3500 -0.7323
v 1.7532 -0.3500 -0.7323
v 1.7532 -0.3500 -0.7323
v 1.7532 -0.3500 -0.7323
v 1.7532 -0.3500 -0.7323
v 1.7532 -0.3500 -0.7323
v 1.7532 -0.3500 -0.7323
v 1.7532 -0.3500 -0.7323
v 1.8488 -0.3690 -0.7323
v 1.8360 -0.3690 -0.6845
v 1.8010 -0.3690 -0.6495
v 1.7533 -0.3690 -0.6367
v 1.7055 -0.3690 -0.6495
v 1.6704 -0.3690 -0.6844
v 1.6576 -0.3690 -0.7322
v 1.6703 -0.3690 -0.7800
v 1.7052 -0.3690 -0.8150
v 1.7530 -0.3690 -0.8280
v 1.8008 -0.3690 -0.8153
v 1.8359 -0.3690 -0.7804
v 1.9299 -0.4232 -0.7323
v 1.9062 -0.4232 -0.6440
v 1.8416 -0.4232 -0.5794
v 1.7533 -0.4232 -0.5556
v 1.6650 -0.4232 -0.5792
v 1.6003 -0.4232 -0.6438
v 1.5765 -0.4232 -0.7321
v 1.6000 -0.4232 -0.8204
v 1.6645 -0.4232 -0.8852
v 1.7528 -0.4232 -0.9090
v 1.8411 -0.4232 -0.8856
v 1.9060 -0.4232 -0.8211
v 1.9841 -0.5042 -0.7323
v 1.9532 -0.5042 -0.6169
v 1.8688 -0.5042 -0.5324
v 1.7534 -0.5042 -0.5014
v 1.6379 -0.5042 -0.5322
v 1.5534 -0.5042 -0.6166
v 1.5223 -0.5042 -0.7320
v 1.5530 -0.5042 -0.8474
v 1.6373 -0.5042 -0.9321
v 1.7526 -0.5042 -0.9632
v 1.8681 -0.5042 -0.9326
v 1.9528 -0.5042 -0.8484
v 2.0032 -0.5998 -0.7323
v 1.9697 -0.5998 -0.6074
v 1.8783 -0.5998 -0.5159
v 1.7534 -0.5998 -0.4823
v 1.6284 -0.5998 -0.5157
v 1.5369 -0.5998 -0.6071
v 1.5032 -0.5998 -0.7319
v 1.5365 -0.5998 -0.8569
v 1.6277 -0.5998 -0.9486
v 1.7526 -0.5998 -0.9823
v 1.8776 -0.5998 -0.9492
v 1.9693 -0.5998 -0.8580
v 1.9843 -0.6954 -0.7323
v 1.9533 -0.6954 -0.6169
v 1.8688 -0.6954 -0.5323
v 1.7534 -0.6954 -0.5013
v 1.6379 -0.6954 -0.5321
v 1.5532 -0.6954 -0.6165
v 1.5221 -0.6954 -0.7320
v 1.5529 -0.6954 -0.8475
v 1.6372 -0.6954 -0.9322
v 1.7526 -0.6954 -0.9634
v 1.8682 -0.6954 -0.9328
v 1.9530 -0.6954 -0.8485
v 1.9302 -0.7766 -0.7323
v 1.9065 -0.7766 -0.6439
v 1.8418 -0.7766 -0.5791
v 1.7533 -0.7766 -0.5553
v 1.6649 -0.7766 -0.5790
v 1.6000 -0.7766 -0.6436
v 1.5762 -0.7766 -0.7321
v 1.5998 -0.7766 -0.8205
v 1.6644 -0.7766 -0.8854
v 1.7528 -0.7766 -0.9093
v 1.8413 -0.7766 -0.8858
v 1.9062 -0.7766 -0.8213
v 1.8492 -0.8308 -0.7323
v 1.8363 -0.8308 -0.6844
v 1.8012 -0.8308 -0.6492
v 1.7533 -0.8308 -0.6363
v 1.7053 -0.8308 -0.6492
v 1.6701 -0.8308 -0.6842
v 1.6572 -0.8308 -0.7322
v 1.6700 -0.8308 -0.7802
v 1.7050 -0.8308 -0.8154
v 1.7530 -0.8308 -0.8283
v 1.8010 -0.8308 -0.8156
v 1.8362 -0.8308 -0.7806
v 1.7536 -0.8500 -0.7323
v 1.7535 -0.8500 -0.7321
v 1.7534 -0.8500 -0.7320
v 1.7532 -0.8500 -0.7319
v 1.7530 -0.8500 -0.7320
v 1.7528 -0.8500 -0.7321
v 1.7528 -0.8500 -0.7323
v 1.7528 -0.8500 -0.7325
v 1.7530 -0.8500 -0.7327
v 1.7532 -0.8500 -0.7327
v 1.7534 -0.8500 -0.7327
v 1.7535 -0.8500 -0.7325
v 1.5000 1.0000 1.2000
v 1.5000 1.0000 1.2000
v 1.5000 1.0000 1.2000
v 1.5000 1.0000 1.2000
v 1.5000 1.0000 1.2000
v 1.5000 1.0000 1.2000
v 1.5000 1.0000 1.2000
v 1.5000 1.0000 1.2000
v 1.5000 1.0000 1.2000
v 1.5000 1.0000 1.2000
v 1.5000 1.0000 1.2000
v 1.5000 1.0000 1.2000
v 1.7295 0.9962 1.2000
v 1.6988 0.9962 1.3147
v 1.6149 0.9962 1.3987
v 1.5002 0.9962 1.4295
v 1.3855 0.9962 1.3989
v 1.3014 0.9962 1.3150
v 1.2705 0.9962 1.2004
v 1.3010 0.9962 1.0856
v 1.3848 0.9962 1.0015
v 1.4995 0.9962 0.9705
v 1.6142 0.9962 1.0009
v 1.6984 0.9962 1.0847
v 1.9241 0.9854 1.2000
v 1.8673 0.9854 1.4120
v 1.7122 0.9854 1.5672
v 1.5003 0.9854 1.6241
v 1.2883 0.9854 1.5675
v 1.1330 0.9854 1.4125
v 1.0759 0.9854 1.2007
v 1.1323 0.9854 0.9886
v 1.2872 0.9854 0.8332
v 1.4990 0.9854 0.7759
v 1.7111 0.9854 0.8322
v 1.8667 0.9854 0.9869
v 2.0542 0.9692 1.2000
v 1.9800 0.9692 1.4770
v 1.7773 0.9692 1.6798
v 1.5004 0.9692 1.7542
v 1.2234 0.9692 1.6802
v 1.0204 0.9692 1.4777
v 0.9458 0.9692 1.2009
v 1.0195 0.9692 0.9238
v 1.2219 0.9692 0.7206
v 1.4987 0.9692 0.6458
v 1.7758 0.9692 0.7193
v 1.9791 0.9692 0.9215
v 2.1000 0.9500 1.2000
v 2.0197 0.9500 1.4999
v 1.8003 0.9500 1.7195
v 1.5005 0.9500 1.8000
v 1.2006 0.9500 1.7199
v 0.9808 0.9500 1.5007
v 0.9000 0.9500 1.2010
v 0.9798 0.9500 0.9010
v 1.1989 0.9500 0.6810
v 1.4986 0.9500 0.6000
v 1.7986 0.9500 0.6796
v 2.0187 0.9500 0.8985
v 2.0546 0.9309 1.2000
v 1.9803 0.9309 1.4772
v 1.7775 0.9309 1.6801
v 1.5004 0.9309 1.7546
v 1.2232 0.9309 1.6806
v 1.0201 0.9309 1.4779
v 0.9454 0.9309 1.2009
v 1.0192 0.9309 0.9236
v 1.2217 0.9309 0.7203
v 1.4987 0.9309 0.6454
v 1.7760 0.9309 0.7190
v 1.9794 0.9309 0.9213
v 1.9248 0.9147 1.2000
v 1.8679 0.9147 1.4123
v 1.7126 0.9147 1.5677
v 1.5003 0.9147 1.6248
v 1.2880 0.9147 1.5681
v 1.1324 0.9147 1.4129
v 1.0752 0.9147 1.2007
v 1.1317 0.9147 0.9883
v 1.2868 0.9147 0.8326
v 1.4990 0.9147 0.7752
v 1.7114 0.9147 0.8316
v 1.8672 0.9147 0.9865
v 1.7304 0.9038 1.2000
v 1.6995 0.9038 1.3151
v 1.6153 0.9038 1.3995
v 1.5002 0.9038 1.4304
v 1.3850 0.9038 1.3996
v 1.3006 0.9038 1.3155
v 1.2696 0.9038 1.2004
v 1.3003 0.9038 1.0852
v 1.3844 0.9038 1.0007
v 1.4994 0.9038 0.9696
v 1.6147 0.9038 1.0002
v 1.6992 0.9038 1.0842
v 1.5010 0.9000 1.2000
v 1.5008 0.9000 1.2005
v 1.5005 0.9000 1.2008
v 1.5000 0.9000 1.2010
v 1.4995 0.9000 1.2008
v 1.4992 0.9000 1.2005
v 1.4990 0.9000 1.2000
v 1.4992 0.9000 1.1995
v 1.4995 0.9000 1.1992
v 1.5000 0.9000 1.1990
v 1.5005 0.9000 1.1992
v 1.5008 0.9000 1.1995
v -1.5000 1.0000 1.2000
v -1.5000 1.0000 1.2000
v -1.5000 1.0000 1.2000
v -1.5000 1.0000 1.2000
v -1.5000 1.0000 1.2000
v -1.5000 1.0000 1.2000
v -1.5000 1.0000 1.2000
v -1.5000 1.0000 1.2000
v -1.5000 1.0000 1.2000
v -1.5000 1.0000 1.2000
v -1.5000 1.0000 1.2000
v -1.5000 1.0000 1.2000
v -1.2705 0.9962 1.2000
v -1.3012 0.9962 1.3147
v -1.3851 0.9962 1.3987
v -1.4998 0.9962 1.4295
v -1.6145 0.9962 1.3989
v -1.6986 0.9962 1.3150
v -1.7295 0.9962 1.2004
v -1.6990 0.9962 1.0856
v -1.6152 0.9962 1.0015
v -1.5005 0.9962 0.9705
v -1.3858 0.9962 1.0009
v -1.3016 0.9962 1.0847
v -1.0759 0.9854 1.2000
v -1.1327 0.9854 1.4120
v -1.2878 0.9854 1.5672
v -1.4997 0.9854 1.6241
v -1.7117 0.9854 1.5675
v -1.8670 0.9854 1.4125
v -1.9241 0.9854 1.2007
v -1.8677 0.9854 0.9886
v -1.7128 0.9854 0.8332
v -1.5010 0.9854 0.7759
v -1.2889 0.9854 0.8322
v -1.1333 0.9854 0.9869
v -0.9458 0.9692 1.2000
v -1.0200 0.9692 1.4770
v -1.2227 0.9692 1.6798
v -1.4996 0.9692 1.7542
v -1.7766 0.9692 1.6802
v -1.9796 0.9692 1.4777
v -2.0542 0.9692 1.2009
v -1.9805 0.9692 0.9238
v -1.7781 0.9692 0.7206
v -1.5013 0.9692 0.6458
v -1.2242 0.9692 0.7193
v -1.0209 0.9692 0.9215
v -0.9000 0.9500 1.2000
v -0.9803 0.9500 1.4999
v -1.1997 0.9500 1.7195
v -1.4995 0.9500 1.8000
v -1.7994 0.9500 1.7199
v -2.0192 0.9500 1.5007
v -2.1000 0.9500 1.2010
v -2.0202 0.9500 0.9010
v -1.8011 0.9500 0.6810
v -1.5014 0.9500 0.6000
v -1.2014 0.9500 0.6796
v -0.9813 0.9500 0.8985
v -0.9454 0.9309 1.2000
v -1.0197 0.9309 1.4772
v -1.2225 0.9309 1.6801
v -1.4996 0.9309 1.7546
v -1.7768 0.9309 1.6806
v -1.9799 0.9309 1.4779
v -2.0546 0.9309 1.2009
v -1.9808 0.9309 0.9236
v -1.7783 0.9309 0.7203
v -1.5013 0.9309 0.6454
v -1.2240 0.9309 0.7190
v -1.0206 0.9309 0.9213
v -1.0752 0.9147 1.2000
v -1.1321 0.9147 1.4123
v -1.2874 0.9147 1.5677
v -1.4997 0.9147 1.6248
v -1.7120 0.9147 1.5681
v -1.8676 0.9147 1.4129
v -1.9248 0.9147 1.2007
v -1.8683 0.9147 0.9883
v -1.7132 0.9147 0.8326
v -1.5010 0.9147 0.7752
v -1.2886 0.9147 0.8316
v -1.1328 0.9147 0.9865
v -1.2696 0.9038 1.2000
v -1.3005 0.9038 1.3151
v -1.3847 0.9038 1.3995
v -1.4998 0.9038 1.4304
v -1.6150 0.9038 1.3996
v -1.6994 0.9038 1.3155
v -1.7304 0.9038 1.2004
v -1.6997 0.9038 1.0852
v -1.6156 0.9038 1.0007
v -1.5006 0.9038 0.9696
v -1.3853 0.9038 1.0002
v -1.3008 0.9038 1.0842
v -1.4990 0.9000 1.2000
v -1.4992 0.9000 1.2005
v -1.4995 0.9000 1.2008
v -1.5000 0.9000 1.2010
v -1.5005 0.9000 1.2008
v -1.5008 0.9000 1.2005
v -1.5010 0.9000 1.2000
v -1.5008 0.9000 1.1995
v -1.5005 0.9000 1.1992
v -1.5000 0.9000 1.1990
v -1.4995 0.9000 1.1992
v -1.4992 0.9000 1.1995
v 1.5000 1.0000 -1.2000
v 1.5000 1.0000 -1.2000
v 1.5000 1.0000 -1.2000
v 1.5000 1.0000 -1.2000
v 1.5000 1.0000 -1.2000
v 1.5000 1.0000 -1.2000
v 1.5000 1.0000 -1.2000
v 1.5000 1.0000 -1.2000
v 1.5000 1.0000 -1.2000
v 1.5000 1.0000 -1.2000
v 1.5000 1.0000 -1.2000
v 1.5000 1.0000 -1.2000
v 1.7295 0.9962 -1.2000
v 1.6988 0.9962 -1.0853
v 1.6149 0.9962 -1.0013
v 1.5002 0.9962 -0.9705
v 1.3855 0.9962 -1.0011
v 1.3014 0.9962 -1.0850
v 1.2705 0.9962 -1.1996
v 1.3010 0.9962 -1.3144
v 1.3848 0.9962 -1.3985
v 1.4995 0.9962 -1.4295
v 1.6142 0.9962 -1.3991
v 1.6984 0.9962 -1.3153
v 1.9241 0.9854 -1.2000
v 1.8673 0.9854 -0.9880
v 1.7122 0.9854 -0.8328
v 1.5003 0.9854 -0.7759
v 1.2883 0.9854 -0.8325
v 1.1330 0.9854 -0.9875
v 1.0759 0.9854 -1.1993
v 1.1323 0.9854 -1.4114
v 1.2872 0.9854 -1.5668
v 1.4990 0.9854 -1.6241
v 1.7111 0.9854 -1.5678
v 1.8667 0.9854 -1.4131
v 2.0542 0.9692 -1.2000
v 1.9800 0.9692 -0.9230
v 1.7773 0.9692 -0.7202
v 1.5004 0.9692 -0.6458
v 1.2234 0.9692 -0.7198
v 1.0204 0.9692 -0.9223
v 0.9458 0.9692 -1.1991
v 1.0195 0.9692 -1.4762
v 1.2219 0.9692 -1.6794
v 1.4987 0.9692 -1.7542
v 1.7758 0.9692 -1.6807
v 1.9791 0.9692 -1.4785
v 2.1000 0.9500 -1.2000
v 2.0197 0.9500 -0.9001
v 1.8003 0.9500 -0.6805
v 1.5005 0.9500 -0.6000
v 1.2006 0.9500 -0.6801
v 0.9808 0.9500 -0.8993
v 0.9000 0.9500 -1.1990
v 0.9798 0.9500 -1.4990
v 1.1989 0.9500 -1.7190
v 1.4986 0.9500 -1.8000
v 1.7986 0.9500 -1.7204
v 2.0187 0.9500 -1.5015
v 2.0546 0.9309 -1.2000
v 1.9803 0.9309 -0.9228
v 1.7775 0.9309 -0.7199
v 1.5004 0.9309 -0.6454
v 1.2232 0.9309 -0.7194
v 1.0201 0.9309 -0.9221
v 0.9454 0.9309 -1.1991
v 1.0192 0.9309 -1.4764
v 1.2217 0.9309 -1.6797
v 1.4987 0.9309 -1.7546
v 1.7760 0.9309 -1.6810
v 1.9794 0.9309 -1.4787
v 1.9248 0.9147 -1.2000
v 1.8679 0.9147 -0.9877
v 1.7126 0.9147 -0.8323
v 1.5003 0.9147 -0.7752
v 1.2880 0.9147 -0.8319
v 1.1324 0.9147 -0.9871
v 1.0752 0.9147 -1.1993
v 1.1317 0.9147 -1.4117
v 1.2868 0.9147 -1.5674
v 1.4990 0.9147 -1.6248
v 1.7114 0.9147 -1.5684
v 1.8672 0.9147 -1.4135
v 1.7304 0.9038 -1.2000
v 1.6995 0.9038 -1.0849
v 1.6153 0.9038 -1.0005
v 1.5002 0.9038 -0.9696
v 1.3850 0.9038 -1.0004
v 1.3006 0.9038 -1.0845
v 1.2696 0.9038 -1.1996
v 1.3003 0.9038 -1.3148
v 1.3844 0.9038 -1.3993
v 1.4994 0.9038 -1.4304
v 1.6147 0.9038 -1.3998
v 1.6992 0.9038 -1.3158
v 1.5010 0.9000 -1.2000
v 1.5008 0.9000 -1.1995
v 1.5005 0.9000 -1.1992
v 1.5000 0.9000 -1.1990
v 1.4995 0.9000 -1.1992
v 1.4992 0.9000 -1.1995
v 1.4990 0.9000 -1.2000
v 1.4992 0.9000 -1.2005
v 1.4995 0.9000 -1.2008
v 1.5000 0.9000 -1.2010
v 1.5005 0.9000 -1.2008
v 1.5008 0.9000 -1.2005
v -1.5000 1.0000 -1.2000
v -1.5000 1.0000 -1.2000
v -1.5000 1.0000 -1.2000
v -1.5000 1.0000 -1.2000
v -1.5000 1.0000 -1.2000
v -1.5000 1.0000 -1.2000
v -1.5000 1.0000 -1.2000
v -1.5000 1.0000 -1.2000
v -1.5000 1.0000 -1.2000
v -1.5000 1.0000 -1.2000
v -1.5000 1.0000 -1.2000
v -1.5000 1.0000 -1.2000
v -1.2705 0.9962 -1.2000
v -1.3012 0.9962 -1.0853
v -1.3851 0.9962 -1.0013
v -1.4998 0.9962 -0.9705
v -1.6145 0.9962 -1.0011
v -1.6986 0.9962 -1.0850
v -1.7295 0.9962 -1.1996
v -1.6990 0.9962 -1.3144
v -1.6152 0.9962 -1.3985
v -1.5005 0.9962 -1.4295
v -1.3858 0.9962 -1.3991
v -1.3016 0.9962 -1.3153
v -1.0759 0.9854 -1.2000
v -1.1327 0.9854 -0.9880
v -1.2878 0.9854 -0.8328
v -1.4997 0.9854 -0.7759
v -1.7117 0.9854 -0.8325
v -1.8670 0.9854 -0.9875
v -1.9241 0.9854 -1.1993
v -1.8677 0.9854 -1.4114
v -1.7128 0.9854 -1.5668
v -1.5010 0.9854 -1.6241
v -1.2889 0.9854 -1.5678
v -1.1333 0.9854 -1.4131
v -0.9458 0.9692 -1.2000
v -1.0200 0.9692 -0.9230
v -1.2227 0.9692 -0.7202
v -1.4996 0.9692 -0.6458
v -1.7766 0.9692 -0.7198
v -1.9796 0.9692 -0.9223
v -2.0542 0.9692 -1.1991
v -1.9805 0.9692 -1.4762
v -1.7781 0.9692 -1.6794
v -1.5013 0.9692 -1.7542
v -1.2242 0.9692 -1.6807
v -1.0209 0.9692 -1.4785
v -0.9000 0.9500 -1.2000
v -0.9803 0.9500 -0.9001
v -1.1997 0.9500 -0.6805
v -1.4995 0.9500 -0.6000
v -1.7994 0.9500 -0.6801
v -2.0192 0.9500 -0.8993
v -2.1000 0.9500 -1.1990
v -2.0202 0.9500 -1.4990
v -1.8011 0.9500 -1.7190
v -1.5014 0.9500 -1.8000
v -1.2014 0.9500 -1.7204
v -0.9813 0.9500 -1.5015
v -0.9454 0.9309 -1.2000
v -1.0197 0.9309 -0.9228
v -1.2225 0.9309 -0.7199
v -1.4996 0.9309 -0.6454
v -1.7768 0.9309 -0.7194
v -1.9799 0.9309 -0.9221
v -2.0546 0.9309 -1.1991
v -1.9808 0.9309 -1.4764
v -1.7783 0.9309 -1.6797
v -1.5013 0.9309 -1.7546
v -1.2240 0.9309 -1.6810
v -1.0206 0.9309 -1.4787
v -1.0752 0.9147 -1.2000
v -1.1321 0.9147 -0.9877
v -1.2874 0.9147 -0.8323
v -1.4997 0.9147 -0.7752
v -1.7120 0.9147 -0.8319
v -1.8676 0.9147 -0.9871
v -1.9248 0.9147 -1.1993
v -1.8683 0.9147 -1.4117
v -1.7132 0.9147 -1.5674
v -1.5010 0.9147 -1.6248
v -1.2886 0.9147 -1.5684
v -1.1328 0.9147 -1.4135
v -1.2696 0.9038 -1.2000
v -1.3005 0.9038 -1.0849
v -1.3847 0.9038 -1.0005
v -1.4998 0.9038 -0.9696
v -1.6150 0.9038 -1.0004
v -1.6994 0.9038 -1.0845
v -1.7304 0.9038 -1.1996
v -1.6997 0.9038 -1.3148
v -1.6156 0.9038 -1.3993
v -1.5006 0.9038 -1.4304
v -1.3853 0.9038 -1.3998
v -1.3008 0.9038 -1.3158
v -1.4990 0.9000 -1.2000
v -1.4992 0.9000 -1.1995
v -1.4995 0.9000 -1.1992
v -1.5000 0.9000 -1.1990
v -1.5005 0.9000 -1.1992
v -1.5008 0.9000 -1.1995
v -1.5010 0.9000 -1.2000
v -1.5008 0.9000 -1.2005
v -1.5005 0.9000 -1.2008
v -1.5000 0.9000 -1.2010
v -1.4995 0.9000 -1.2008
v -1.4992 0.9000 -1.2005