# DC31-A3 FINAL - Didier Cenen Pisso Villaquiran - Patente DC31-A3-2026-001
# CHC-HEART D-SHAPE 120 canales Cu-OFHC + Pt 5% / Cu-Ag 3% / Al-7075 - NO CIRCULAR
# Condensador de flujo HF-SK50 5000 CFM - 850kW Tri-Hybrid
mtllib DC31A3_FINAL.mtl
v 0.000000 0.000000 0.800000
v 0.000000 0.000000 0.800000
v 0.000000 0.000000 0.800000
v 0.000000 0.000000 0.800000
v 0.000000 0.000000 0.800000
v 0.000000 0.000000 0.800000
v 0.000000 0.000000 0.800000
v -0.000000 0.000000 0.800000
v -0.000000 0.000000 0.800000
v -0.000000 0.000000 0.800000
v -0.000000 0.000000 0.800000
v -0.000000 0.000000 0.800000
v -0.000000 0.000000 0.800000
v -0.000000 -0.000000 0.800000
v -0.000000 -0.000000 0.800000
v -0.000000 -0.000000 0.800000
v -0.000000 -0.000000 0.800000
v -0.000000 -0.000000 0.800000
v -0.000000 -0.000000 0.800000
v 0.000000 -0.000000 0.800000
v 0.000000 -0.000000 0.800000
v 0.000000 -0.000000 0.800000
v 0.000000 -0.000000 0.800000
v 0.000000 -0.000000 0.800000
v 0.000000 -0.000000 0.800000
v 0.235377 0.000000 0.797534
v 0.227982 0.029268 0.797534
v 0.206263 0.056697 0.797534
v 0.171583 0.080563 0.797534
v 0.126121 0.099368 0.797534
v 0.072736 0.111929 0.797534
v 0.014779 0.117456 0.797534
v -0.044105 0.115604 0.797534
v -0.100219 0.106488 0.797534
v -0.150035 0.090681 0.797534
v -0.190424 0.069176 0.797534
v -0.218848 0.043324 0.797534
v -0.233521 0.014750 0.797534
v -0.233521 -0.014750 0.797534
v -0.218848 -0.043324 0.797534
v -0.190424 -0.069176 0.797534
v -0.150035 -0.090681 0.797534
v -0.100219 -0.106488 0.797534
v -0.044105 -0.115604 0.797534
v 0.014779 -0.117456 0.797534
v 0.072736 -0.111929 0.797534
v 0.126121 -0.099368 0.797534
v 0.171583 -0.080563 0.797534
v 0.206263 -0.056697 0.797534
v 0.227982 -0.029268 0.797534
v 0.469303 0.000000 0.790151
v 0.454559 0.058356 0.790151
v 0.411254 0.113044 0.790151
v 0.342107 0.160630 0.790151
v 0.251465 0.198123 0.790151
v 0.145023 0.223167 0.790151
v 0.029468 0.234189 0.790151
v -0.087939 0.230495 0.790151
v -0.199820 0.212319 0.790151
v -0.299145 0.180802 0.790151
v -0.379674 0.137925 0.790151
v -0.436347 0.086381 0.790151
v -0.465603 0.029410 0.790151
v -0.465603 -0.029410 0.790151
v -0.436347 -0.086381 0.790151
v -0.379674 -0.137925 0.790151
v -0.299145 -0.180802 0.790151
v -0.199820 -0.212319 0.790151
v -0.087939 -0.230495 0.790151
v 0.029468 -0.234189 0.790151
v 0.145023 -0.223167 0.790151
v 0.251465 -0.198123 0.790151
v 0.342107 -0.160630 0.790151
v 0.411254 -0.113044 0.790151
v 0.454559 -0.058356 0.790151
v 0.700336 0.000000 0.777896
v 0.678334 0.087083 0.777896
v 0.613709 0.168695 0.777896
v 0.510523 0.239707 0.777896
v 0.375259 0.295657 0.777896
v 0.216416 0.333030 0.777896
v 0.043974 0.349477 0.777896
v -0.131230 0.343966 0.777896
v -0.298189 0.316842 0.777896
v -0.446411 0.269809 0.777896
v -0.566584 0.205824 0.777896
v -0.651156 0.128905 0.777896
v -0.694814 0.043888 0.777896
v -0.694814 -0.043888 0.777896
v -0.651156 -0.128905 0.777896
v -0.566584 -0.205824 0.777896
v -0.446411 -0.269809 0.777896
v -0.298189 -0.316842 0.777896
v -0.131230 -0.343966 0.777896
v 0.043974 -0.349477 0.777896
v 0.216416 -0.333030 0.777896
v 0.375259 -0.295657 0.777896
v 0.510523 -0.239707 0.777896
v 0.613709 -0.168695 0.777896
v 0.678334 -0.087083 0.777896
v 0.927051 0.000000 0.760845
v 0.897926 0.115274 0.760845
v 0.812381 0.223305 0.760845
v 0.675791 0.317305 0.760845
v 0.496739 0.391368 0.760845
v 0.286475 0.440839 0.760845
v 0.058210 0.462611 0.760845
v -0.173712 0.455315 0.760845
v -0.394719 0.419410 0.760845
v -0.590925 0.357153 0.760845
v -0.750000 0.272453 0.760845
v -0.861950 0.170635 0.760845
v -0.919741 0.058095 0.760845
v -0.919741 -0.058095 0.760845
v -0.861950 -0.170635 0.760845
v -0.750000 -0.272453 0.760845
v -0.590925 -0.357153 0.760845
v -0.394719 -0.419410 0.760845
v -0.173712 -0.455315 0.760845
v 0.058210 -0.462611 0.760845
v 0.286475 -0.440839 0.760845
v 0.496739 -0.391368 0.760845
v 0.675791 -0.317305 0.760845
v 0.812381 -0.223305 0.760845
v 0.897926 -0.115274 0.760845
v 1.148050 0.000000 0.739104
v 1.111982 0.142754 0.739104
v 1.006044 0.276539 0.739104
v 0.836893 0.392947 0.739104
v 0.615156 0.484665 0.739104
v 0.354767 0.545930 0.739104
v 0.072087 0.572892 0.739104
v -0.215123 0.563858 0.739104
v -0.488816 0.519393 0.739104
v -0.731795 0.442294 0.739104
v -0.928792 0.337404 0.739104
v -1.067430 0.211313 0.739104
v -1.138998 0.071944 0.739104
v -1.138998 -0.071944 0.739104
v -1.067430 -0.211313 0.739104
v -0.928792 -0.337404 0.739104
v -0.731795 -0.442294 0.739104
v -0.488816 -0.519393 0.739104
v -0.215123 -0.563858 0.739104
v 0.072087 -0.572892 0.739104
v 0.354767 -0.545930 0.739104
v 0.615156 -0.484665 0.739104
v 0.836893 -0.392947 0.739104
v 1.006044 -0.276539 0.739104
v 1.111982 -0.142754 0.739104
v 1.361971 0.000000 0.712805
v 1.319183 0.169354 0.712805
v 1.193505 0.328067 0.712805
v 0.992834 0.466167 0.712805
v 0.729781 0.574975 0.712805
v 0.420872 0.647656 0.712805
v 0.085519 0.679642 0.712805
v -0.255208 0.668924 0.712805
v -0.579899 0.616174 0.712805
v -0.868153 0.524709 0.712805
v -1.101858 0.400273 0.712805
v -1.266329 0.250688 0.712805
v -1.351232 0.085350 0.712805
v -1.351232 -0.085350 0.712805
v -1.266329 -0.250688 0.712805
v -1.101858 -0.400273 0.712805
v -0.868153 -0.524709 0.712805
v -0.579899 -0.616174 0.712805
v -0.255208 -0.668924 0.712805
v 0.085519 -0.679642 0.712805
v 0.420872 -0.647656 0.712805
v 0.729781 -0.574975 0.712805
v 0.992834 -0.466167 0.712805
v 1.193505 -0.328067 0.712805
v 1.319183 -0.169354 0.712805
v 1.567496 0.000000 0.682112
v 1.518250 0.194910 0.682112
v 1.373607 0.377573 0.682112
v 1.142655 0.536512 0.682112
v 0.839906 0.661740 0.682112
v 0.484383 0.745388 0.682112
v 0.098424 0.782201 0.682112
v -0.293719 0.769866 0.682112
v -0.667407 0.709156 0.682112
v -0.999159 0.603888 0.682112
v -1.268131 0.460675 0.682112
v -1.457421 0.288517 0.682112
v -1.555136 0.098230 0.682112
v -1.555136 -0.098230 0.682112
v -1.457421 -0.288517 0.682112
v -1.268131 -0.460675 0.682112
v -0.999159 -0.603888 0.682112
v -0.667407 -0.709156 0.682112
v -0.293719 -0.769866 0.682112
v 0.098424 -0.782201 0.682112
v 0.484383 -0.745388 0.682112
v 0.839906 -0.661740 0.682112
v 1.142655 -0.536512 0.682112
v 1.373607 -0.377573 0.682112
v 1.518250 -0.194910 0.682112
v 1.763356 0.000000 0.647214
v 1.707957 0.219264 0.647214
v 1.545240 0.424752 0.647214
v 1.285431 0.603550 0.647214
v 0.944853 0.744425 0.647214
v 0.544907 0.838525 0.647214
v 0.110722 0.879938 0.647214
v -0.330420 0.866061 0.647214
v -0.750800 0.797766 0.647214
v -1.124005 0.679344 0.647214
v -1.426585 0.518237 0.647214
v -1.639527 0.324567 0.647214
v -1.749451 0.110504 0.647214
v -1.749451 -0.110504 0.647214
v -1.639527 -0.324567 0.647214
v -1.426585 -0.518237 0.647214
v -1.124005 -0.679344 0.647214
v -0.750800 -0.797766 0.647214
v -0.330420 -0.866061 0.647214
v 0.110722 -0.879938 0.647214
v 0.544907 -0.838525 0.647214
v 0.944853 -0.744425 0.647214
v 1.285431 -0.603550 0.647214
v 1.545240 -0.424752 0.647214
v 1.707957 -0.219264 0.647214
v 1.948344 0.000000 0.608325
v 1.887133 0.242267 0.608325
v 1.707347 0.469311 0.608325
v 1.420282 0.666867 0.608325
v 1.043975 0.822521 0.608325
v 0.602071 0.926493 0.608325
v 0.122338 0.972250 0.608325
v -0.365083 0.956917 0.608325
v -0.829565 0.881457 0.608325
v -1.241921 0.750612 0.608325
v -1.576244 0.572604 0.608325
v -1.811525 0.358617 0.608325
v -1.932981 0.122096 0.608325
v -1.932981 -0.122096 0.608325
v -1.811525 -0.358617 0.608325
v -1.576244 -0.572604 0.608325
v -1.241921 -0.750612 0.608325
v -0.829565 -0.881457 0.608325
v -0.365083 -0.956917 0.608325
v 0.122338 -0.972250 0.608325
v 0.602071 -0.926493 0.608325
v 1.043975 -0.822521 0.608325
v 1.420282 -0.666867 0.608325
v 1.707347 -0.469311 0.608325
v 1.887133 -0.242267 0.608325
v 2.121320 0.000000 0.565685
v 2.054675 0.263775 0.565685
v 1.858927 0.510977 0.565685
v 1.546376 0.726072 0.565685
v 1.136660 0.895545 0.565685
v 0.655524 1.008748 0.565685
v 0.133199 1.058567 0.565685
v -0.397496 1.041873 0.565685
v -0.903214 0.959714 0.565685
v -1.352180 0.817253 0.565685
v -1.716184 0.623440 0.565685
v -1.972354 0.390455 0.565685
v -2.104593 0.132936 0.565685
v -2.104593 -0.132936 0.565685
v -1.972354 -0.390455 0.565685
v -1.716184 -0.623440 0.565685
v -1.352180 -0.817253 0.565685
v -0.903214 -0.959714 0.565685
v -0.397496 -1.041873 0.565685
v 0.133199 -1.058567 0.565685
v 0.655524 -1.008748 0.565685
v 1.136660 -0.895545 0.565685
v 1.546376 -0.726072 0.565685
v 1.858927 -0.510977 0.565685
v 2.054675 -0.263775 0.565685
v 2.281218 0.000000 0.519558
v 2.209549 0.283658 0.519558
v 1.999046 0.549493 0.519558
v 1.662936 0.780801 0.519558
v 1.222338 0.963048 0.519558
v 0.704935 1.084784 0.519558
v 0.143239 1.138358 0.519558
v -0.427458 1.120406 0.519558
v -0.971295 1.032054 0.519558
v -1.454103 0.878854 0.519558
v -1.845544 0.670433 0.519558
v -2.121023 0.419886 0.519558
v -2.263230 0.142956 0.519558
v -2.263230 -0.142956 0.519558
v -2.121023 -0.419886 0.519558
v -1.845544 -0.670433 0.519558
v -1.454103 -0.878854 0.519558
v -0.971295 -1.032054 0.519558
v -0.427458 -1.120406 0.519558
v 0.143239 -1.138358 0.519558
v 0.704935 -1.084784 0.519558
v 1.222338 -0.963048 0.519558
v 1.662936 -0.780801 0.519558
v 1.999046 -0.549493 0.519558
v 2.209549 -0.283658 0.519558
v 2.427051 0.000000 0.470228
v 2.350801 0.301792 0.470228
v 2.126841 0.584620 0.470228
v 1.769244 0.830715 0.470228
v 1.300479 1.024613 0.470228
v 0.750000 1.154131 0.470228
v 0.152396 1.211131 0.470228
v -0.454784 1.192031 0.470228
v -1.033388 1.098031 0.470228
v -1.547061 0.935037 0.470228
v -1.963525 0.713292 0.470228
v -2.256615 0.446729 0.470228
v -2.407913 0.152095 0.470228
v -2.407913 -0.152095 0.470228
v -2.256615 -0.446729 0.470228
v -1.963525 -0.713292 0.470228
v -1.547061 -0.935037 0.470228
v -1.033388 -1.098031 0.470228
v -0.454784 -1.192031 0.470228
v 0.152396 -1.211131 0.470228
v 0.750000 -1.154131 0.470228
v 1.300479 -1.024613 0.470228
v 1.769244 -0.830715 0.470228
v 2.126841 -0.584620 0.470228
v 2.350801 -0.301792 0.470228
v 2.557920 0.000000 0.417999
v 2.477559 0.318064 0.417999
v 2.241523 0.616144 0.417999
v 1.864644 0.875509 0.417999
v 1.370602 1.079862 0.417999
v 0.790441 1.216363 0.417999
v 0.160613 1.276437 0.417999
v -0.479307 1.256306 0.417999
v -1.089110 1.157238 0.417999
v -1.630480 0.985456 0.417999
v -2.069401 0.751754 0.417999
v -2.378294 0.470817 0.417999
v -2.537751 0.160296 0.417999
v -2.537751 -0.160296 0.417999
v -2.378294 -0.470817 0.417999
v -2.069401 -0.751754 0.417999
v -1.630480 -0.985456 0.417999
v -1.089110 -1.157238 0.417999
v -0.479307 -1.256306 0.417999
v 0.160613 -1.276437 0.417999
v 0.790441 -1.216363 0.417999
v 1.370602 -1.079862 0.417999
v 1.864644 -0.875509 0.417999
v 2.241523 -0.616144 0.417999
v 2.477559 -0.318064 0.417999
v 2.673020 0.000000 0.363192
v 2.589042 0.332376 0.363192
v 2.342385 0.643869 0.363192
v 1.948547 0.914904 0.363192
v 1.432276 1.128453 0.363192
v 0.826008 1.271096 0.363192
v 0.167840 1.333872 0.363192
v -0.500874 1.312837 0.363192
v -1.138116 1.209310 0.363192
v -1.703847 1.029798 0.363192
v -2.162518 0.785581 0.363192
v -2.485311 0.492002 0.363192
v -2.651942 0.167509 0.363192
v -2.651942 -0.167509 0.363192
v -2.485311 -0.492002 0.363192
v -2.162518 -0.785581 0.363192
v -1.703847 -1.029798 0.363192
v -1.138116 -1.209310 0.363192
v -0.500874 -1.312837 0.363192
v 0.167840 -1.333872 0.363192
v 0.826008 -1.271096 0.363192
v 1.432276 -1.128453 0.363192
v 1.948547 -0.914904 0.363192
v 2.342385 -0.643869 0.363192
v 2.589042 -0.332376 0.363192
v 2.771639 0.000000 0.306147
v 2.684562 0.344639 0.306147
v 2.428805 0.667624 0.306147
v 2.020438 0.948659 0.306147
v 1.485118 1.170086 0.306147
v 0.856483 1.317992 0.306147
v 0.174033 1.383085 0.306147
v -0.519353 1.361273 0.306147
v -1.180106 1.253927 0.306147
v -1.766709 1.067792 0.306147
v -2.242303 0.814564 0.306147
v -2.577004 0.510154 0.306147
v -2.749783 0.173689 0.306147
v -2.749783 -0.173689 0.306147
v -2.577004 -0.510154 0.306147
v -2.242303 -0.814564 0.306147
v -1.766709 -1.067792 0.306147
v -1.180106 -1.253927 0.306147
v -0.519353 -1.361273 0.306147
v 0.174033 -1.383085 0.306147
v 0.856483 -1.317992 0.306147
v 1.485118 -1.170086 0.306147
v 2.020438 -0.948659 0.306147
v 2.428805 -0.667624 0.306147
v 2.684562 -0.344639 0.306147
v 2.853170 0.000000 0.247214
v 2.763532 0.354777 0.247214
v 2.500252 0.687262 0.247214
v 2.079871 0.976564 0.247214
v 1.528805 1.204505 0.247214
v 0.881678 1.356763 0.247214
v 0.179152 1.423770 0.247214
v -0.534631 1.401316 0.247214
v -1.214821 1.290812 0.247214
v -1.818679 1.099202 0.247214
v -2.308263 0.838525 0.247214
v -2.652810 0.525161 0.247214
v -2.830671 0.178798 0.247214
v -2.830671 -0.178798 0.247214
v -2.652810 -0.525161 0.247214
v -2.308263 -0.838525 0.247214
v -1.818679 -1.099202 0.247214
v -1.214821 -1.290812 0.247214
v -0.534631 -1.401316 0.247214
v 0.179152 -1.423770 0.247214
v 0.881678 -1.356763 0.247214
v 1.528805 -1.204505 0.247214
v 2.079871 -0.976564 0.247214
v 2.500252 -0.687262 0.247214
v 2.763532 -0.354777 0.247214
v 2.917110 0.000000 0.186756
v 2.825463 0.362728 0.186756
v 2.556283 0.702664 0.186756
v 2.126481 0.998450 0.186756
v 1.563066 1.231499 0.186756
v 0.901436 1.387168 0.186756
v 0.183167 1.455677 0.186756
v -0.546612 1.432720 0.186756
v -1.242045 1.319740 0.186756
v -1.859436 1.123836 0.186756
v -2.359991 0.857317 0.186756
v -2.712260 0.536930 0.186756
v -2.894107 0.182805 0.186756
v -2.894107 -0.182805 0.186756
v -2.712260 -0.536930 0.186756
v -2.359991 -0.857317 0.186756
v -1.859436 -1.123836 0.186756
v -1.242045 -1.319740 0.186756
v -0.546612 -1.432720 0.186756
v 0.183167 -1.455677 0.186756
v 0.901436 -1.387168 0.186756
v 1.563066 -1.231499 0.186756
v 2.126481 -0.998450 0.186756
v 2.556283 -0.702664 0.186756
v 2.825463 -0.362728 0.186756
v 2.963065 0.000000 0.125148
v 2.869975 0.368442 0.125148
v 2.596554 0.713734 0.125148
v 2.159981 1.014179 0.125148
v 1.587690 1.250899 0.125148
v 0.915637 1.409021 0.125148
v 0.186052 1.478609 0.125148
v -0.555223 1.455290 0.125148
v -1.261612 1.340531 0.125148
v -1.888729 1.141540 0.125148
v -2.397170 0.870823 0.125148
v -2.754988 0.545388 0.125148
v -2.939700 0.185685 0.125148
v -2.939700 -0.185685 0.125148
v -2.754988 -0.545388 0.125148
v -2.397170 -0.870823 0.125148
v -1.888729 -1.141540 0.125148
v -1.261612 -1.340531 0.125148
v -0.555223 -1.455290 0.125148
v 0.186052 -1.478609 0.125148
v 0.915637 -1.409021 0.125148
v 1.587690 -1.250899 0.125148
v 2.159981 -1.014179 0.125148
v 2.596554 -0.713734 0.125148
v 2.869975 -0.368442 0.125148
v 2.990752 0.000000 0.062767
v 2.896792 0.371885 0.062767
v 2.620816 0.720403 0.062767
v 2.180164 1.023655 0.062767
v 1.602525 1.262588 0.062767
v 0.924193 1.422187 0.062767
v 0.187791 1.492425 0.062767
v -0.560411 1.468889 0.062767
v -1.273400 1.353057 0.062767
v -1.906377 1.152207 0.062767
v -2.419569 0.878960 0.062767
v -2.780731 0.550485 0.062767
v -2.967169 0.187420 0.062767
v -2.967169 -0.187420 0.062767
v -2.780731 -0.550485 0.062767
v -2.419569 -0.878960 0.062767
v -1.906377 -1.152207 0.062767
v -1.273400 -1.353057 0.062767
v -0.560411 -1.468889 0.062767
v 0.187791 -1.492425 0.062767
v 0.924193 -1.422187 0.062767
v 1.602525 -1.262588 0.062767
v 2.180164 -1.023655 0.062767
v 2.620816 -0.720403 0.062767
v 2.896792 -0.371885 0.062767
v 3.000000 0.000000 0.000000
v 2.905749 0.373035 0.000000
v 2.628920 0.722631 0.000000
v 2.186906 1.026821 0.000000
v 1.607480 1.266492 0.000000
v 0.927051 1.426585 0.000000
v 0.188372 1.497040 0.000000
v -0.562144 1.473431 0.000000
v -1.277338 1.357241 0.000000
v -1.912272 1.155770 0.000000
v -2.427051 0.881678 0.000000
v -2.789329 0.552187 0.000000
v -2.976344 0.188000 0.000000
v -2.976344 -0.188000 0.000000
v -2.789329 -0.552187 0.000000
v -2.427051 -0.881678 0.000000
v -1.912272 -1.155770 0.000000
v -1.277338 -1.357241 0.000000
v -0.562144 -1.473431 0.000000
v 0.188372 -1.497040 0.000000
v 0.927051 -1.426585 0.000000
v 1.607480 -1.266492 0.000000
v 2.186906 -1.026821 0.000000
v 2.628920 -0.722631 0.000000
v 2.905749 -0.373035 0.000000
v 2.990752 0.000000 -0.062767
v 2.896792 0.371885 -0.062767
v 2.620816 0.720403 -0.062767
v 2.180164 1.023655 -0.062767
v 1.602525 1.262588 -0.062767
v 0.924193 1.422187 -0.062767
v 0.187791 1.492425 -0.062767
v -0.560411 1.468889 -0.062767
v -1.273400 1.353057 -0.062767
v -1.906377 1.152207 -0.062767
v -2.419569 0.878960 -0.062767
v -2.780731 0.550485 -0.062767
v -2.967169 0.187420 -0.062767
v -2.967169 -0.187420 -0.062767
v -2.780731 -0.550485 -0.062767
v -2.419569 -0.878960 -0.062767
v -1.906377 -1.152207 -0.062767
v -1.273400 -1.353057 -0.062767
v -0.560411 -1.468889 -0.062767
v 0.187791 -1.492425 -0.062767
v 0.924193 -1.422187 -0.062767
v 1.602525 -1.262588 -0.062767
v 2.180164 -1.023655 -0.062767
v 2.620816 -0.720403 -0.062767
v 2.896792 -0.371885 -0.062767
v 2.963065 0.000000 -0.125148
v 2.869975 0.368442 -0.125148
v 2.596554 0.713734 -0.125148
v 2.159981 1.014179 -0.125148
v 1.587690 1.250899 -0.125148
v 0.915637 1.409021 -0.125148
v 0.186052 1.478609 -0.125148
v -0.555223 1.455290 -0.125148
v -1.261612 1.340531 -0.125148
v -1.888729 1.141540 -0.125148
v -2.397170 0.870823 -0.125148
v -2.754988 0.545388 -0.125148
v -2.939700 0.185685 -0.125148
v -2.939700 -0.185685 -0.125148
v -2.754988 -0.545388 -0.125148
v -2.397170 -0.870823 -0.125148
v -1.888729 -1.141540 -0.125148
v -1.261612 -1.340531 -0.125148
v -0.555223 -1.455290 -0.125148
v 0.186052 -1.478609 -0.125148
v 0.915637 -1.409021 -0.125148
v 1.587690 -1.250899 -0.125148
v 2.159981 -1.014179 -0.125148
v 2.596554 -0.713734 -0.125148
v 2.869975 -0.368442 -0.125148
v 2.917110 0.000000 -0.186756
v 2.825463 0.362728 -0.186756
v 2.556283 0.702664 -0.186756
v 2.126481 0.998450 -0.186756
v 1.563066 1.231499 -0.186756
v 0.901436 1.387168 -0.186756
v 0.183167 1.455677 -0.186756
v -0.546612 1.432720 -0.186756
v -1.242045 1.319740 -0.186756
v -1.859436 1.123836 -0.186756
v -2.359991 0.857317 -0.186756
v -2.712260 0.536930 -0.186756
v -2.894107 0.182805 -0.186756
v -2.894107 -0.182805 -0.186756
v -2.712260 -0.536930 -0.186756
v -2.359991 -0.857317 -0.186756
v -1.859436 -1.123836 -0.186756
v -1.242045 -1.319740 -0.186756
v -0.546612 -1.432720 -0.186756
v 0.183167 -1.455677 -0.186756
v 0.901436 -1.387168 -0.186756
v 1.563066 -1.231499 -0.186756
v 2.126481 -0.998450 -0.186756
v 2.556283 -0.702664 -0.186756
v 2.825463 -0.362728 -0.186756
v 2.853170 0.000000 -0.247214
v 2.763532 0.354777 -0.247214
v 2.500252 0.687262 -0.247214
v 2.079871 0.976564 -0.247214
v 1.528805 1.204505 -0.247214
v 0.881678 1.356763 -0.247214
v 0.179152 1.423770 -0.247214
v -0.534631 1.401316 -0.247214
v -1.214821 1.290812 -0.247214
v -1.818679 1.099202 -0.247214
v -2.308263 0.838525 -0.247214
v -2.652810 0.525161 -0.247214
v -2.830671 0.178798 -0.247214
v -2.830671 -0.178798 -0.247214
v -2.652810 -0.525161 -0.247214
v -2.308263 -0.838525 -0.247214
v -1.818679 -1.099202 -0.247214
v -1.214821 -1.290812 -0.247214
v -0.534631 -1.401316 -0.247214
v 0.179152 -1.423770 -0.247214
v 0.881678 -1.356763 -0.247214
v 1.528805 -1.204505 -0.247214
v 2.079871 -0.976564 -0.247214
v 2.500252 -0.687262 -0.247214
v 2.763532 -0.354777 -0.247214
v 2.771639 0.000000 -0.306147
v 2.684562 0.344639 -0.306147
v 2.428805 0.667624 -0.306147
v 2.020438 0.948659 -0.306147
v 1.485118 1.170086 -0.306147
v 0.856483 1.317992 -0.306147
v 0.174033 1.383085 -0.306147
v -0.519353 1.361273 -0.306147
v -1.180106 1.253927 -0.306147
v -1.766709 1.067792 -0.306147
v -2.242303 0.814564 -0.306147
v -2.577004 0.510154 -0.306147
v -2.749783 0.173689 -0.306147
v -2.749783 -0.173689 -0.306147
v -2.577004 -0.510154 -0.306147
v -2.242303 -0.814564 -0.306147
v -1.766709 -1.067792 -0.306147
v -1.180106 -1.253927 -0.306147
v -0.519353 -1.361273 -0.306147
v 0.174033 -1.383085 -0.306147
v 0.856483 -1.317992 -0.306147
v 1.485118 -1.170086 -0.306147
v 2.020438 -0.948659 -0.306147
v 2.428805 -0.667624 -0.306147
v 2.684562 -0.344639 -0.306147
v 2.673020 0.000000 -0.363192
v 2.589042 0.332376 -0.363192
v 2.342385 0.643869 -0.363192
v 1.948547 0.914904 -0.363192
v 1.432276 1.128453 -0.363192
v 0.826008 1.271096 -0.363192
v 0.167840 1.333872 -0.363192
v -0.500874 1.312837 -0.363192
v -1.138116 1.209310 -0.363192
v -1.703847 1.029798 -0.363192
v -2.162518 0.785581 -0.363192
v -2.485311 0.492002 -0.363192
v -2.651942 0.167509 -0.363192
v -2.651942 -0.167509 -0.363192
v -2.485311 -0.492002 -0.363192
v -2.162518 -0.785581 -0.363192
v -1.703847 -1.029798 -0.363192
v -1.138116 -1.209310 -0.363192
v -0.500874 -1.312837 -0.363192
v 0.167840 -1.333872 -0.363192
v 0.826008 -1.271096 -0.363192
v 1.432276 -1.128453 -0.363192
v 1.948547 -0.914904 -0.363192
v 2.342385 -0.643869 -0.363192
v 2.589042 -0.332376 -0.363192
v 2.557920 0.000000 -0.417999
v 2.477559 0.318064 -0.417999
v 2.241523 0.616144 -0.417999
v 1.864644 0.875509 -0.417999
v 1.370602 1.079862 -0.417999
v 0.790441 1.216363 -0.417999
v 0.160613 1.276437 -0.417999
v -0.479307 1.256306 -0.417999
v -1.089110 1.157238 -0.417999
v -1.630480 0.985456 -0.417999
v -2.069401 0.751754 -0.417999
v -2.378294 0.470817 -0.417999
v -2.537751 0.160296 -0.417999
v -2.537751 -0.160296 -0.417999
v -2.378294 -0.470817 -0.417999
v -2.069401 -0.751754 -0.417999
v -1.630480 -0.985456 -0.417999
v -1.089110 -1.157238 -0.417999
v -0.479307 -1.256306 -0.417999
v 0.160613 -1.276437 -0.417999
v 0.790441 -1.216363 -0.417999
v 1.370602 -1.079862 -0.417999
v 1.864644 -0.875509 -0.417999
v 2.241523 -0.616144 -0.417999
v 2.477559 -0.318064 -0.417999
v 2.427051 0.000000 -0.470228
v 2.350801 0.301792 -0.470228
v 2.126841 0.584620 -0.470228
v 1.769244 0.830715 -0.470228
v 1.300479 1.024613 -0.470228
v 0.750000 1.154131 -0.470228
v 0.152396 1.211131 -0.470228
v -0.454784 1.192031 -0.470228
v -1.033388 1.098031 -0.470228
v -1.547061 0.935037 -0.470228
v -1.963525 0.713292 -0.470228
v -2.256615 0.446729 -0.470228
v -2.407913 0.152095 -0.470228
v -2.407913 -0.152095 -0.470228
v -2.256615 -0.446729 -0.470228
v -1.963525 -0.713292 -0.470228
v -1.547061 -0.935037 -0.470228
v -1.033388 -1.098031 -0.470228
v -0.454784 -1.192031 -0.470228
v 0.152396 -1.211131 -0.470228
v 0.750000 -1.154131 -0.470228
v 1.300479 -1.024613 -0.470228
v 1.769244 -0.830715 -0.470228
v 2.126841 -0.584620 -0.470228
v 2.350801 -0.301792 -0.470228
v 2.281218 0.000000 -0.519558
v 2.209549 0.283658 -0.519558
v 1.999046 0.549493 -0.519558
v 1.662936 0.780801 -0.519558
v 1.222338 0.963048 -0.519558
v 0.704935 1.084784 -0.519558
v 0.143239 1.138358 -0.519558
v -0.427458 1.120406 -0.519558
v -0.971295 1.032054 -0.519558
v -1.454103 0.878854 -0.519558
v -1.845544 0.670433 -0.519558
v -2.121023 0.419886 -0.519558
v -2.263230 0.142956 -0.519558
v -2.263230 -0.142956 -0.519558
v -2.121023 -0.419886 -0.519558
v -1.845544 -0.670433 -0.519558
v -1.454103 -0.878854 -0.519558
v -0.971295 -1.032054 -0.519558
v -0.427458 -1.120406 -0.519558
v 0.143239 -1.138358 -0.519558
v 0.704935 -1.084784 -0.519558
v 1.222338 -0.963048 -0.519558
v 1.662936 -0.780801 -0.519558
v 1.999046 -0.549493 -0.519558
v 2.209549 -0.283658 -0.519558
v 2.121320 0.000000 -0.565685
v 2.054675 0.263775 -0.565685
v 1.858927 0.510977 -0.565685
v 1.546376 0.726072 -0.565685
v 1.136660 0.895545 -0.565685
v 0.655524 1.008748 -0.565685
v 0.133199 1.058567 -0.565685
v -0.397496 1.041873 -0.565685
v -0.903214 0.959714 -0.565685
v -1.352180 0.817253 -0.565685
v -1.716184 0.623440 -0.565685
v -1.972354 0.390455 -0.565685
v -2.104593 0.132936 -0.565685
v -2.104593 -0.132936 -0.565685
v -1.972354 -0.390455 -0.565685
v -1.716184 -0.623440 -0.565685
v -1.352180 -0.817253 -0.565685
v -0.903214 -0.959714 -0.565685
v -0.397496 -1.041873 -0.565685
v 0.133199 -1.058567 -0.565685
v 0.655524 -1.008748 -0.565685
v 1.136660 -0.895545 -0.565685
v 1.546376 -0.726072 -0.565685
v 1.858927 -0.510977 -0.565685
v 2.054675 -0.263775 -0.565685
v 1.948344 0.000000 -0.608325
v 1.887133 0.242267 -0.608325
v 1.707347 0.469311 -0.608325
v 1.420282 0.666867 -0.608325
v 1.043975 0.822521 -0.608325
v 0.602071 0.926493 -0.608325
v 0.122338 0.972250 -0.608325
v -0.365083 0.956917 -0.608325
v -0.829565 0.881457 -0.608325
v -1.241921 0.750612 -0.608325
v -1.576244 0.572604 -0.608325
v -1.811525 0.358617 -0.608325
v -1.932981 0.122096 -0.608325
v -1.932981 -0.122096 -0.608325
v -1.811525 -0.358617 -0.608325
v -1.576244 -0.572604 -0.608325
v -1.241921 -0.750612 -0.608325
v -0.829565 -0.881457 -0.608325
v -0.365083 -0.956917 -0.608325
v 0.122338 -0.972250 -0.608325
v 0.602071 -0.926493 -0.608325
v 1.043975 -0.822521 -0.608325
v 1.420282 -0.666867 -0.608325
v 1.707347 -0.469311 -0.608325
v 1.887133 -0.242267 -0.608325
v 1.763356 0.000000 -0.647214
v 1.707957 0.219264 -0.647214
v 1.545240 0.424752 -0.647214
v 1.285431 0.603550 -0.647214
v 0.944853 0.744425 -0.647214
v 0.544907 0.838525 -0.647214
v 0.110722 0.879938 -0.647214
v -0.330420 0.866061 -0.647214
v -0.750800 0.797766 -0.647214
v -1.124005 0.679344 -0.647214
v -1.426585 0.518237 -0.647214
v -1.639527 0.324567 -0.647214
v -1.749451 0.110504 -0.647214
v -1.749451 -0.110504 -0.647214
v -1.639527 -0.324567 -0.647214
v -1.426585 -0.518237 -0.647214
v -1.124005 -0.679344 -0.647214
v -0.750800 -0.797766 -0.647214
v -0.330420 -0.866061 -0.647214
v 0.110722 -0.879938 -0.647214
v 0.544907 -0.838525 -0.647214
v 0.944853 -0.744425 -0.647214
v 1.285431 -0.603550 -0.647214
v 1.545240 -0.424752 -0.647214
v 1.707957 -0.219264 -0.647214
v 1.567496 0.000000 -0.682112
v 1.518250 0.194910 -0.682112
v 1.373607 0.377573 -0.682112
v 1.142655 0.536512 -0.682112
v 0.839906 0.661740 -0.682112
v 0.484383 0.745388 -0.682112
v 0.098424 0.782201 -0.682112
v -0.293719 0.769866 -0.682112
v -0.667407 0.709156 -0.682112
v -0.999159 0.603888 -0.682112
v -1.268131 0.460675 -0.682112
v -1.457421 0.288517 -0.682112
v -1.555136 0.098230 -0.682112
v -1.555136 -0.098230 -0.682112
v -1.457421 -0.288517 -0.682112
v -1.268131 -0.460675 -0.682112
v -0.999159 -0.603888 -0.682112
v -0.667407 -0.709156 -0.682112
v -0.293719 -0.769866 -0.682112
v 0.098424 -0.782201 -0.682112
v 0.484383 -0.745388 -0.682112
v 0.839906 -0.661740 -0.682112
v 1.142655 -0.536512 -0.682112
v 1.373607 -0.377573 -0.682112
v 1.518250 -0.194910 -0.682112
v 1.361971 0.000000 -0.712805
v 1.319183 0.169354 -0.712805
v 1.193505 0.328067 -0.712805
v 0.992834 0.466167 -0.712805
v 0.729781 0.574975 -0.712805
v 0.420872 0.647656 -0.712805
v 0.085519 0.679642 -0.712805
v -0.255208 0.668924 -0.712805
v -0.579899 0.616174 -0.712805
v -0.868153 0.524709 -0.712805
v -1.101858 0.400273 -0.712805
v -1.266329 0.250688 -0.712805
v -1.351232 0.085350 -0.712805
v -1.351232 -0.085350 -0.712805
v -1.266329 -0.250688 -0.712805
v -1.101858 -0.400273 -0.712805
v -0.868153 -0.524709 -0.712805
v -0.579899 -0.616174 -0.712805
v -0.255208 -0.668924 -0.712805
v 0.085519 -0.679642 -0.712805
v 0.420872 -0.647656 -0.712805
v 0.729781 -0.574975 -0.712805
v 0.992834 -0.466167 -0.712805
v 1.193505 -0.328067 -0.712805
v 1.319183 -0.169354 -0.712805
v 1.148050 0.000000 -0.739104
v 1.111982 0.142754 -0.739104
v 1.006044 0.276539 -0.739104
v 0.836893 0.392947 -0.739104
v 0.615156 0.484665 -0.739104
v 0.354767 0.545930 -0.739104
v 0.072087 0.572892 -0.739104
v -0.215123 0.563858 -0.739104
v -0.488816 0.519393 -0.739104
v -0.731795 0.442294 -0.739104
v -0.928792 0.337404 -0.739104
v -1.067430 0.211313 -0.739104
v -1.138998 0.071944 -0.739104
v -1.138998 -0.071944 -0.739104
v -1.067430 -0.211313 -0.739104
v -0.928792 -0.337404 -0.739104
v -0.731795 -0.442294 -0.739104
v -0.488816 -0.519393 -0.739104
v -0.215123 -0.563858 -0.739104
v 0.072087 -0.572892 -0.739104
v 0.354767 -0.545930 -0.739104
v 0.615156 -0.484665 -0.739104
v 0.836893 -0.392947 -0.739104
v 1.006044 -0.276539 -0.739104
v 1.111982 -0.142754 -0.739104
v 0.927051 0.000000 -0.760845
v 0.897926 0.115274 -0.760845
v 0.812381 0.223305 -0.760845
v 0.675791 0.317305 -0.760845
v 0.496739 0.391368 -0.760845
v 0.286475 0.440839 -0.760845
v 0.058210 0.462611 -0.760845
v -0.173712 0.455315 -0.760845
v -0.394719 0.419410 -0.760845
v -0.590925 0.357153 -0.760845
v -0.750000 0.272453 -0.760845
v -0.861950 0.170635 -0.760845
v -0.919741 0.058095 -0.760845
v -0.919741 -0.058095 -0.760845
v -0.861950 -0.170635 -0.760845
v -0.750000 -0.272453 -0.760845
v -0.590925 -0.357153 -0.760845
v -0.394719 -0.419410 -0.760845
v -0.173712 -0.455315 -0.760845
v 0.058210 -0.462611 -0.760845
v 0.286475 -0.440839 -0.760845
v 0.496739 -0.391368 -0.760845
v 0.675791 -0.317305 -0.760845
v 0.812381 -0.223305 -0.760845
v 0.897926 -0.115274 -0.760845
v 0.700336 0.000000 -0.777896
v 0.678334 0.087083 -0.777896
v 0.613709 0.168695 -0.777896
v 0.510523 0.239707 -0.777896
v 0.375259 0.295657 -0.777896
v 0.216416 0.333030 -0.777896
v 0.043974 0.349477 -0.777896
v -0.131230 0.343966 -0.777896
v -0.298189 0.316842 -0.777896
v -0.446411 0.269809 -0.777896
v -0.566584 0.205824 -0.777896
v -0.651156 0.128905 -0.777896
v -0.694814 0.043888 -0.777896
v -0.694814 -0.043888 -0.777896
v -0.651156 -0.128905 -0.777896
v -0.566584 -0.205824 -0.777896
v -0.446411 -0.269809 -0.777896
v -0.298189 -0.316842 -0.777896
v -0.131230 -0.343966 -0.777896
v 0.043974 -0.349477 -0.777896
v 0.216416 -0.333030 -0.777896
v 0.375259 -0.295657 -0.777896
v 0.510523 -0.239707 -0.777896
v 0.613709 -0.168695 -0.777896
v 0.678334 -0.087083 -0.777896
v 0.469303 0.000000 -0.790151
v 0.454559 0.058356 -0.790151
v 0.411254 0.113044 -0.790151
v 0.342107 0.160630 -0.790151
v 0.251465 0.198123 -0.790151
v 0.145023 0.223167 -0.790151
v 0.029468 0.234189 -0.790151
v -0.087939 0.230495 -0.790151
v -0.199820 0.212319 -0.790151
v -0.299145 0.180802 -0.790151
v -0.379674 0.137925 -0.790151
v -0.436347 0.086381 -0.790151
v -0.465603 0.029410 -0.790151
v -0.465603 -0.029410 -0.790151
v -0.436347 -0.086381 -0.790151
v -0.379674 -0.137925 -0.790151
v -0.299145 -0.180802 -0.790151
v -0.199820 -0.212319 -0.790151
v -0.087939 -0.230495 -0.790151
v 0.029468 -0.234189 -0.790151
v 0.145023 -0.223167 -0.790151
v 0.251465 -0.198123 -0.790151
v 0.342107 -0.160630 -0.790151
v 0.411254 -0.113044 -0.790151
v 0.454559 -0.058356 -0.790151
v 0.235377 0.000000 -0.797534
v 0.227982 0.029268 -0.797534
v 0.206263 0.056697 -0.797534
v 0.171583 0.080563 -0.797534
v 0.126121 0.099368 -0.797534
v 0.072736 0.111929 -0.797534
v 0.014779 0.117456 -0.797534
v -0.044105 0.115604 -0.797534
v -0.100219 0.106488 -0.797534
v -0.150035 0.090681 -0.797534
v -0.190424 0.069176 -0.797534
v -0.218848 0.043324 -0.797534
v -0.233521 0.014750 -0.797534
v -0.233521 -0.014750 -0.797534
v -0.218848 -0.043324 -0.797534
v -0.190424 -0.069176 -0.797534
v -0.150035 -0.090681 -0.797534
v -0.100219 -0.106488 -0.797534
v -0.044105 -0.115604 -0.797534
v 0.014779 -0.117456 -0.797534
v 0.072736 -0.111929 -0.797534
v 0.126121 -0.099368 -0.797534
v 0.171583 -0.080563 -0.797534
v 0.206263 -0.056697 -0.797534
v 0.227982 -0.029268 -0.797534
v 2.150000 1.200000 0.600000
v 2.173885 1.205465 0.609411
v 2.191695 1.212060 0.618738
v 2.198988 1.218810 0.627899
v 2.193924 1.224498 0.636812
v 2.177708 1.228146 0.645399
v 2.154274 1.229429 0.653583
v 2.129271 1.228895 0.661291
v 2.108636 1.227893 0.668455
v 2.097108 1.228213 0.675011
v 2.097059 1.231536 0.680902
v 2.107941 1.238861 0.686074
v 2.126477 1.250076 0.690483
v 2.147535 1.263844 0.694088
v 2.165447 1.277853 0.696858
v 2.175439 1.289391 0.698769
v 2.174795 1.296094 0.699803
v 2.163476 1.296679 0.699951
v 2.144047 1.291415 0.699211
v 2.120954 1.282200 0.697592
v 2.099346 1.272179 0.695106
v 2.083768 1.264977 0.691775
v 2.077052 1.263743 0.687631
v 2.079682 1.270249 0.682708
v 2.089788 1.284317 0.677051
v 2.103721 1.303721 0.670711
v 2.117063 1.324660 0.663742
v 2.125774 1.342663 0.656208
v 2.127185 1.353741 0.648175
v 2.120586 1.355459 0.639715
v 2.107279 1.347657 0.630902
v 2.090115 1.332600 0.621814
v 2.072661 1.314495 0.612533
v 2.058240 1.298478 0.603141
v 2.049105 1.289322 0.593721
v 2.045952 1.290187 0.584357
v 2.047879 1.301748 0.575131
v 2.052771 1.321948 0.566126
v 2.057977 1.346434 0.557422
v 2.061067 1.369619 0.549096
v 2.060458 1.386072 0.541221
v 2.055754 1.391907 0.533869
v 2.047707 1.385806 0.527103
v 2.037866 1.369402 0.520984
v 2.028024 1.346908 0.515567
v 2.019655 1.324094 0.510899
v 2.013497 1.306840 0.507022
v 2.009420 1.299652 0.503971
v 2.006575 1.304514 0.501771
v 2.003783 1.320373 0.500444
v 2.000000 1.343382 0.500000
v 1.994724 1.367870 0.500444
v 1.988187 1.387757 0.501771
v 1.981275 1.398085 0.503971
v 1.975207 1.396259 0.507022
v 1.971066 1.382685 0.510899
v 1.969355 1.360648 0.515567
v 1.969719 1.335469 0.520984
v 1.970948 1.313148 0.527103
v 1.971278 1.298861 0.533869
v 1.968913 1.295675 0.541221
v 1.962622 1.303820 0.549096
v 1.952218 1.320683 0.557422
v 1.938760 1.341517 0.566126
v 1.924394 1.360671 0.575131
v 1.911838 1.373028 0.584357
v 1.903651 1.375257 0.593721
v 1.901471 1.366603 0.603141
v 1.905451 1.348985 0.612533
v 1.914072 1.326439 0.621814
v 1.924416 1.304032 0.630902
v 1.932857 1.286561 0.639715
v 1.935996 1.277368 0.648175
v 1.931611 1.277572 0.656208
v 1.919345 1.285889 0.663742
v 1.900927 1.299073 0.670711
v 1.879853 1.312826 0.677051
v 1.860555 1.322937 0.682708
v 1.847292 1.326331 0.687631
v 1.843010 1.321774 0.691775
v 1.848507 1.310066 0.695106
v 1.862119 1.293704 0.697592
v 1.880047 1.276124 0.699211
v 1.897252 1.260765 0.699951
v 1.908712 1.250186 0.699803
v 1.910725 1.245488 0.698769
v 1.901907 1.246159 0.696858
v 1.883620 1.250362 0.694088
v 1.859711 1.255545 0.690483
v 1.835586 1.259193 0.686074
v 1.816879 1.259500 0.680902
v 1.808009 1.255779 0.675011
v 1.811040 1.248517 0.668455
v 1.825106 1.239093 0.661291
v 1.846588 1.229265 0.653583
v 1.869986 1.220592 0.645399
v 1.889293 1.213986 0.636812
v 1.899503 1.209500 0.627899
v 1.897890 1.206424 0.618738
v 1.884701 1.203623 0.609411
v 1.863119 1.200000 0.600000
v 1.838461 1.194923 0.590589
v 1.816851 1.188477 0.581262
v 1.803676 1.181442 0.572101
v 1.802240 1.175017 0.563188
v 1.812946 1.170374 0.554601
v 1.833211 1.168183 0.546417
v 1.858140 1.168291 0.538709
v 1.881774 1.169645 0.531545
v 1.898592 1.170538 0.524989
v 1.904883 1.169095 0.519098
v 1.899644 1.163870 0.513926
v 1.884780 1.154381 0.509517
v 1.864569 1.141394 0.505912
v 1.844543 1.126848 0.503142
v 1.830077 1.113420 0.501231
v 1.825051 1.103821 0.500197
v 1.830930 1.100012 0.500049
v 1.846470 1.102567 0.500789
v 1.868117 1.110373 0.502408
v 1.890977 1.120790 0.504894
v 1.910085 1.130254 0.508225
v 1.921643 1.135178 0.512369
v 1.923923 1.132929 0.517292
v 1.917597 1.122618 0.522949
v 1.905453 1.105453 0.529289
v 1.891590 1.084555 0.536258
v 1.880318 1.064247 0.543792
v 1.875064 1.048978 0.551825
v 1.877564 1.042156 0.560285
v 1.887532 1.045202 0.569098
v 1.902873 1.057082 0.578186
v 1.920337 1.074472 0.587467
v 1.936435 1.092517 0.596859
v 1.948344 1.106039 0.606279
v 1.954579 1.110856 0.615643
v 1.955249 1.104899 0.624869
v 1.951885 1.088814 0.633874
v 1.946894 1.065870 0.642578
v 1.942829 1.041202 0.650904
v 1.941690 1.020541 0.658779
v 1.944442 1.008768 0.666131
v 1.950871 1.008654 0.672897
v 1.959791 1.020115 0.679016
v 1.969515 1.040191 0.684433
v 1.978420 1.063747 0.689101
v 1.985441 1.084755 0.692978
v 1.990339 1.097799 0.696029
v 1.993674 1.099456 0.698229
v 1.996517 1.089166 0.699556
v 2.000000 1.069389 0.700000
v 2.004871 1.044996 0.699556
v 2.011196 1.022046 0.698229
v 2.018314 1.006263 0.696029
v 2.025064 1.001601 0.692978
v 2.030210 1.009262 0.689101
v 2.032923 1.027413 0.684433
v 2.033156 1.051670 0.679016
v 2.031781 1.076221 0.672897
v 2.030420 1.095294 0.666131
v 2.030996 1.104604 0.658779
v 2.035142 1.102390 0.650904
v 2.043625 1.089816 0.642578
v 2.055990 1.070616 0.633874
v 2.070535 1.050105 0.624869
v 2.084673 1.033819 0.615643
v 2.095589 1.026125 0.606279
v 2.101031 1.029166 0.596859
v 2.100017 1.042398 0.587467
v 2.093233 1.062812 0.578186
v 2.082993 1.085770 0.569098
v 2.072738 1.106227 0.560285
v 2.066182 1.120000 0.551825
v 2.066317 1.124778 0.543792
v 2.074553 1.120609 0.536258
v 2.090225 1.109775 0.529289
v 2.110636 1.096106 0.522949
v 2.131652 1.083933 0.517292
v 2.148712 1.076975 0.512369
v 2.158006 1.077438 0.508225
v 2.157515 1.085558 0.504894
v 2.147623 1.099675 0.502408
v 2.131124 1.116786 0.500789
v 2.112597 1.133410 0.500049
v 2.097293 1.146512 0.500197
v 2.089797 1.154246 0.501231
v 2.092822 1.156321 0.503142
v 2.106459 1.153931 0.505912
v 2.128065 1.149295 0.509517
v 2.152872 1.144963 0.513926
v 2.175150 1.143090 0.519098
v 2.189643 1.144904 0.524989
v 2.192922 1.150466 0.531545
v 2.184286 1.158807 0.538709
v 2.165987 1.168336 0.546417
v 2.142701 1.177398 0.554601
v 2.120374 1.184793 0.563188
v 2.104734 1.190100 0.572101
v 2.099842 1.193718 0.581262
v 2.107057 1.196636 0.590589
v -1.850000 1.200000 0.600000
v -1.826115 1.205465 0.609411
v -1.808305 1.212060 0.618738
v -1.801012 1.218810 0.627899
v -1.806076 1.224498 0.636812
v -1.822292 1.228146 0.645399
v -1.845726 1.229429 0.653583
v -1.870729 1.228895 0.661291
v -1.891364 1.227893 0.668455
v -1.902892 1.228213 0.675011
v -1.902941 1.231536 0.680902
v -1.892059 1.238861 0.686074
v -1.873523 1.250076 0.690483
v -1.852465 1.263844 0.694088
v -1.834553 1.277853 0.696858
v -1.824561 1.289391 0.698769
v -1.825205 1.296094 0.699803
v -1.836524 1.296679 0.699951
v -1.855953 1.291415 0.699211
v -1.879046 1.282200 0.697592
v -1.900654 1.272179 0.695106
v -1.916232 1.264977 0.691775
v -1.922948 1.263743 0.687631
v -1.920318 1.270249 0.682708
v -1.910212 1.284317 0.677051
v -1.896279 1.303721 0.670711
v -1.882937 1.324660 0.663742
v -1.874226 1.342663 0.656208
v -1.872815 1.353741 0.648175
v -1.879414 1.355459 0.639715
v -1.892721 1.347657 0.630902
v -1.909885 1.332600 0.621814
v -1.927339 1.314495 0.612533
v -1.941760 1.298478 0.603141
v -1.950895 1.289322 0.593721
v -1.954048 1.290187 0.584357
v -1.952121 1.301748 0.575131
v -1.947229 1.321948 0.566126
v -1.942023 1.346434 0.557422
v -1.938933 1.369619 0.549096
v -1.939542 1.386072 0.541221
v -1.944246 1.391907 0.533869
v -1.952293 1.385806 0.527103
v -1.962134 1.369402 0.520984
v -1.971976 1.346908 0.515567
v -1.980345 1.324094 0.510899
v -1.986503 1.306840 0.507022
v -1.990580 1.299652 0.503971
v -1.993425 1.304514 0.501771
v -1.996217 1.320373 0.500444
v -2.000000 1.343382 0.500000
v -2.005276 1.367870 0.500444
v -2.011813 1.387757 0.501771
v -2.018725 1.398085 0.503971
v -2.024793 1.396259 0.507022
v -2.028934 1.382685 0.510899
v -2.030645 1.360648 0.515567
v -2.030281 1.335469 0.520984
v -2.029052 1.313148 0.527103
v -2.028722 1.298861 0.533869
v -2.031087 1.295675 0.541221
v -2.037378 1.303820 0.549096
v -2.047782 1.320683 0.557422
v -2.061240 1.341517 0.566126
v -2.075606 1.360671 0.575131
v -2.088162 1.373028 0.584357
v -2.096349 1.375257 0.593721
v -2.098529 1.366603 0.603141
v -2.094549 1.348985 0.612533
v -2.085928 1.326439 0.621814
v -2.075584 1.304032 0.630902
v -2.067143 1.286561 0.639715
v -2.064004 1.277368 0.648175
v -2.068389 1.277572 0.656208
v -2.080655 1.285889 0.663742
v -2.099073 1.299073 0.670711
v -2.120147 1.312826 0.677051
v -2.139445 1.322937 0.682708
v -2.152708 1.326331 0.687631
v -2.156990 1.321774 0.691775
v -2.151493 1.310066 0.695106
v -2.137881 1.293704 0.697592
v -2.119953 1.276124 0.699211
v -2.102748 1.260765 0.699951
v -2.091288 1.250186 0.699803
v -2.089275 1.245488 0.698769
v -2.098093 1.246159 0.696858
v -2.116380 1.250362 0.694088
v -2.140289 1.255545 0.690483
v -2.164414 1.259193 0.686074
v -2.183121 1.259500 0.680902
v -2.191991 1.255779 0.675011
v -2.188960 1.248517 0.668455
v -2.174894 1.239093 0.661291
v -2.153412 1.229265 0.653583
v -2.130014 1.220592 0.645399
v -2.110707 1.213986 0.636812
v -2.100497 1.209500 0.627899
v -2.102110 1.206424 0.618738
v -2.115299 1.203623 0.609411
v -2.136881 1.200000 0.600000
v -2.161539 1.194923 0.590589
v -2.183149 1.188477 0.581262
v -2.196324 1.181442 0.572101
v -2.197760 1.175017 0.563188
v -2.187054 1.170374 0.554601
v -2.166789 1.168183 0.546417
v -2.141860 1.168291 0.538709
v -2.118226 1.169645 0.531545
v -2.101408 1.170538 0.524989
v -2.095117 1.169095 0.519098
v -2.100356 1.163870 0.513926
v -2.115220 1.154381 0.509517
v -2.135431 1.141394 0.505912
v -2.155457 1.126848 0.503142
v -2.169923 1.113420 0.501231
v -2.174949 1.103821 0.500197
v -2.169070 1.100012 0.500049
v -2.153530 1.102567 0.500789
v -2.131883 1.110373 0.502408
v -2.109023 1.120790 0.504894
v -2.089915 1.130254 0.508225
v -2.078357 1.135178 0.512369
v -2.076077 1.132929 0.517292
v -2.082403 1.122618 0.522949
v -2.094547 1.105453 0.529289
v -2.108410 1.084555 0.536258
v -2.119682 1.064247 0.543792
v -2.124936 1.048978 0.551825
v -2.122436 1.042156 0.560285
v -2.112468 1.045202 0.569098
v -2.097127 1.057082 0.578186
v -2.079663 1.074472 0.587467
v -2.063565 1.092517 0.596859
v -2.051656 1.106039 0.606279
v -2.045421 1.110856 0.615643
v -2.044751 1.104899 0.624869
v -2.048115 1.088814 0.633874
v -2.053106 1.065870 0.642578
v -2.057171 1.041202 0.650904
v -2.058310 1.020541 0.658779
v -2.055558 1.008768 0.666131
v -2.049129 1.008654 0.672897
v -2.040209 1.020115 0.679016
v -2.030485 1.040191 0.684433
v -2.021580 1.063747 0.689101
v -2.014559 1.084755 0.692978
v -2.009661 1.097799 0.696029
v -2.006326 1.099456 0.698229
v -2.003483 1.089166 0.699556
v -2.000000 1.069389 0.700000
v -1.995129 1.044996 0.699556
v -1.988804 1.022046 0.698229
v -1.981686 1.006263 0.696029
v -1.974936 1.001601 0.692978
v -1.969790 1.009262 0.689101
v -1.967077 1.027413 0.684433
v -1.966844 1.051670 0.679016
v -1.968219 1.076221 0.672897
v -1.969580 1.095294 0.666131
v -1.969004 1.104604 0.658779
v -1.964858 1.102390 0.650904
v -1.956375 1.089816 0.642578
v -1.944010 1.070616 0.633874
v -1.929465 1.050105 0.624869
v -1.915327 1.033819 0.615643
v -1.904411 1.026125 0.606279
v -1.898969 1.029166 0.596859
v -1.899983 1.042398 0.587467
v -1.906767 1.062812 0.578186
v -1.917007 1.085770 0.569098
v -1.927262 1.106227 0.560285
v -1.933818 1.120000 0.551825
v -1.933683 1.124778 0.543792
v -1.925447 1.120609 0.536258
v -1.909775 1.109775 0.529289
v -1.889364 1.096106 0.522949
v -1.868348 1.083933 0.517292
v -1.851288 1.076975 0.512369
v -1.841994 1.077438 0.508225
v -1.842485 1.085558 0.504894
v -1.852377 1.099675 0.502408
v -1.868876 1.116786 0.500789
v -1.887403 1.133410 0.500049
v -1.902707 1.146512 0.500197
v -1.910203 1.154246 0.501231
v -1.907178 1.156321 0.503142
v -1.893541 1.153931 0.505912
v -1.871935 1.149295 0.509517
v -1.847128 1.144963 0.513926
v -1.824850 1.143090 0.519098
v -1.810357 1.144904 0.524989
v -1.807078 1.150466 0.531545
v -1.815714 1.158807 0.538709
v -1.834013 1.168336 0.546417
v -1.857299 1.177398 0.554601
v -1.879626 1.184793 0.563188
v -1.895266 1.190100 0.572101
v -1.900158 1.193718 0.581262
v -1.892943 1.196636 0.590589
v 2.150000 -1.200000 0.600000
v 2.173885 -1.194535 0.609411
v 2.191695 -1.187940 0.618738
v 2.198988 -1.181190 0.627899
v 2.193924 -1.175502 0.636812
v 2.177708 -1.171854 0.645399
v 2.154274 -1.170571 0.653583
v 2.129271 -1.171105 0.661291
v 2.108636 -1.172107 0.668455
v 2.097108 -1.171787 0.675011
v 2.097059 -1.168464 0.680902
v 2.107941 -1.161139 0.686074
v 2.126477 -1.149924 0.690483
v 2.147535 -1.136156 0.694088
v 2.165447 -1.122147 0.696858
v 2.175439 -1.110609 0.698769
v 2.174795 -1.103906 0.699803
v 2.163476 -1.103321 0.699951
v 2.144047 -1.108585 0.699211
v 2.120954 -1.117800 0.697592
v 2.099346 -1.127821 0.695106
v 2.083768 -1.135023 0.691775
v 2.077052 -1.136257 0.687631
v 2.079682 -1.129751 0.682708
v 2.089788 -1.115683 0.677051
v 2.103721 -1.096279 0.670711
v 2.117063 -1.075340 0.663742
v 2.125774 -1.057337 0.656208
v 2.127185 -1.046259 0.648175
v 2.120586 -1.044541 0.639715
v 2.107279 -1.052343 0.630902
v 2.090115 -1.067400 0.621814
v 2.072661 -1.085505 0.612533
v 2.058240 -1.101522 0.603141
v 2.049105 -1.110678 0.593721
v 2.045952 -1.109813 0.584357
v 2.047879 -1.098252 0.575131
v 2.052771 -1.078052 0.566126
v 2.057977 -1.053566 0.557422
v 2.061067 -1.030381 0.549096
v 2.060458 -1.013928 0.541221
v 2.055754 -1.008093 0.533869
v 2.047707 -1.014194 0.527103
v 2.037866 -1.030598 0.520984
v 2.028024 -1.053092 0.515567
v 2.019655 -1.075906 0.510899
v 2.013497 -1.093160 0.507022
v 2.009420 -1.100348 0.503971
v 2.006575 -1.095486 0.501771
v 2.003783 -1.079627 0.500444
v 2.000000 -1.056618 0.500000
v 1.994724 -1.032130 0.500444
v 1.988187 -1.012243 0.501771
v 1.981275 -1.001915 0.503971
v 1.975207 -1.003741 0.507022
v 1.971066 -1.017315 0.510899
v 1.969355 -1.039352 0.515567
v 1.969719 -1.064531 0.520984
v 1.970948 -1.086852 0.527103
v 1.971278 -1.101139 0.533869
v 1.968913 -1.104325 0.541221
v 1.962622 -1.096180 0.549096
v 1.952218 -1.079317 0.557422
v 1.938760 -1.058483 0.566126
v 1.924394 -1.039329 0.575131
v 1.911838 -1.026972 0.584357
v 1.903651 -1.024743 0.593721
v 1.901471 -1.033397 0.603141
v 1.905451 -1.051015 0.612533
v 1.914072 -1.073561 0.621814
v 1.924416 -1.095968 0.630902
v 1.932857 -1.113439 0.639715
v 1.935996 -1.122632 0.648175
v 1.931611 -1.122428 0.656208
v 1.919345 -1.114111 0.663742
v 1.900927 -1.100927 0.670711
v 1.879853 -1.087174 0.677051
v 1.860555 -1.077063 0.682708
v 1.847292 -1.073669 0.687631
v 1.843010 -1.078226 0.691775
v 1.848507 -1.089934 0.695106
v 1.862119 -1.106296 0.697592
v 1.880047 -1.123876 0.699211
v 1.897252 -1.139235 0.699951
v 1.908712 -1.149814 0.699803
v 1.910725 -1.154512 0.698769
v 1.901907 -1.153841 0.696858
v 1.883620 -1.149638 0.694088
v 1.859711 -1.144455 0.690483
v 1.835586 -1.140807 0.686074
v 1.816879 -1.140500 0.680902
v 1.808009 -1.144221 0.675011
v 1.811040 -1.151483 0.668455
v 1.825106 -1.160907 0.661291
v 1.846588 -1.170735 0.653583
v 1.869986 -1.179408 0.645399
v 1.889293 -1.186014 0.636812
v 1.899503 -1.190500 0.627899
v 1.897890 -1.193576 0.618738
v 1.884701 -1.196377 0.609411
v 1.863119 -1.200000 0.600000
v 1.838461 -1.205077 0.590589
v 1.816851 -1.211523 0.581262
v 1.803676 -1.218558 0.572101
v 1.802240 -1.224983 0.563188
v 1.812946 -1.229626 0.554601
v 1.833211 -1.231817 0.546417
v 1.858140 -1.231709 0.538709
v 1.881774 -1.230355 0.531545
v 1.898592 -1.229462 0.524989
v 1.904883 -1.230905 0.519098
v 1.899644 -1.236130 0.513926
v 1.884780 -1.245619 0.509517
v 1.864569 -1.258606 0.505912
v 1.844543 -1.273152 0.503142
v 1.830077 -1.286580 0.501231
v 1.825051 -1.296179 0.500197
v 1.830930 -1.299988 0.500049
v 1.846470 -1.297433 0.500789
v 1.868117 -1.289627 0.502408
v 1.890977 -1.279210 0.504894
v 1.910085 -1.269746 0.508225
v 1.921643 -1.264822 0.512369
v 1.923923 -1.267071 0.517292
v 1.917597 -1.277382 0.522949
v 1.905453 -1.294547 0.529289
v 1.891590 -1.315445 0.536258
v 1.880318 -1.335753 0.543792
v 1.875064 -1.351022 0.551825
v 1.877564 -1.357844 0.560285
v 1.887532 -1.354798 0.569098
v 1.902873 -1.342918 0.578186
v 1.920337 -1.325528 0.587467
v 1.936435 -1.307483 0.596859
v 1.948344 -1.293961 0.606279
v 1.954579 -1.289144 0.615643
v 1.955249 -1.295101 0.624869
v 1.951885 -1.311186 0.633874
v 1.946894 -1.334130 0.642578
v 1.942829 -1.358798 0.650904
v 1.941690 -1.379459 0.658779
v 1.944442 -1.391232 0.666131
v 1.950871 -1.391346 0.672897
v 1.959791 -1.379885 0.679016
v 1.969515 -1.359809 0.684433
v 1.978420 -1.336253 0.689101
v 1.985441 -1.315245 0.692978
v 1.990339 -1.302201 0.696029
v 1.993674 -1.300544 0.698229
v 1.996517 -1.310834 0.699556
v 2.000000 -1.330611 0.700000
v 2.004871 -1.355004 0.699556
v 2.011196 -1.377954 0.698229
v 2.018314 -1.393737 0.696029
v 2.025064 -1.398399 0.692978
v 2.030210 -1.390738 0.689101
v 2.032923 -1.372587 0.684433
v 2.033156 -1.348330 0.679016
v 2.031781 -1.323779 0.672897
v 2.030420 -1.304706 0.666131
v 2.030996 -1.295396 0.658779
v 2.035142 -1.297610 0.650904
v 2.043625 -1.310184 0.642578
v 2.055990 -1.329384 0.633874
v 2.070535 -1.349895 0.624869
v 2.084673 -1.366181 0.615643
v 2.095589 -1.373875 0.606279
v 2.101031 -1.370834 0.596859
v 2.100017 -1.357602 0.587467
v 2.093233 -1.337188 0.578186
v 2.082993 -1.314230 0.569098
v 2.072738 -1.293773 0.560285
v 2.066182 -1.280000 0.551825
v 2.066317 -1.275222 0.543792
v 2.074553 -1.279391 0.536258
v 2.090225 -1.290225 0.529289
v 2.110636 -1.303894 0.522949
v 2.131652 -1.316067 0.517292
v 2.148712 -1.323025 0.512369
v 2.158006 -1.322562 0.508225
v 2.157515 -1.314442 0.504894
v 2.147623 -1.300325 0.502408
v 2.131124 -1.283214 0.500789
v 2.112597 -1.266590 0.500049
v 2.097293 -1.253488 0.500197
v 2.089797 -1.245754 0.501231
v 2.092822 -1.243679 0.503142
v 2.106459 -1.246069 0.505912
v 2.128065 -1.250705 0.509517
v 2.152872 -1.255037 0.513926
v 2.175150 -1.256910 0.519098
v 2.189643 -1.255096 0.524989
v 2.192922 -1.249534 0.531545
v 2.184286 -1.241193 0.538709
v 2.165987 -1.231664 0.546417
v 2.142701 -1.222602 0.554601
v 2.120374 -1.215207 0.563188
v 2.104734 -1.209900 0.572101
v 2.099842 -1.206282 0.581262
v 2.107057 -1.203364 0.590589
v -1.850000 -1.200000 0.600000
v -1.826115 -1.194535 0.609411
v -1.808305 -1.187940 0.618738
v -1.801012 -1.181190 0.627899
v -1.806076 -1.175502 0.636812
v -1.822292 -1.171854 0.645399
v -1.845726 -1.170571 0.653583
v -1.870729 -1.171105 0.661291
v -1.891364 -1.172107 0.668455
v -1.902892 -1.171787 0.675011
v -1.902941 -1.168464 0.680902
v -1.892059 -1.161139 0.686074
v -1.873523 -1.149924 0.690483
v -1.852465 -1.136156 0.694088
v -1.834553 -1.122147 0.696858
v -1.824561 -1.110609 0.698769
v -1.825205 -1.103906 0.699803
v -1.836524 -1.103321 0.699951
v -1.855953 -1.108585 0.699211
v -1.879046 -1.117800 0.697592
v -1.900654 -1.127821 0.695106
v -1.916232 -1.135023 0.691775
v -1.922948 -1.136257 0.687631
v -1.920318 -1.129751 0.682708
v -1.910212 -1.115683 0.677051
v -1.896279 -1.096279 0.670711
v -1.882937 -1.075340 0.663742
v -1.874226 -1.057337 0.656208
v -1.872815 -1.046259 0.648175
v -1.879414 -1.044541 0.639715
v -1.892721 -1.052343 0.630902
v -1.909885 -1.067400 0.621814
v -1.927339 -1.085505 0.612533
v -1.941760 -1.101522 0.603141
v -1.950895 -1.110678 0.593721
v -1.954048 -1.109813 0.584357
v -1.952121 -1.098252 0.575131
v -1.947229 -1.078052 0.566126
v -1.942023 -1.053566 0.557422
v -1.938933 -1.030381 0.549096
v -1.939542 -1.013928 0.541221
v -1.944246 -1.008093 0.533869
v -1.952293 -1.014194 0.527103
v -1.962134 -1.030598 0.520984
v -1.971976 -1.053092 0.515567
v -1.980345 -1.075906 0.510899
v -1.986503 -1.093160 0.507022
v -1.990580 -1.100348 0.503971
v -1.993425 -1.095486 0.501771
v -1.996217 -1.079627 0.500444
v -2.000000 -1.056618 0.500000
v -2.005276 -1.032130 0.500444
v -2.011813 -1.012243 0.501771
v -2.018725 -1.001915 0.503971
v -2.024793 -1.003741 0.507022
v -2.028934 -1.017315 0.510899
v -2.030645 -1.039352 0.515567
v -2.030281 -1.064531 0.520984
v -2.029052 -1.086852 0.527103
v -2.028722 -1.101139 0.533869
v -2.031087 -1.104325 0.541221
v -2.037378 -1.096180 0.549096
v -2.047782 -1.079317 0.557422
v -2.061240 -1.058483 0.566126
v -2.075606 -1.039329 0.575131
v -2.088162 -1.026972 0.584357
v -2.096349 -1.024743 0.593721
v -2.098529 -1.033397 0.603141
v -2.094549 -1.051015 0.612533
v -2.085928 -1.073561 0.621814
v -2.075584 -1.095968 0.630902
v -2.067143 -1.113439 0.639715
v -2.064004 -1.122632 0.648175
v -2.068389 -1.122428 0.656208
v -2.080655 -1.114111 0.663742
v -2.099073 -1.100927 0.670711
v -2.120147 -1.087174 0.677051
v -2.139445 -1.077063 0.682708
v -2.152708 -1.073669 0.687631
v -2.156990 -1.078226 0.691775
v -2.151493 -1.089934 0.695106
v -2.137881 -1.106296 0.697592
v -2.119953 -1.123876 0.699211
v -2.102748 -1.139235 0.699951
v -2.091288 -1.149814 0.699803
v -2.089275 -1.154512 0.698769
v -2.098093 -1.153841 0.696858
v -2.116380 -1.149638 0.694088
v -2.140289 -1.144455 0.690483
v -2.164414 -1.140807 0.686074
v -2.183121 -1.140500 0.680902
v -2.191991 -1.144221 0.675011
v -2.188960 -1.151483 0.668455
v -2.174894 -1.160907 0.661291
v -2.153412 -1.170735 0.653583
v -2.130014 -1.179408 0.645399
v -2.110707 -1.186014 0.636812
v -2.100497 -1.190500 0.627899
v -2.102110 -1.193576 0.618738
v -2.115299 -1.196377 0.609411
v -2.136881 -1.200000 0.600000
v -2.161539 -1.205077 0.590589
v -2.183149 -1.211523 0.581262
v -2.196324 -1.218558 0.572101
v -2.197760 -1.224983 0.563188
v -2.187054 -1.229626 0.554601
v -2.166789 -1.231817 0.546417
v -2.141860 -1.231709 0.538709
v -2.118226 -1.230355 0.531545
v -2.101408 -1.229462 0.524989
v -2.095117 -1.230905 0.519098
v -2.100356 -1.236130 0.513926
v -2.115220 -1.245619 0.509517
v -2.135431 -1.258606 0.505912
v -2.155457 -1.273152 0.503142
v -2.169923 -1.286580 0.501231
v -2.174949 -1.296179 0.500197
v -2.169070 -1.299988 0.500049
v -2.153530 -1.297433 0.500789
v -2.131883 -1.289627 0.502408
v -2.109023 -1.279210 0.504894
v -2.089915 -1.269746 0.508225
v -2.078357 -1.264822 0.512369
v -2.076077 -1.267071 0.517292
v -2.082403 -1.277382 0.522949
v -2.094547 -1.294547 0.529289
v -2.108410 -1.315445 0.536258
v -2.119682 -1.335753 0.543792
v -2.124936 -1.351022 0.551825
v -2.122436 -1.357844 0.560285
v -2.112468 -1.354798 0.569098
v -2.097127 -1.342918 0.578186
v -2.079663 -1.325528 0.587467
v -2.063565 -1.307483 0.596859
v -2.051656 -1.293961 0.606279
v -2.045421 -1.289144 0.615643
v -2.044751 -1.295101 0.624869
v -2.048115 -1.311186 0.633874
v -2.053106 -1.334130 0.642578
v -2.057171 -1.358798 0.650904
v -2.058310 -1.379459 0.658779
v -2.055558 -1.391232 0.666131
v -2.049129 -1.391346 0.672897
v -2.040209 -1.379885 0.679016
v -2.030485 -1.359809 0.684433
v -2.021580 -1.336253 0.689101
v -2.014559 -1.315245 0.692978
v -2.009661 -1.302201 0.696029
v -2.006326 -1.300544 0.698229
v -2.003483 -1.310834 0.699556
v -2.000000 -1.330611 0.700000
v -1.995129 -1.355004 0.699556
v -1.988804 -1.377954 0.698229
v -1.981686 -1.393737 0.696029
v -1.974936 -1.398399 0.692978
v -1.969790 -1.390738 0.689101
v -1.967077 -1.372587 0.684433
v -1.966844 -1.348330 0.679016
v -1.968219 -1.323779 0.672897
v -1.969580 -1.304706 0.666131
v -1.969004 -1.295396 0.658779
v -1.964858 -1.297610 0.650904
v -1.956375 -1.310184 0.642578
v -1.944010 -1.329384 0.633874
v -1.929465 -1.349895 0.624869
v -1.915327 -1.366181 0.615643
v -1.904411 -1.373875 0.606279
v -1.898969 -1.370834 0.596859
v -1.899983 -1.357602 0.587467
v -1.906767 -1.337188 0.578186
v -1.917007 -1.314230 0.569098
v -1.927262 -1.293773 0.560285
v -1.933818 -1.280000 0.551825
v -1.933683 -1.275222 0.543792
v -1.925447 -1.279391 0.536258
v -1.909775 -1.290225 0.529289
v -1.889364 -1.303894 0.522949
v -1.868348 -1.316067 0.517292
v -1.851288 -1.323025 0.512369
v -1.841994 -1.322562 0.508225
v -1.842485 -1.314442 0.504894
v -1.852377 -1.300325 0.502408
v -1.868876 -1.283214 0.500789
v -1.887403 -1.266590 0.500049
v -1.902707 -1.253488 0.500197
v -1.910203 -1.245754 0.501231
v -1.907178 -1.243679 0.503142
v -1.893541 -1.246069 0.505912
v -1.871935 -1.250705 0.509517
v -1.847128 -1.255037 0.513926
v -1.824850 -1.256910 0.519098
v -1.810357 -1.255096 0.524989
v -1.807078 -1.249534 0.531545
v -1.815714 -1.241193 0.538709
v -1.834013 -1.231664 0.546417
v -1.857299 -1.222602 0.554601
v -1.879626 -1.215207 0.563188
v -1.895266 -1.209900 0.572101
v -1.900158 -1.206282 0.581262
v -1.892943 -1.203364 0.590589
v 3.400000 0.000000 -0.900000
v 3.399482 0.032042 -0.900000
v 3.397928 0.064071 -0.900000
v 3.395339 0.096072 -0.900000
v 3.391717 0.128033 -0.900000
v 3.387064 0.159941 -0.900000
v 3.381384 0.191781 -0.900000
v 3.374680 0.223541 -0.900000
v 3.366956 0.255207 -0.900000
v 3.358218 0.286767 -0.900000
v 3.348472 0.318208 -0.900000
v 3.337724 0.349516 -0.900000
v 3.325981 0.380679 -0.900000
v 3.313250 0.411685 -0.900000
v 3.299541 0.442521 -0.900000
v 3.284861 0.473175 -0.900000
v 3.269221 0.503636 -0.900000
v 3.252631 0.533891 -0.900000
v 3.235100 0.563930 -0.900000
v 3.216641 0.593741 -0.900000
v 3.197265 0.623313 -0.900000
v 3.176984 0.652635 -0.900000
v 3.155811 0.681697 -0.900000
v 3.133758 0.710489 -0.900000
v 3.110840 0.739001 -0.900000
v 3.087071 0.767224 -0.900000
v 3.062464 0.795148 -0.900000
v 3.037035 0.822764 -0.900000
v 3.010798 0.850064 -0.900000
v 2.983770 0.877040 -0.900000
v 2.955965 0.903684 -0.900000
v 2.927400 0.929987 -0.900000
v 2.898091 0.955943 -0.900000
v 2.868055 0.981546 -0.900000
v 2.837308 1.006787 -0.900000
v 2.805867 1.031662 -0.900000
v 2.773749 1.056165 -0.900000
v 2.740971 1.080289 -0.900000
v 2.707552 1.104030 -0.900000
v 2.673507 1.127383 -0.900000
v 2.638854 1.150344 -0.900000
v 2.603612 1.172908 -0.900000
v 2.567797 1.195072 -0.900000
v 2.531426 1.216833 -0.900000
v 2.494518 1.238187 -0.900000
v 2.457090 1.259132 -0.900000
v 2.419158 1.279665 -0.900000
v 2.380741 1.299784 -0.900000
v 2.341854 1.319488 -0.900000
v 2.302516 1.338776 -0.900000
v 2.262742 1.357645 -0.900000
v 2.222549 1.376096 -0.900000
v 2.181954 1.394127 -0.900000
v 2.140973 1.411739 -0.900000
v 2.099621 1.428932 -0.900000
v 2.057915 1.445705 -0.900000
v 2.015868 1.462060 -0.900000
v 1.973498 1.477997 -0.900000
v 1.930818 1.493517 -0.900000
v 1.887842 1.508622 -0.900000
v 1.844586 1.523313 -0.900000
v 1.801062 1.537591 -0.900000
v 1.757283 1.551458 -0.900000
v 1.713264 1.564917 -0.900000
v 1.669017 1.577970 -0.900000
v 1.624554 1.590618 -0.900000
v 1.579886 1.602865 -0.900000
v 1.535026 1.614712 -0.900000
v 1.489984 1.626163 -0.900000
v 1.444772 1.637220 -0.900000
v 1.399400 1.647886 -0.900000
v 1.353877 1.658164 -0.900000
v 1.308213 1.668057 -0.900000
v 1.262418 1.677568 -0.900000
v 1.216500 1.686699 -0.900000
v 1.170467 1.695455 -0.900000
v 1.124328 1.703838 -0.900000
v 1.078090 1.711850 -0.900000
v 1.031761 1.719496 -0.900000
v 0.985347 1.726777 -0.900000
v 0.938854 1.733698 -0.900000
v 0.892290 1.740260 -0.900000
v 0.845660 1.746468 -0.900000
v 0.798968 1.752322 -0.900000
v 0.752222 1.757827 -0.900000
v 0.705425 1.762984 -0.900000
v 0.658582 1.767796 -0.900000
v 0.611698 1.772265 -0.900000
v 0.564776 1.776395 -0.900000
v 0.517820 1.780185 -0.900000
v 0.470835 1.783640 -0.900000
v 0.423823 1.786760 -0.900000
v 0.376787 1.789547 -0.900000
v 0.329731 1.792002 -0.900000
v 0.282658 1.794128 -0.900000
v 0.235570 1.795924 -0.900000
v 0.188471 1.797392 -0.900000
v 0.141361 1.798534 -0.900000
v 0.094245 1.799348 -0.900000
v 0.047124 1.799837 -0.900000
v 0.000000 1.800000 -0.900000
v -0.047124 1.799837 -0.900000
v -0.094245 1.799348 -0.900000
v -0.141361 1.798534 -0.900000
v -0.188471 1.797392 -0.900000
v -0.235570 1.795924 -0.900000
v -0.282658 1.794128 -0.900000
v -0.329731 1.792002 -0.900000
v -0.376787 1.789547 -0.900000
v -0.423823 1.786760 -0.900000
v -0.470835 1.783640 -0.900000
v -0.517820 1.780185 -0.900000
v -0.564776 1.776395 -0.900000
v -0.611698 1.772265 -0.900000
v -0.658582 1.767796 -0.900000
v -0.705425 1.762984 -0.900000
v -0.752222 1.757827 -0.900000
v -0.798968 1.752322 -0.900000
v -0.845660 1.746468 -0.900000
v -0.892290 1.740260 -0.900000
v -0.938854 1.733698 -0.900000
v -0.985347 1.726777 -0.900000
v -1.031761 1.719496 -0.900000
v -1.078090 1.711850 -0.900000
v -1.124328 1.703838 -0.900000
v -1.170467 1.695455 -0.900000
v -1.216500 1.686699 -0.900000
v -1.262418 1.677568 -0.900000
v -1.308213 1.668057 -0.900000
v -1.353877 1.658164 -0.900000
v -1.399400 1.647886 -0.900000
v -1.444772 1.637220 -0.900000
v -1.489984 1.626163 -0.900000
v -1.535026 1.614712 -0.900000
v -1.579886 1.602865 -0.900000
v -1.624554 1.590618 -0.900000
v -1.669017 1.577970 -0.900000
v -1.713264 1.564917 -0.900000
v -1.757283 1.551458 -0.900000
v -1.801062 1.537591 -0.900000
v -1.844586 1.523313 -0.900000
v -1.887842 1.508622 -0.900000
v -1.930818 1.493517 -0.900000
v -1.973498 1.477997 -0.900000
v -2.015868 1.462060 -0.900000
v -2.057915 1.445705 -0.900000
v -2.099621 1.428932 -0.900000
v -2.140973 1.411739 -0.900000
v -2.181954 1.394127 -0.900000
v -2.222549 1.376096 -0.900000
v -2.262742 1.357645 -0.900000
v -2.302516 1.338776 -0.900000
v -2.341854 1.319488 -0.900000
v -2.380741 1.299784 -0.900000
v -2.419158 1.279665 -0.900000
v -2.457090 1.259132 -0.900000
v -2.494518 1.238187 -0.900000
v -2.531426 1.216833 -0.900000
v -2.567797 1.195072 -0.900000
v -2.603612 1.172908 -0.900000
v -2.638854 1.150344 -0.900000
v -2.673507 1.127383 -0.900000
v -2.707552 1.104030 -0.900000
v -2.740971 1.080289 -0.900000
v -2.773749 1.056165 -0.900000
v -2.805867 1.031662 -0.900000
v -2.837308 1.006787 -0.900000
v -2.868055 0.981546 -0.900000
v -2.898091 0.955943 -0.900000
v -2.927400 0.929987 -0.900000
v -2.955965 0.903684 -0.900000
v -2.983770 0.877040 -0.900000
v -3.010798 0.850064 -0.900000
v -3.037035 0.822764 -0.900000
v -3.062464 0.795148 -0.900000
v -3.087071 0.767224 -0.900000
v -3.110840 0.739001 -0.900000
v -3.133758 0.710489 -0.900000
v -3.155811 0.681697 -0.900000
v -3.176984 0.652635 -0.900000
v -3.197265 0.623313 -0.900000
v -3.216641 0.593741 -0.900000
v -3.235100 0.563930 -0.900000
v -3.252631 0.533891 -0.900000
v -3.269221 0.503636 -0.900000
v -3.284861 0.473175 -0.900000
v -3.299541 0.442521 -0.900000
v -3.313250 0.411685 -0.900000
v -3.325981 0.380679 -0.900000
v -3.337724 0.349516 -0.900000
v -3.348472 0.318208 -0.900000
v -3.358218 0.286767 -0.900000
v -3.366956 0.255207 -0.900000
v -3.374680 0.223541 -0.900000
v -3.381384 0.191781 -0.900000
v -3.387064 0.159941 -0.900000
v -3.391717 0.128033 -0.900000
v -3.395339 0.096072 -0.900000
v -3.397928 0.064071 -0.900000
v -3.399482 0.032042 -0.900000
v -3.400000 0.000000 -0.900000
v -3.399482 -0.032042 -0.900000
v -3.397928 -0.064071 -0.900000
v -3.395339 -0.096072 -0.900000
v -3.391717 -0.128033 -0.900000
v -3.387064 -0.159941 -0.900000
v -3.381384 -0.191781 -0.900000
v -3.374680 -0.223541 -0.900000
v -3.366956 -0.255207 -0.900000
v -3.358218 -0.286767 -0.900000
v -3.348472 -0.318208 -0.900000
v -3.337724 -0.349516 -0.900000
v -3.325981 -0.380679 -0.900000
v -3.313250 -0.411685 -0.900000
v -3.299541 -0.442521 -0.900000
v -3.284861 -0.473175 -0.900000
v -3.269221 -0.503636 -0.900000
v -3.252631 -0.533891 -0.900000
v -3.235100 -0.563930 -0.900000
v -3.216641 -0.593741 -0.900000
v -3.197265 -0.623313 -0.900000
v -3.176984 -0.652635 -0.900000
v -3.155811 -0.681697 -0.900000
v -3.133758 -0.710489 -0.900000
v -3.110840 -0.739001 -0.900000
v -3.087071 -0.767224 -0.900000
v -3.062464 -0.795148 -0.900000
v -3.037035 -0.822764 -0.900000
v -3.010798 -0.850064 -0.900000
v -2.983770 -0.877040 -0.900000
v -2.955965 -0.903684 -0.900000
v -2.927400 -0.929987 -0.900000
v -2.898091 -0.955943 -0.900000
v -2.868055 -0.981546 -0.900000
v -2.837308 -1.006787 -0.900000
v -2.805867 -1.031662 -0.900000
v -2.773749 -1.056165 -0.900000
v -2.740971 -1.080289 -0.900000
v -2.707552 -1.104030 -0.900000
v -2.673507 -1.127383 -0.900000
v -2.638854 -1.150344 -0.900000
v -2.603612 -1.172908 -0.900000
v -2.567797 -1.195072 -0.900000
v -2.531426 -1.216833 -0.900000
v -2.494518 -1.238187 -0.900000
v -2.457090 -1.259132 -0.900000
v -2.419158 -1.279665 -0.900000
v -2.380741 -1.299784 -0.900000
v -2.341854 -1.319488 -0.900000
v -2.302516 -1.338776 -0.900000
v -2.262742 -1.357645 -0.900000
v -2.222549 -1.376096 -0.900000
v -2.181954 -1.394127 -0.900000
v -2.140973 -1.411739 -0.900000
v -2.099621 -1.428932 -0.900000
v -2.057915 -1.445705 -0.900000
v -2.015868 -1.462060 -0.900000
v -1.973498 -1.477997 -0.900000
v -1.930818 -1.493517 -0.900000
v -1.887842 -1.508622 -0.900000
v -1.844586 -1.523313 -0.900000
v -1.801062 -1.537591 -0.900000
v -1.757283 -1.551458 -0.900000
v -1.713264 -1.564917 -0.900000
v -1.669017 -1.577970 -0.900000
v -1.624554 -1.590618 -0.900000
v -1.579886 -1.602865 -0.900000
v -1.535026 -1.614712 -0.900000
v -1.489984 -1.626163 -0.900000
v -1.444772 -1.637220 -0.900000
v -1.399400 -1.647886 -0.900000
v -1.353877 -1.658164 -0.900000
v -1.308213 -1.668057 -0.900000
v -1.262418 -1.677568 -0.900000
v -1.216500 -1.686699 -0.900000
v -1.170467 -1.695455 -0.900000
v -1.124328 -1.703838 -0.900000
v -1.078090 -1.711850 -0.900000
v -1.031761 -1.719496 -0.900000
v -0.985347 -1.726777 -0.900000
v -0.938854 -1.733698 -0.900000
v -0.892290 -1.740260 -0.900000
v -0.845660 -1.746468 -0.900000
v -0.798968 -1.752322 -0.900000
v -0.752222 -1.757827 -0.900000
v -0.705425 -1.762984 -0.900000
v -0.658582 -1.767796 -0.900000
v -0.611698 -1.772265 -0.900000
v -0.564776 -1.776395 -0.900000
v -0.517820 -1.780185 -0.900000
v -0.470835 -1.783640 -0.900000
v -0.423823 -1.786760 -0.900000
v -0.376787 -1.789547 -0.900000
v -0.329731 -1.792002 -0.900000
v -0.282658 -1.794128 -0.900000
v -0.235570 -1.795924 -0.900000
v -0.188471 -1.797392 -0.900000
v -0.141361 -1.798534 -0.900000
v -0.094245 -1.799348 -0.900000
v -0.047124 -1.799837 -0.900000
v -0.000000 -1.800000 -0.900000
v 0.047124 -1.799837 -0.900000
v 0.094245 -1.799348 -0.900000
v 0.141361 -1.798534 -0.900000
v 0.188471 -1.797392 -0.900000
v 0.235570 -1.795924 -0.900000
v 0.282658 -1.794128 -0.900000
v 0.329731 -1.792002 -0.900000
v 0.376787 -1.789547 -0.900000
v 0.423823 -1.786760 -0.900000
v 0.470835 -1.783640 -0.900000
v 0.517820 -1.780185 -0.900000
v 0.564776 -1.776395 -0.900000
v 0.611698 -1.772265 -0.900000
v 0.658582 -1.767796 -0.900000
v 0.705425 -1.762984 -0.900000
v 0.752222 -1.757827 -0.900000
v 0.798968 -1.752322 -0.900000
v 0.845660 -1.746468 -0.900000
v 0.892290 -1.740260 -0.900000
v 0.938854 -1.733698 -0.900000
v 0.985347 -1.726777 -0.900000
v 1.031761 -1.719496 -0.900000
v 1.078090 -1.711850 -0.900000
v 1.124328 -1.703838 -0.900000
v 1.170467 -1.695455 -0.900000
v 1.216500 -1.686699 -0.900000
v 1.262418 -1.677568 -0.900000
v 1.308213 -1.668057 -0.900000
v 1.353877 -1.658164 -0.900000
v 1.399400 -1.647886 -0.900000
v 1.444772 -1.637220 -0.900000
v 1.489984 -1.626163 -0.900000
v 1.535026 -1.614712 -0.900000
v 1.579886 -1.602865 -0.900000
v 1.624554 -1.590618 -0.900000
v 1.669017 -1.577970 -0.900000
v 1.713264 -1.564917 -0.900000
v 1.757283 -1.551458 -0.900000
v 1.801062 -1.537591 -0.900000
v 1.844586 -1.523313 -0.900000
v 1.887842 -1.508622 -0.900000
v 1.930818 -1.493517 -0.900000
v 1.973498 -1.477997 -0.900000
v 2.015868 -1.462060 -0.900000
v 2.057915 -1.445705 -0.900000
v 2.099621 -1.428932 -0.900000
v 2.140973 -1.411739 -0.900000
v 2.181954 -1.394127 -0.900000
v 2.222549 -1.376096 -0.900000
v 2.262742 -1.357645 -0.900000
v 2.302516 -1.338776 -0.900000
v 2.341854 -1.319488 -0.900000
v 2.380741 -1.299784 -0.900000
v 2.419158 -1.279665 -0.900000
v 2.457090 -1.259132 -0.900000
v 2.494518 -1.238187 -0.900000
v 2.531426 -1.216833 -0.900000
v 2.567797 -1.195072 -0.900000
v 2.603612 -1.172908 -0.900000
v 2.638854 -1.150344 -0.900000
v 2.673507 -1.127383 -0.900000
v 2.707552 -1.104030 -0.900000
v 2.740971 -1.080289 -0.900000
v 2.773749 -1.056165 -0.900000
v 2.805867 -1.031662 -0.900000
v 2.837308 -1.006787 -0.900000
v 2.868055 -0.981546 -0.900000
v 2.898091 -0.955943 -0.900000
v 2.927400 -0.929987 -0.900000
v 2.955965 -0.903684 -0.900000
v 2.983770 -0.877040 -0.900000
v 3.010798 -0.850064 -0.900000
v 3.037035 -0.822764 -0.900000
v 3.062464 -0.795148 -0.900000
v 3.087071 -0.767224 -0.900000
v 3.110840 -0.739001 -0.900000
v 3.133758 -0.710489 -0.900000
v 3.155811 -0.681697 -0.900000
v 3.176984 -0.652635 -0.900000
v 3.197265 -0.623313 -0.900000
v 3.216641 -0.593741 -0.900000
v 3.235100 -0.563930 -0.900000
v 3.252631 -0.533891 -0.900000
v 3.269221 -0.503636 -0.900000
v 3.284861 -0.473175 -0.900000
v 3.299541 -0.442521 -0.900000
v 3.313250 -0.411685 -0.900000
v 3.325981 -0.380679 -0.900000
v 3.337724 -0.349516 -0.900000
v 3.348472 -0.318208 -0.900000
v 3.358218 -0.286767 -0.900000
v 3.366956 -0.255207 -0.900000
v 3.374680 -0.223541 -0.900000
v 3.381384 -0.191781 -0.900000
v 3.387064 -0.159941 -0.900000
v 3.391717 -0.128033 -0.900000
v 3.395339 -0.096072 -0.900000
v 3.397928 -0.064071 -0.900000
v 3.399482 -0.032042 -0.900000
v 0.700000 0.000000 -0.050000
v 0.699880 0.011780 0.000000
v 0.699520 0.023551 0.050000
v 0.698921 0.035307 -0.050000
v 0.698083 0.047038 0.000000
v 0.697006 0.058737 0.050000
v 0.695691 0.070396 -0.050000
v 0.694139 0.082006 0.000000
v 0.692352 0.093560 0.050000
v 0.690329 0.105050 -0.050000
v 0.688074 0.116469 0.000000
v 0.685587 0.127807 0.050000
v 0.682870 0.139058 -0.050000
v 0.679925 0.150213 0.000000
v 0.676753 0.161266 0.050000
v 0.673358 0.172208 -0.050000
v 0.669741 0.183031 0.000000
v 0.665905 0.193730 0.050000
v 0.661852 0.204296 -0.050000
v 0.657586 0.214721 0.000000
v 0.653109 0.225000 0.050000
v 0.648424 0.235124 -0.050000
v 0.643535 0.245088 0.000000
v 0.638444 0.254883 0.050000
v 0.633156 0.264503 -0.050000
v 0.627674 0.273943 0.000000
v 0.622001 0.283194 0.050000
v 0.616142 0.292252 -0.050000
v 0.610101 0.301109 0.000000
v 0.603881 0.309760 0.050000
v 0.597487 0.318198 -0.050000
v 0.590924 0.326418 0.000000
v 0.584196 0.334415 0.050000
v 0.577307 0.342183 -0.050000
v 0.570262 0.349716 0.000000
v 0.563067 0.357009 0.050000
v 0.555725 0.364058 -0.050000
v 0.548242 0.370857 0.000000
v 0.540624 0.377402 0.050000
v 0.532874 0.383688 -0.050000
v 0.525000 0.389711 0.000000
v 0.517006 0.395468 0.050000
v 0.508897 0.400953 -0.050000
v 0.500679 0.406163 0.000000
v 0.492358 0.411095 0.050000
v 0.483939 0.415746 -0.050000
v 0.475429 0.420111 0.000000
v 0.466832 0.424189 0.050000
v 0.458156 0.427975 -0.050000
v 0.449405 0.431469 0.000000
v 0.440587 0.434667 0.050000
v 0.431706 0.437566 -0.050000
v 0.422769 0.440166 0.000000
v 0.413782 0.442465 0.050000
v 0.404752 0.444460 -0.050000
v 0.395684 0.446150 0.000000
v 0.386585 0.447535 0.050000
v 0.377461 0.448613 -0.050000
v 0.368318 0.449383 0.000000
v 0.359162 0.449846 0.050000
v 0.100000 0.450000 -0.050000
v 0.100000 0.449846 0.000000
v 0.100000 0.449383 0.050000
v 0.100000 0.448613 -0.050000
v 0.100000 0.447535 0.000000
v 0.100000 0.446150 0.050000
v 0.100000 0.444460 -0.050000
v 0.100000 0.442465 0.000000
v 0.100000 0.440166 0.050000
v 0.100000 0.437566 -0.050000
v 0.100000 0.434667 0.000000
v 0.100000 0.431469 0.050000
v 0.100000 0.427975 -0.050000
v 0.100000 0.424189 0.000000
v 0.100000 0.420111 0.050000
v 0.100000 0.415746 -0.050000
v 0.100000 0.411095 0.000000
v 0.100000 0.406163 0.050000
v 0.100000 0.400953 -0.050000
v 0.100000 0.395468 0.000000
v 0.100000 0.389711 0.050000
v 0.100000 0.383688 -0.050000
v 0.100000 0.377402 0.000000
v 0.100000 0.370857 0.050000
v 0.100000 0.364058 -0.050000
v 0.100000 0.357009 0.000000
v 0.100000 0.349716 0.050000
v 0.100000 0.342183 -0.050000
v 0.100000 0.334415 0.000000
v 0.100000 0.326418 0.050000
v 0.100000 0.318198 -0.050000
v 0.100000 0.309760 0.000000
v 0.100000 0.301109 0.050000
v 0.100000 0.292252 -0.050000
v 0.100000 0.283194 0.000000
v 0.100000 0.273943 0.050000
v 0.100000 0.264503 -0.050000
v 0.100000 0.254883 0.000000
v 0.100000 0.245088 0.050000
v 0.100000 0.235124 -0.050000
v 0.100000 0.225000 0.000000
v 0.100000 0.214721 0.050000
v 0.100000 0.204296 -0.050000
v 0.100000 0.193730 0.000000
v 0.100000 0.183031 0.050000
v 0.100000 0.172208 -0.050000
v 0.100000 0.161266 0.000000
v 0.100000 0.150213 0.050000
v 0.100000 0.139058 -0.050000
v 0.100000 0.127807 0.000000
v 0.100000 0.116469 0.050000
v 0.100000 0.105050 -0.050000
v 0.100000 0.093560 0.000000
v 0.100000 0.082006 0.050000
v 0.100000 0.070396 -0.050000
v 0.100000 0.058737 0.000000
v 0.100000 0.047038 0.050000
v 0.100000 0.035307 -0.050000
v 0.100000 0.023551 0.000000
v 0.100000 0.011780 0.050000
v 0.250000 0.000000 0.200000
v 0.249686 0.005598 0.211126
v 0.248746 0.011126 0.221694
v 0.247194 0.016514 0.231174
v 0.245048 0.021694 0.239092
v 0.242336 0.026602 0.245048
v 0.239092 0.031174 0.248746
v 0.235355 0.035355 0.250000
v 0.231174 0.039092 0.248746
v 0.226602 0.042336 0.245048
v 0.221694 0.045048 0.239092
v 0.216514 0.047194 0.231174
v 0.211126 0.048746 0.221694
v 0.205598 0.049686 0.211126
v 0.200000 0.050000 0.200000
v 0.194402 0.049686 0.188874
v 0.188874 0.048746 0.178306
v 0.183486 0.047194 0.168826
v 0.178306 0.045048 0.160908
v 0.173398 0.042336 0.154952
v 0.168826 0.039092 0.151254
v 0.164645 0.035355 0.150000
v 0.160908 0.031174 0.151254
v 0.157664 0.026602 0.154952
v 0.154952 0.021694 0.160908
v 0.152806 0.016514 0.168826
v 0.151254 0.011126 0.178306
v 0.150314 0.005598 0.188874
v 0.150000 0.000000 0.200000
v 0.150314 -0.005598 0.211126
v 0.151254 -0.011126 0.221694
v 0.152806 -0.016514 0.231174
v 0.154952 -0.021694 0.239092
v 0.157664 -0.026602 0.245048
v 0.160908 -0.031174 0.248746
v 0.164645 -0.035355 0.250000
v 0.168826 -0.039092 0.248746
v 0.173398 -0.042336 0.245048
v 0.178306 -0.045048 0.239092
v 0.183486 -0.047194 0.231174
v 0.188874 -0.048746 0.221694
v 0.194402 -0.049686 0.211126
v 0.200000 -0.050000 0.200000
v 0.205598 -0.049686 0.188874
v 0.211126 -0.048746 0.178306
v 0.216514 -0.047194 0.168826
v 0.221694 -0.045048 0.160908
v 0.226602 -0.042336 0.154952
v 0.231174 -0.039092 0.151254
v 0.235355 -0.035355 0.150000
v 0.239092 -0.031174 0.151254
v 0.242336 -0.026602 0.154952
v 0.245048 -0.021694 0.160908
v 0.247194 -0.016514 0.168826
v 0.248746 -0.011126 0.178306
v 0.249686 -0.005598 0.188874
